<mxfile host="app.diagrams.net" modified="2023-09-24T15:00:11.970Z" agent="Mozilla/5.0 (Windows NT 10.0; Win64; x64) AppleWebKit/537.36 (KHTML, like Gecko) Chrome/111.0.0.0 Safari/537.36 Edg/111.0.1661.62" etag="psniDUDcJCcKgFqQkbK4" version="21.3.7" type="github">
  <diagram name="第 1 页" id="2czSaTRLdfW4y4uuUR21">
    <mxGraphModel dx="1993" dy="654" grid="1" gridSize="10" guides="1" tooltips="1" connect="1" arrows="1" fold="1" page="1" pageScale="1" pageWidth="827" pageHeight="1169" math="0" shadow="0">
      <root>
        <mxCell id="0" />
        <mxCell id="1" parent="0" />
        <mxCell id="6sCGa3LK2x3fFQPMABR3-2" value="" style="shape=cube;whiteSpace=wrap;html=1;boundedLbl=1;backgroundOutline=1;darkOpacity=0.05;darkOpacity2=0.1;fillColor=#fff2cc;strokeColor=#d6b656;" vertex="1" parent="1">
          <mxGeometry x="-680" y="270" width="110" height="110" as="geometry" />
        </mxCell>
        <mxCell id="6sCGa3LK2x3fFQPMABR3-16" value="" style="group" vertex="1" connectable="0" parent="1">
          <mxGeometry x="-360" y="230" width="60" height="207.5" as="geometry" />
        </mxCell>
        <mxCell id="6sCGa3LK2x3fFQPMABR3-5" value="" style="rounded=0;whiteSpace=wrap;html=1;" vertex="1" parent="6sCGa3LK2x3fFQPMABR3-16">
          <mxGeometry width="60" height="207.5" as="geometry" />
        </mxCell>
        <mxCell id="6sCGa3LK2x3fFQPMABR3-8" value="Additive Couping Layer" style="text;strokeColor=none;align=center;fillColor=none;html=1;verticalAlign=middle;whiteSpace=wrap;rounded=0;rotation=90;fontSize=18;fontFamily=Helvetica;" vertex="1" parent="6sCGa3LK2x3fFQPMABR3-16">
          <mxGeometry x="-67.5" y="81.25" width="195" height="45" as="geometry" />
        </mxCell>
        <mxCell id="6sCGa3LK2x3fFQPMABR3-17" value="" style="group" vertex="1" connectable="0" parent="1">
          <mxGeometry x="-260" y="230" width="60" height="207.5" as="geometry" />
        </mxCell>
        <mxCell id="6sCGa3LK2x3fFQPMABR3-10" value="" style="rounded=0;whiteSpace=wrap;html=1;" vertex="1" parent="6sCGa3LK2x3fFQPMABR3-17">
          <mxGeometry width="60" height="207.5" as="geometry" />
        </mxCell>
        <mxCell id="6sCGa3LK2x3fFQPMABR3-11" value="Affine Couping Layer" style="text;strokeColor=none;align=center;fillColor=none;html=1;verticalAlign=middle;whiteSpace=wrap;rounded=0;rotation=90;fontSize=18;" vertex="1" parent="6sCGa3LK2x3fFQPMABR3-17">
          <mxGeometry x="-67.5" y="81.25" width="195" height="45" as="geometry" />
        </mxCell>
        <mxCell id="6sCGa3LK2x3fFQPMABR3-18" value="" style="group" vertex="1" connectable="0" parent="1">
          <mxGeometry x="-460" y="230" width="60" height="210" as="geometry" />
        </mxCell>
        <mxCell id="6sCGa3LK2x3fFQPMABR3-14" value="" style="rounded=0;whiteSpace=wrap;html=1;" vertex="1" parent="6sCGa3LK2x3fFQPMABR3-18">
          <mxGeometry width="49.99999999999999" height="202.40963855421688" as="geometry" />
        </mxCell>
        <mxCell id="6sCGa3LK2x3fFQPMABR3-15" value="AvgePool" style="text;strokeColor=none;align=center;fillColor=none;html=1;verticalAlign=middle;whiteSpace=wrap;rounded=0;rotation=90;fontSize=18;fontFamily=Helvetica;" vertex="1" parent="6sCGa3LK2x3fFQPMABR3-18">
          <mxGeometry x="-72" y="82.22891566265062" width="193.99999999999997" height="45.542168674698814" as="geometry" />
        </mxCell>
        <mxCell id="6sCGa3LK2x3fFQPMABR3-33" value="" style="group" vertex="1" connectable="0" parent="1">
          <mxGeometry x="-550" y="480" width="240" height="190" as="geometry" />
        </mxCell>
        <mxCell id="6sCGa3LK2x3fFQPMABR3-27" value="" style="shape=cube;whiteSpace=wrap;html=1;boundedLbl=1;backgroundOutline=1;darkOpacity=0.05;darkOpacity2=0.1;size=10;fillColor=#f8cecc;strokeColor=#b85450;" vertex="1" parent="6sCGa3LK2x3fFQPMABR3-33">
          <mxGeometry width="220" height="170" as="geometry" />
        </mxCell>
        <mxCell id="6sCGa3LK2x3fFQPMABR3-28" value="" style="shape=cube;whiteSpace=wrap;html=1;boundedLbl=1;backgroundOutline=1;darkOpacity=0.05;darkOpacity2=0.1;size=10;fillColor=#e1d5e7;strokeColor=#9673a6;" vertex="1" parent="6sCGa3LK2x3fFQPMABR3-33">
          <mxGeometry x="10" y="10" width="220" height="170" as="geometry" />
        </mxCell>
        <mxCell id="6sCGa3LK2x3fFQPMABR3-29" value="" style="shape=cube;whiteSpace=wrap;html=1;boundedLbl=1;backgroundOutline=1;darkOpacity=0.05;darkOpacity2=0.1;size=10;fillColor=#fff2cc;strokeColor=#d6b656;" vertex="1" parent="6sCGa3LK2x3fFQPMABR3-33">
          <mxGeometry x="20" y="20" width="220" height="170" as="geometry" />
        </mxCell>
        <mxCell id="6sCGa3LK2x3fFQPMABR3-34" value="" style="group" vertex="1" connectable="0" parent="1">
          <mxGeometry x="-540" y="680" width="240" height="190" as="geometry" />
        </mxCell>
        <mxCell id="6sCGa3LK2x3fFQPMABR3-30" value="" style="shape=cube;whiteSpace=wrap;html=1;boundedLbl=1;backgroundOutline=1;darkOpacity=0.05;darkOpacity2=0.1;size=10;fillColor=#dae8fc;strokeColor=#6c8ebf;" vertex="1" parent="6sCGa3LK2x3fFQPMABR3-34">
          <mxGeometry width="220" height="170" as="geometry" />
        </mxCell>
        <mxCell id="6sCGa3LK2x3fFQPMABR3-31" value="" style="shape=cube;whiteSpace=wrap;html=1;boundedLbl=1;backgroundOutline=1;darkOpacity=0.05;darkOpacity2=0.1;size=10;fillColor=#fff2cc;strokeColor=#d6b656;" vertex="1" parent="6sCGa3LK2x3fFQPMABR3-34">
          <mxGeometry x="10" y="10" width="220" height="170" as="geometry" />
        </mxCell>
        <mxCell id="6sCGa3LK2x3fFQPMABR3-32" value="" style="shape=cube;whiteSpace=wrap;html=1;boundedLbl=1;backgroundOutline=1;darkOpacity=0.05;darkOpacity2=0.1;size=10;fillColor=#d5e8d4;strokeColor=#82b366;" vertex="1" parent="6sCGa3LK2x3fFQPMABR3-34">
          <mxGeometry x="20" y="20" width="220" height="170" as="geometry" />
        </mxCell>
        <mxCell id="6sCGa3LK2x3fFQPMABR3-35" value="" style="group" vertex="1" connectable="0" parent="1">
          <mxGeometry x="-730" y="590" width="120" height="100" as="geometry" />
        </mxCell>
        <mxCell id="6sCGa3LK2x3fFQPMABR3-20" value="" style="shape=cube;whiteSpace=wrap;html=1;boundedLbl=1;backgroundOutline=1;darkOpacity=0.05;darkOpacity2=0.1;size=10;fillColor=#dae8fc;strokeColor=#6c8ebf;" vertex="1" parent="6sCGa3LK2x3fFQPMABR3-35">
          <mxGeometry width="97.77777777777776" height="77.27272727272728" as="geometry" />
        </mxCell>
        <mxCell id="6sCGa3LK2x3fFQPMABR3-21" value="" style="shape=cube;whiteSpace=wrap;html=1;boundedLbl=1;backgroundOutline=1;darkOpacity=0.05;darkOpacity2=0.1;size=10;fillColor=#fff2cc;strokeColor=#d6b656;" vertex="1" parent="6sCGa3LK2x3fFQPMABR3-35">
          <mxGeometry x="4.444444444444444" y="4.545454545454547" width="97.77777777777776" height="77.27272727272728" as="geometry" />
        </mxCell>
        <mxCell id="6sCGa3LK2x3fFQPMABR3-22" value="" style="shape=cube;whiteSpace=wrap;html=1;boundedLbl=1;backgroundOutline=1;darkOpacity=0.05;darkOpacity2=0.1;size=10;fillColor=#d5e8d4;strokeColor=#82b366;" vertex="1" parent="6sCGa3LK2x3fFQPMABR3-35">
          <mxGeometry x="8.888888888888888" y="9.090909090909093" width="97.77777777777776" height="77.27272727272728" as="geometry" />
        </mxCell>
        <mxCell id="6sCGa3LK2x3fFQPMABR3-23" value="" style="shape=cube;whiteSpace=wrap;html=1;boundedLbl=1;backgroundOutline=1;darkOpacity=0.05;darkOpacity2=0.1;size=10;fillColor=#f8cecc;strokeColor=#b85450;" vertex="1" parent="6sCGa3LK2x3fFQPMABR3-35">
          <mxGeometry x="13.333333333333332" y="13.636363636363635" width="97.77777777777776" height="77.27272727272728" as="geometry" />
        </mxCell>
        <mxCell id="6sCGa3LK2x3fFQPMABR3-24" value="" style="shape=cube;whiteSpace=wrap;html=1;boundedLbl=1;backgroundOutline=1;darkOpacity=0.05;darkOpacity2=0.1;size=10;fillColor=#e1d5e7;strokeColor=#9673a6;" vertex="1" parent="6sCGa3LK2x3fFQPMABR3-35">
          <mxGeometry x="17.777777777777775" y="18.181818181818187" width="97.77777777777776" height="77.27272727272728" as="geometry" />
        </mxCell>
        <mxCell id="6sCGa3LK2x3fFQPMABR3-36" value="" style="shape=image;verticalLabelPosition=bottom;labelBackgroundColor=default;verticalAlign=top;aspect=fixed;imageAspect=0;image=data:image/png,iVBORw0KGgoAAAANSUhEUgAACJsAAAJNCAYAAACcWubSAAAgAElEQVR4nOzd93cc5f328Wt7ndndGXXJKpZsyTa40ELgoQeSUELyTeCP/KZACCWBUEJMdWwwGIyLbMu2JKvsSDuzvT4/+Gge9MQUg/HK9vt1jg6ruUc6933uc8zM6JrPJ9DpdDoCAAAAgJtIo9GQ4zjK5/NyHEcjIyMaHx/Xiy++qEqlomAwqGw2K8uytH//foVCIUlSMBjs8swBADeqer0u13XleZ4GBgbU6XT0zjvvyPM8tdttSZJhGHr66ad14sQJzc3NyTRNGYYh0zTV09OjRCLR5VUAAAAAAPD9hLs9AQAAAAD4MZrNptbW1uS6riYnJ3XmzBl99NFH/nggEJBhGJKke+65R/F4XJlMxg+YAABwLUSjUfX09Kinp8c/9uSTT6rT6ahUKsl1XT900mq1VC6Xlc/n/XPvueceTU5O6rXXXlMikdgUROnv77/u6wEAAAAA4NsEqGwCAAAA4EbRbrfVarUUiUR0+PBhLS8vq1AoaOO25n/+539UKpX01VdfybZtWZalXC6ncJicPQBg62k0GvI8T67rqre3V9FoVG+++aZc11Wr1ZJ0OcTy+9//XmfOnNHJkydlmqYfROnp6VEqleryKgAAAAAAtyLCJgAAAAC2rEqlosXFRb8lzvr6uqanp7V//369/vrrqlarsixLlmXJtm319PRQsQQAcMPrdDqqVCpyXVeNRkPbtm3TqVOndPz4cZVKJf+8/fv3a9euXXrjjTcUCoX+qxoK7eEAAAAAAD8VwiYAAAAAtgTP8/xQydramh555BHNz8/r4MGDkqR4PC7LsjQ2Nqbx8XG1Wi2CJQCAW06r1fKroWSzWRmGoTfeeEOFQkHNZlOSFAwG9dxzz2lhYUGff/75phCKbdt+ezkAAAAAAH4owiYAAAAArrtSqSTHcRSPx9Xb26u///3vWltb88ej0aieeOIJRaNRraysyLIsJZPJLs4YAICtr1KpyPM8VSoVjY2N6dy5c/r8889VKpX8lnO7d+/Wvn379M4776jVavkhlI1qKAQ5AQAAAADfB2ETAAAAAD+parWqeDwux3H0+eefy3EcVatVSdLY2Jjuu+8+HTt2TI1Gw2+Hk06nuzxrAABuHq1WS8ViUZ7nKZ1OK5vN6u2335bjOKrX6/55v//977W+vq5Dhw5tqoZiWZay2WwXVwAAAAAA2GoImwAAAAC4ppaXl7W6uqp8Pi/HcVQul/Xss8+qUqnon//8p3K5nGzblmVZ6unpoZQ/AABdVKvV5LquisWiJiYmtLCwoE8++UTFYlHtdluSNDk5qXvuuUfvvfeeyuXypiBKf3+/IpFIl1cBAAAAALjeCJsAAAAA+EGazabW1tb8UEk2m9Xu3bv15ptvanl5WYFAQNlsVpZlac+ePUomk+p0OgoGg92eOgAA+A7tdlulUkmu6yqRSMiyLL333ntaXl72K5RJ0jPPPKNGo6GDBw/67XgMw5BlWbIsq4srAAAAAAD8lMLdngAAAACAra/Vaml9fV2O42hiYkL5fF5vv/22rpRd37t3rwKBgHK5nEKh0KaxQCBwvaYMAAB+hGAwKMMwNlUgu//++yVJ9XpdnufJdV2lUimtrq4qHA7r0qVLWlhYkCRt27ZN/+f//B99/PHHWltb2xREGRgYUDQa7cq6AAAAAADXBpVNAAAAAGzSbrfVaDQUi8X0xRdf6MKFCyoUCn4p/V/84hcyDEOHDx+WZVmybVu5XI4S+gAA3OI6nY5KpZI8z1MkElFPT48OHTqkhYUFlctl/7wnnnhC8Xhcb775pt+OxzRNZbNZ9fb2dnEFAAAAAIDvi7AJAAAAcIur1+taWFjw2+Gsra1pcHBQDzzwgD744AMtLS35oRLLstTT00OwBAAAXJVmsynXdeV5noaHh1UsFvXhhx/K8zw1m01JUn9/vx599FF98sknWlpa8iuhGIah/v5+JRKJLq8CAAAAALCBsAkAAABwCymVSn6oxHEc3XPPPWo2m3rttdckSdFoVLZta2BgQDMzM2q1Wv/VCgcAAOBaKpfLcl1XwWBQfX19+vTTT3X+/HmVSiX/nIcfflg9PT165ZVX/BCKaZrKZDIaGBjo4uwBAAAA4NZE2AQAAAC4SVUqFTmOI0kaHh7WwYMHdeHCBX88HA7rgQceUF9fny5evCjLspROp7s1XQAAgE1arZY8z5Pneerv71e9Xtf7778v13XVaDQkSdlsVr/+9a917NgxnT9/flMQpb+/X8lkssurAAAAAICbU7jbEwAAAADw49XrdYVCIVWrVR0+fFiO46hSqUiScrmchoeHNTg4qEQi4bfDMQxDgUBAkjQ6OtrN6QMAAPyXUCikbDarbDYr6XIFtieeeEKSVK1W5bqu2u22JCkYDKrVaunixYvaeLfuvvvu0+joqF566SWlUik/iJLJZDQ0NNSdRQEAAADATYLKJgAAAMANyHEcLS0t+e1wisWiHn30UeVyOb3wwgvKZDJ+qMS2bf+PNAAAADezdrutYrEo13Vl27aCwaDeffddua6rer0uSUomk3r22Wd18uRJnTx5UqZp+l99fX1UegMAAACA74GwCQAAALCFtVotra2tyXEc5fN5RSIR3XXXXfr44481OzurQCAg0zRlWZamp6eVy+XUbrcVDAa7PXUAAIAtpVaryfM8NRoNDQ4O6tSpUzp58qSKxaJfIeXOO+/Uzp079corrygSiWwKogwPD/tV4QAAAADgVkfYBAAAANgi2u22CoWC8vm8hoaG1Ol09Le//U1fv2Tv6enR448/rvX1dTUaDeVyOYXDdMcEAAD4odrttkqlkjzPUyaTUTwe1zvvvCPXdVWtViVJ4XBYzz33nM6ePatjx475LXlM01Rvb68ymUyXVwEAAAAA1xdPpQEAAIAu6HQ6qlarSiQSmp2d1ezsrNbW1vy3an/2s59pYmJCo6OjymazsixLlmUpGo1KEm1xAAAArpFgMCjDMGQYhn/ssccekyQ1Gg25rqtarSZJCgQCCofDWlpa0sLCgiTp9ttvVyaT0euvv65Op7MpiDI8PKxQKHT9FwUAAAAAPzEqmwAAAADXQavV0sWLF/12OGtra0qlUnryySd17NgxnTx5UrZt+6GS3t5eP1gCAACAraXT6ahcLst1XaXTaRmGoX/9619aX19XuVz2z3v++ed16dIl/ec///Hb8RiGod7eXuVyuS6uAAAAAAB+HCqbAAAAANdYuVz2QyWO42j37t2ybVsffPCBOp2OIpGIbNuWbduSpN27d+u2227r8qwBAADwfQUCAaVSKaVSKf/YQw89JElqNpvyPE+lUsmvahKPx7W6uqpLly5Jkqanp5XL5fT222+rWq3+VzWUSCRy/RcFAAAAAFeByiYAAADAj1Cr1ZTP51Wr1TQxMaFPP/1Ux48f98dDoZDuuusubd++XfPz8zJNU+l0WoFAoIuzBgAAQDdUKhW5rqt4PK5MJqP3339f+XxepVJJG49pf/vb36pYLOq9997zQyiGYainp0c9PT1dXgEAAAAAXEZlEwAAAOB7ajQaki6/yfrhhx/KcRyVSiVJUiQS0fj4uPr6+tRoNPyWOKZpKhgMSpKGh4e7NncAAAB0XyKRUCKR8L+/7777JF1uuVgsFuV5nhKJhDzPUzKZlOM4WlpakiSNj4+rp6dHBw8elOu6fiUU0zQ1NDSkWCzWlTUBAAAAuDVR2QQAAAD4Bq7ranFx0W+J43me7r77bk1NTenFF19ULBaTZVl+sCSXy1GxBAAAANdUtVqV53kKh8PK5XI6dOiQlpaWVCwW/WooTz75pCTpzTff3NSSx7Is9ff3d3P6AAAAAG5ShE0AAABwy2u321pfX/dDJbVaTQ8++KCOHz+uTz/9VJJkGIZs29bExIQGBgbUbrf9iiUAAADA9dZut/1qKIODgyoUCjp8+LBc11WtVpMkDQ0N6aGHHtJHH32klZWVTUGUoaGhTVVWAAAAAOBqEDYBAADALaXT6ahQKMhxHOVyOWUyGf35z39Ws9n0z0mlUnrqqadUrVZVLBZlWZYikUgXZw0AAAB8f/V6Xa7rKhAIyLZtHT16VPPz8/I8T+12W5L0i1/8Qul0Wq+88orfjscwDOVyOQ0NDXV5BQAAAAC2OsImAAAAuKmVy2Ulk0nNz8/r+PHjchxHrVZLkrR7927t27dPR44cUTQa9Vvi0O8eAAAAN6NOp6NSqSTXddXb26tqtapDhw7JdV1VKhVJUk9Pjx5//HF98sknunDhwqYgytDQkFKpVJdXAQAAAGArIGwCAACAm8qFCxf8djiO46jdbusPf/iDLly4oP/85z+yLMsPldi2TelwAAAAQFKj0fArn/T09OjLL7/U3NycPM/zw9oPPPCABgcH9cILLyidTvtBlEwmo23btnV5BQAAAACuJ8ImAAAAuCFVq1U/UOI4jrZt26bt27frr3/9q8rlssLhsHK5nGzb1m233aZQKKRgMNjtaQMAAAA3lE6no3K5LM/zlMvl1G639eGHH8p1XZXLZUmSYRh6+umn9cUXX+j06dMyDMMPogwMDMg0zS6vAgAAAMC1Fu72BAAAAIDvUq/X5TiOCoWCpqenNTs7q48//tgfDwaDsixLknTvvfcqHo/LNE0FAoFuTRkAAAC4KQQCAaVSqU3tcx555BFJUrPZlOd5ajabkqRYLKZ4PK58Pq+lpSVJ0s9+9jOZpqkXXnjBv07fCKOMjY1xzQ4AAADcoAibAAAAYEtpNptqtVqKxWL66KOPtLy8rGKx6I+Pjo7KsixNTk767XAymYxftaS/v79bUwcAAABuKRvVBDdMTU1pampKklSpVOR5ngzDULPZlGVZcl1XFy5cUKfTUSwW0/j4uE6dOqVjx45tCqEMDAwom812a1kAAAAAvgfa6AAAAKCrSqWSFhYW/JY4rutqenpaBw4c0D//+U/VajU/VGJZlizLoh0OAAAAcINqtVoqFouq1Wrq6+vTuXPndOrUKbmuq3q9Lknav3+/du3apZdfflnBYFCGYWyqhhIKhbq8CgAAAACETQAAAHBdtNttFQoFOY4jx3G0tramxx57TIuLi/r3v/8tSUqn07IsS9u2bdPo6Kja7TbBEgAAAOAWUavV5LquksmkksmkDh48KNd1VSwW/XuD559/XufPn9fhw4f9AIppmurr65Nt2+p0OrTmAQAAAK4DwiYAAAC45jqdjjzPk+M4SiQS6u/v16uvvqpCoeCfk0gk9NhjjykWiymfz8u2bUWj0S7OGgAAAMBW1G63VSqVVC6X1d/fr/n5eR0/flye56larUqSdu/erX379ukf//iHGo3GpiDK6OiowuEwIRQAAADgGgp3ewIAAAC48ZVKJaVSKeXzeR09elSO46jRaEiSRkdH1d/fr4mJCTUaDb8dTiKR8H9+cHCwW1MHAAAAsMV9vZWOJA0PD2t4eFiSVK/X5XmeYrGYJCmTyWhtbU1LS0taWFiQdPme5NKlS3rvvfdkmqYfROnt7VVfXx/VUAAAAIAfgLAJAAAArtri4qJWVlb8lji1Wk2/+c1vFAgE5DiOLMvyv2zbliTt2rWry7MGAAAAcLOJRqP+PYck3XvvvZIuV1ssl8vyPE+RSEShUEiWZcl1XeXzeUnS1NSU+vr69M4778jzvE1BlNHRUUWjUUIoAAAAwDegjQ4AAAC+Ua1W8wMl+XxelmXptttu01tvvaWlpSWFQiHlcjlZlqWZmRklk0lJ4oEsAAAAgC2r2WzK8zyFQiGZpqnDhw9rZWVFnuep2WxKkp555hnV63W9+eabfgDFMAz19PRocHCQaigAAAC45VHZBAAAAJKkRqOhtbU15fN57dixQ/l8Xm+99ZY/HgwGFY1GJUn79u1TMBhUJpNRMBjs1pQBAAAA4KqFw2Hlcjn/+zvvvNP/XC6X5bquUqmU6vW6ent75bqu5ubmJF1uyTM4OKj3339fKysr/1UNJZFIEEQBAADALYGwCQAAwC2o1WqpXq8rkUjos88+04ULF+S6rj/e09OjbDariYkJ2bYty7KUzWYVCoUkaVOZagAAAAC4WSSTSb9io2VZevjhhyVdvofyPM8PkRiGoVKpJMdxtLS0JEnq7e1Vq9XSK6+8sqkaim3bGhkZIYQCAACAmwptdAAAAG4BtVpNFy5c8FvirK+va2hoSA8++KA++ugjLS8v+6GSjf9uBEsAAAAAAN+sWq3KdV3Ztq1SqaRPPvlEnuepWCyq0+mov79fjz76qD7++GPNz89vCqJs27ZN6XRa7XabqpEAAAC4oVDZBAAA4CbS6XTkuq4fKsnn8/r5z3+udrutQ4cOSbr8pt7w8LAGBgYkSffccw9v1wEAAADADxSPxxWPxyVJpmnqoYcekiS1220Vi0W1221Jl6uhpNNpFQoFraysSJJyuZyi0aheeOEFpVIpmaYp0zSVzWY1Pj5OCAUAAABbFpVNAAAAbmDFYlH5fF6BQECjo6P697//rYsXL/rjsVhM999/v/r6+rSwsCDbtv2HoAAAAACA7qjVavI8T5lMRo1GQ4cPH5brun44JZfL6Ve/+pWOHj2q06dP+5VQTNPUyMiITNMkiAIAAICuorIJAADADaJcLisWi6larerjjz+W4ziq1+uSpGw2q9HRUf+ho2VZsixLqVTK//nh4eFuTR0AAAAA8DWxWEyxWEySFIlE9MADD0i6XA2lVCqp2WxKklKplLLZrFzX1erqqn8snU7rT3/6kxKJhB9EyWQympycJIQCAACA64LKJgAAAFvU6uqqLl265LfDqVareuSRR2Tbtl588UXlcjk/VGLbtgzD6PaUAQAAAAA/kUajIdd1lU6nFQgEdOjQIbmuK8/z1Gq1lEwm9eyzz+r48eM6duyY35LHMAwNDw8rl8sRRAEAAMA1Q9gEAACgyxqNhh8ocRxHkUhEP/vZz3To0CGdPn1awWBQ2WxWtm1rampK2WxWnU5HgUCg21MHAAAAAHRZp9NRuVxWrVaTZVk6d+6czp49K9d1VS6XJUl33XWXduzYob/85S8KhUKbgihTU1OSRAgFAAAAV4WwCQAAwHXUbDa1trYmx3E0MjIiSXrppZf88UAgoN7eXj322GNyXVfNZlPZbJaHfgAAAACAq9ZsNuV5nhKJhKLRqD788EO/Gkqz2VQ4HNZzzz2n2dlZHT582A+gmKapwcFB9fT0UA0FAAAAVxTu9gQAAABuVu12W5VKRalUSqdOndLp06dVKBS0kfWNRCLavn27JicnlclkZNu2stmswuHLl2imaXZz+gAAAACAG1w4HFYul/O/v++++/zPlUrFr3wSj8fV19cn13V1/vx5SZcrnfT09OjVV19Vs9ncFESZnJxUMBhUIBCg6iYAAMAtirAJAADANdJsNnX+/Hm/Hc76+rrS6bSeeuop1et1NRoNjYyMyLZtWZYly7IkSffcc0+XZw4AAAAAuNUkEgklEglJ0vDwsIaHhyVJrVZLnucpGo1Kknp7e1UoFOQ4jpaWliRJU1NTWlhY0HvvvSfDMPwQSn9/vwYGBtRqtRQKhbqzMAAAAFwXtNEBAAC4Sp1OR8Vi0Q+V5PN53Xbbbert7dWf/vQndTodxeNx2bYt27a1Z88edTod3vYCAAAAANzQqtWqSqWSbNvW0tKSTpw4Idd1VSwW1el0ND09rTvuuEOvv/66isXif1VD2ajkSVseAACAGx+VTQAAAL5DqVSS4ziq1WqamprSp59+qq+++sofj0ajqlarCofDevjhh2WappLJ5KbfQdAEAAAAAHCji8fjisfjkqT+/n719/dLutxGtlgs+tVMent7FQwG5bquVlZWJEkTExNaXV3VW2+9pXQ67QdR+vr6NDw8TDUUAACAGwxhEwAAgK+pVqsKBoMKBoN677335DiOqtWqpMu9ricnJzU4OChJsixLtm0rnU77Pz8wMNCVeQMAAAAA0C3BYFCmafrfHzhwwP9cr9fleZ7i8bhKpZKGh4fleZ4WFxc1Pz+vWq2m4eFhHTx4UCsrKzJN0w+ibN++XfF4XO12myAKAADAFkMbHQAAcEtbX1/XwsKC3xKnXC7rrrvu0o4dO/TSSy/57XAsy5JlWcpkMt2eMgAAAAAAN7xOp6NSqSRJSqfTOnbsmJaXl+W6riqViiTpqaeeUrvd1t///nelUim/JY9t2xobG1Oz2fRb8wAAAOD6ImwCAABuCc1mU2tra36opFqt6tFHH9VXX32lTz75RIFAQNlsVpZlaXx8XH19fep0OrS/AQAAAADgOms0GvI8T9lsVsViUZ9//rlc15XneWq1WhoeHtaDDz6oDz74QBcvXvRDKKZpanx8XOl0miAKAADAT4wrLQAAcNNptVpaX1+X4ziybVvZbFZ/+ctf1Gq1/HMymYxarZZGR0fV09OjXC73XyV5CZoAAAAAAHD9RSIRWZYlSTJNU/fff7+ky9VQyuWy2u22JCmXy6larcp1Xc3NzUmS+vv7FQqF9OKLLyqZTPoteSzL0vbt29VsNhUKhbjnBwAA+JGobAIAAG5o7XZbpVJJhmHowoUL+uKLL1QoFPwHT7t27dL+/ft19OhRRaNR2batXC6nSCTS5ZkDAAAAAIBrpdlsyvM8GYahWq2mzz77TK7rynVdNZtN9fT06PHHH9fhw4c1OzvrV0MxDENjY2PKZDJUQwEAALgKXDUBAIAbzrlz5/x2OGtra5KkP/zhD+p0OqpWqxocHJRt27IsS7ZtS5L27dvXzSkDAAAAAICfUDgcVi6X8z///Oc/98cqlYoajYaky5VO+/r65HmeLly4oE6nI9u2lUql9Mc//lHxeNwPoeRyOe3YsUPNZlPBYFDBYLArawMAANiKqGwCAAC2rGKxKMdx5DiO8vm8xsbGNDU1pZdeekmlUsmvVGJZlnbt2kW1EgAAAAAA8L21Wi0Vi0Ulk0m122198skncl1XnuepXq/LNE099dRTOnbsmL744gul02mZpinTNLVt2zZZlqVGo8HzCAAAcEuisgkAANgSKpWK8vm8XNfV7t27dfr0aR06dMgfj0QiGhgYkCTdd999SiQSSqVS3ZouAAAAAAC4wYVCIWUyGf/7e++91/9cq9VUq9UkSYZhaHBwUK7ran5+XhcvXpRhGLIsSy+++KKCwaAfQjFNUzMzM2q1WlRDAQAANzUqmwAAgOuuVqup3W4rkUjogw8+0NLSkiqVij/+29/+VvV6XadPn/YrlxiGoUAg0MVZAwAAAACAW1273VapVFIsFlMwGNSRI0f8aijValXxeFy/+93vdPLkSR05ckSpVMoPoYyMjKi3t5dqKAAA4KZA2AQAAPzkisWiLly44LfDKZVKmp6e1h133KG33npL9XrdD5VYlqVMJsObPwAAAAAA4IZSr9dVqVSUyWQ0Pz+vs2fP+kGUdrutAwcOaGZmRi+++KKazaZM05RhGH41lA2hUKiLqwAAAPh+CJsAAIBrptVqaW1tzQ+VrK2t6Ze//KUuXbqkd999V4FAQKZpyrIsjYyMaGRkpNtTBgAAAAAA+El1Oh2VSiVFIhFFo1EdPnxYruvKdV1VKhUFg0E9//zzmpub0wcffOBXQzEMQ0NDQxocHFS9Xlc0Gu32UgAAAHyETQAAwA/SbrdVKBSUz+eVTCY1NDSkV199VYVCwT8nnU7r4YcfVjwe1/r6unK5nMLhcBdnDQAAAAAAsHU0m02VSiVlMhktLS1pdnbWr4bSbDa1Z88e7d27V6+99pqKxaJfCcUwDE1PTysUCqnT6fC8BQAAXHdcfQAAgO/U6XTkeZ5M09Tq6qqOHDmitbU1tdttSdLIyIiGhoY0OTmpVqvlt8P5+hs3vb293Zo+AAAAAADAlhQOh5XJZCRJ/f396u/v98fK5bICgYAkaXBwUOvr63JdV3Nzc5KkmZkZLS8v65133lEikfBDKIODgxoZGVG9XlckEvF/BwAAwLVE2AQAAFzRxYsXtbKy4rfDaTabeuaZZxQKhVQqlTQwMCDLsmTbtizLkiRNT093edYAAAAAAAA3h2Qy6X/ev3+//7nVaqlYLPptecbHx+V5nhzH0dLSkqTLLwb9+9//Vj6fl2EY/tfOnTsVi8XUarUUiUSu+5oAAMDNgzY6AADc4srlshzHUT6fl+M4sixL+/bt09tvv61Lly4pEon4gZIdO3ZsetABAAAAAACAraNararT6SiRSOiLL77Q6uqqXNdVqVRSp9PRb37zG1WrVb3++uuKx+N+W56+vj6Nj4+rXq8rHA4rGAx2eykAAGCLo7IJAAC3kFqt5odKpqenlc/n9fbbb/vj4XBYqVRKknTgwAGFQiEZhtGt6QIAAAAAAOAqxONx//OePXv8z+12W8ViUclkUs1mU9u3b5fruioUClpZWVGj0dD4+Lg++ugjLSwsKJ1O+0GUqakppVIp1et1xWKxbiwLAABsQVQ2AQDgJtVoNFSv15VKpfTpp5/q/PnzKpVK/vhjjz2mbDaro0eP+pVLMpkMfXwBAAAAAABuIbVaTa1WS8lkUidOnNDy8rJc11WxWFS73davfvUrhcNhvfzyy4pGozJNU4ZhqKenR1NTU6rX6wqFQgqFQt1eCgAAuI4ImwAAcJOoVquam5vzK5d4nqehoSE99NBDOnTokFZXV2VZlh8syWazlEQFAAAAAADAFbXbbZVKJaVSKZXLZX355ZfyPE+u66parWpgYECPPPKIPv74Y505c0apVMoPokxOTiqTyahSqSiRSHR7KQAA4CdA2AQAgBtMu93W+vq6HypxHEf333+/JOmVV16RJBmGIdu21d/fr+3bt3dzugAAAAAAALjJNBoNNRoNJZNJzc7OanFxUZ7nyfM8tVotPfLII7IsS3/+858ViUT8ljy5XE4zMzOq1+sKBoMKh8PdXgoAAPiBCJsAALCFdTodFQoFOY6jYDCo8fFxvfvuu5qfn2gCGU8AACAASURBVPfPSaVSuvfee9Xb26vl5WVZlqVIJNLFWQMAAAAAAOBW1Ol0VC6XFYvF1Gw2dezYMbmuK8/zVC6XZVmWfvnLX+rTTz/V8ePHlUql/CDKxMSELMtSpVJRPB6n1TMAAFscYRMAALaITqejYrGoRCKharWqDz/8UI7jqNVqSZKy2ax+/etfa25uTp7n+S1xYrFYl2cOAAAAAAAAfLtms6laraZUKqXz58/r4sWLfhCl2Wzq/vvv18jIiP73f/9XwWDQb8mTyWR02223qdFoSBIvWQEAsEUQNgEAoIuWl5e1uLjot8RpNBp6+OGH1dPTo7/97W/K5XJ+qMSyLCWTyW5PGQAAAAAAALimyuWyHyL5/PPP5bquXNdVqVRSKpXSb37zGx0/flyffvqpEomEH0QZGxtTX18f1VAAAOgCwiYAAFwH1WrVD5Q4jqNwOKz7779fhw4d0unTpxUOh2VZlizL0vbt25XJZLo9ZQAAAAAAAKCrWq2WqtWqUqmUFhYWdP78eT+I0mg0dPfdd2tqakp//vOf1Ww2ZRiG35bn9ttvV6vVUqfTUTQa7fZSAAC46RA2AQDgGqvX636oZHR0VIFAQC+99JI/HgqF1NfXp4cffljFYlHtdluGYfDmBQAAAAAAAPA9VatVhUIhhUIhHT16VJ7nyXVdFYtFhcNh/eEPf9Ds7Kw+/vhjxeNxP4iybds2DQ0NqVKpKBaLKRgMdnspAADckMLdngAAADeyZrOpcrks0zR14sQJnTx5UsVi0R+PxWKanJzUzp07lc1mZVmWMpmMfxObTqe7NXUAAAAAAADghhWPx/3PBw4c8D+3221VKhVJkmEY2r59ux9EWVlZUTqd1tDQkP75z3+qVCopnU7LNE2Zpqk9e/YoEAio1WopFotd9zUBAHAjobIJAABXodls6uzZs35LnEKhIMMw9PTTT+v48eM6c+aMbNv2W+LkcjmFQqFuTxsAAAAAAAC45dXrdUlSNBrVZ599pkKhIM/z5HmeOp2Onn/+ec3Pz+vgwYOKRqN+S57h4WFt27ZNlUpF0WiU530AAIiwCQAAV9Rut1UoFOQ4jh8s2bt3r/r7+/XHP/5RnU5H6XRalmXJtm3NzMx0e8oAAAAAAAAAfoBOp6NyuaxUKqV8Pq8zZ8741VAqlYpmZmZ04MABvf7663IcR6lUyg+i7N69W5FIRPV6XYlEottLAQDguqGNDgDgltfpdOR5nvL5vOr1uqanp3X06FF99dVX/jmJREL1el2hUEiPPfaYTNOklCYAAAAAAABwEwgEAkqlUpIk27Zl27Y/1mg01G63JUnbtm1TKpWS67paXl7W4uKi9uzZo3w+rzfffFPhcFimacowDA0ODmpiYkKVSkWRSEThMH+SAwDcXPg/GwDgllMsFhWJRBQKhfTuu+/KcRw1Gg1JUigU0s6dOzU8PKxQKOS3xPn6Wwm9vb3dmjoAAAAAAACA6ygSififd+3a5X/udDqqVCqKxWKKxWLauXOnXNeV67pyHEehUEgTExP66KOPtLi4qGQy6QdRZmZmlEwmValUlEwmFQgEurE0AAB+FNroAABueo7j6OLFi3IcR47jqFar6c4779TOnTv16quvKh6Py7IsvyXOxlsMAAAAAAAAAHC1ms2mWq2WYrGYTp06pdXVVT+I0mw29dRTT6ndbuu1115TKBTyW/L09fVpx44dqlQqCofDm4IuAABsNYRNAAA3jVqt5gdK8vm8qtWqnnjiCZ04cUJHjhxRKBRSLpeTZVkaGxtTT09Pt6cMAAAAAAAA4BZSqVQUj8dVKpV08uRJeZ4n13VVKpU0NDSkBx98UO+//77m5uYUj8f9aijT09PKZDLyPE+pVErBYLDbSwEA3OJoowMAuCE1Gg2tra0pn8+rt7dXlmXpr3/9q1qtliQpGAwqm82q2WxqdHRU/f39Mk2TmzAAAAAAAAAAXbPRrjudTuuOO+7wj7daLTWbTUnS4OCggsGgXNfV+vq6lpeXtX37dpXLZb388ssKBoNKp9MyTVO2bWv37t2qVqsKBAKKxWJdWRcA4NZDZRMAwJbXarXkeZ6y2azOnz+vzz//XK7r+uMzMzM6cOCAvvjiC0WjUVmWpWw2q1Ao1MVZAwAAAAAAAMCPV6vVFIlEVKvVdOLECb8lT7FYVE9Pj37xi1/o8OHDOnnypKLRqEzTlGmampqakm3bVEMBAPwkqGwCANiSTp8+7bfDKRQKCgQCeu655xQMBtVutzU2NibLsmTbtnK5nCRpz549XZ41AAAAAAAAAFxbG9VKEomE9u/f7x9vt9tqNBqSpL6+PrVaLbmuK8/ztLq6qm3btqnZbOrll19WIBBQOp2WYRjK5XLau3evarWaOp2O4vF4V9YFALixUdkEANA1nU5Hrusqn8/LcRw5jqPx8XHt3LlTL730kkqlkpLJpB8q2blzp8JhcpIAAAAAAAAA8G3q9bpCoZBarZaOHz8uz/P8IIphGHryySf1+eef69ixY4pEIjJNU4ZhaHJyUn19ffI8T8lkkurRAIBvxF/sAADXjed5chxHhUJBe/fu1ezsrA4dOuSPx+Nxvy/pAw88oEQiQaoeAAAAAAAAAK5SNBqVJIVCIe3bt88/3ul0VK/XJUm2bWtqasoPouTzeQ0MDKjT6ei1115Tq9VSKpXy2/IcOHBAjUZDzWZTyWSyK+sCAGwdVDYBAPwkyuWyJCmZTOrgwYNaWlryb2Ik6dlnn1Wz2dTZs2dlWZYsy1IqlerWdAEAAAAAAADglrbxImAgENCXX37ph1Bc11UkEtHvfvc7nThxQkeOHFE4HJZhGDJNU+Pj4xoaGpLneUokElSnBoBbBP/aAwCuCc/zNDc357fEqVar2rlzp+688061Wi1lMhk/VGLbtp98/3qqHgAAAAAAAADQHV8Pidx+++2bxmq1miQpl8tp586dfkueubk52bYtSXrzzTdVqVSUTCb9IMr+/fv9airJZFKBQOD6LQgA8JOisgkA4Ko0Gg05juOHStbW1vTrX/9ay8vL+te//qVgMKhsNivbtjU0NKShoaFuTxkAAAAAAAAA8BNotVrqdDoKh8P64osv/Eoonuep3W7rueee07lz5/Thhx8qFArJMAwZhqHR0VGNjo6qWCwqFospEol0eykAgKtEZRMAwDdqNptaW1uT4zhKpVIaGRnRG2+8oUKhIOlyOcVMJqNqtare3l798pe/VDabVTAY7PLMAQAAAAAAAAA/tVAo5H/es2fPprFareY/Q56ZmfGDKBcvXlQmk5EkvfvuuyoUCorH4341lH379ikUCqlSqSiVSvG8GQC2KMImAABJUrvd1vr6uizL0srKiv7zn/+oUChoowDW8PCwRkZGtHPnTrVaLdm2rWw2u6m0omVZ3Zo+AAAAAAAAAGALicVikuS3V9/QbrfVarUkSZOTk1pfX5fruioUClpZWdEdd9yxqZJ2Op2WYRgaHh7W5OSkisWiIpGI//sBAN1B2AQAbmFzc3NaXl6W4zhaX19Xu93W008/rUgkokajoW3btvk3Ahs3A1NTU12eNQAAAAAAAADgRhUMBv1qJdPT05vG6vW6wuGwUqmUdu3aJc/z5LquFhcXlUwmJUkffvihVlZWFI1GZZqmDMPQ7bffrng8rmKxKMMwqIYCANdBoLPxyjoA4KbU6XRULBaVz+flOI7y+bxs29Ydd9yhd955R4uLi0okEn6gZHJyUolEotvTBgAAAAAAAABA0v+rhhKJRDQ7O6t8Pi/XdeV5nqrVqp599lmVy2W98cYbCgQCSqVSMk1TAwMDmp6eVqlUUjAY5Nk3AFxDVDYBgJtMqVTyQyV79uxRPp/X22+/7Y9Ho1G/Sskdd9yhcDjsJ8IBAAAAAAAAANhqvl4NZXJyUpOTk/5Yo9FQJBJRu93Wnj17/BDK0tKSIpGIJOnIkSO6ePGiIpGIDMOQaZras2eP0um0XNeVYRgKhUJdWRsA3KgImwDADaxSqajZbMowDB05ckTnzp1TrVbzxwcGBmRZlmZmZmRZlmzbVjqd9sdN0+zGtAEAAAAAAAAAuCY2AiXpdFp79+71j3c6HTWbTUnS6OioEomEH0RxHEczMzMqlUp67bXXJEmpVEqGYai3t1e33XabSqWSAoGAEomEAoHA9V8YAGxxhE0A4AZSqVR05swZOY4jx3FULpc1ODiohx9+WJ1OR+l0WmNjY36wxDAMBQIBHThwoNtTBwAAAAAAAADgugkEAn4QZWxsTGNjY/5Ys9lUMBhUrVbT7bffLtd15bquVldX/WDJsWPHdObMGYVCIZmmKcMwNDMzI9u2tba2pnQ67f9+ALgVETYBgC2o2Wz6gZKNljgPPPCAQqGQPvvsMwUCAWWzWQ0ODqqvr0+SdOedd3Z51gAAAAAAAAAAbH3h8OU/kSYSCd12222bxhqNhiRpeHhYkUjED6KcP39eU1NTqtVq+vvf/+7/vGmasixL+/fvV7lcVrvdViqVohoKgJseYRMA6LJWq6X19XU5jqNgMKjJyUm9//77mp+f988xTVONRkPZbFaPP/64crkc/SMBAAAAAAAAALjGNqqVjIyMaGRkxD/earUUCATUbDa1d+/eTS15NgIqJ06c0FdffaVgMCjDMGSapnbu3Km+vj6tra0plUopGo12ZV0AcK0RNgGA66jdbqtQKMgwDFWrVR08eFCFQkHtdluSlMlkNDk5qe3bt6uvr0+WZSmXy20qxdfT09Ot6QMAAAAAAAAAcEvaeAE0Go1qz549m8aazaYkaXBwUJL8IMrFixc1Njamdrutf/zjH+p0OorFYjJNU5lMRnfffbcqlYoajYbS6bSCweD1XRQA/AiETQDgJ7a4uKiFhQU5jqO1tTW1Wi099NBD6uvrU71e19DQkCzLkmVZsm1bkjalpQEAAAAAAAAAwNa10ZZnYGBAAwMD/vGNF03b7bb27dvnt+RxXVeVSkWSdPbsWR09elSBQEDpdFqmaWpyclLDw8NaW1tTIpFQPB6//osCgO8Q6HQ6nW5PAgBuBsViUY7jKJ/Py3EcRSIRPfjggzp8+LBOnjypWCzmB0rGxsZkmma3pwwAAAAAAAAAALqg2WwqHA5rZWVFCwsLfjUUz/N05513ampqSn/605/UaDQUjUb9tjx33323ms2mqtWq0um0X3EFAK43wiYA8ANUKhU/VDI+Pq5wOKy//vWv/ngkElF/f78eeOABlUolSVIqlerWdAEAAAAAAAAAwA2g0+mo3W4rEAjo5MmT8jzPD6K0Wi39/ve/1+nTp3Xo0CEFAgGlUikZhqGJiQmNjY1pfX1dsVhMiUSi20sBcJOjjQ4AfIdaraZyuaxcLqfjx4/rxIkTfnk7SUomk5qamtLu3buVyWRkWZYMw1AgEJBEyAQAAAAAAAAAAHw/gUDAr1YyMzOzaazVakmSLMvSnj17/CDK8vKy+vr6JEnvvvuuSqWSwuGwTNOUYRi66667JEmlUkmGYfhtfwDgx6CyCQD8f5rNpk6dOuW3xCmVSkqn03rmmWd04sQJnTt3TpZl+S1xTNNUMBjs9rQBAAAAAAAAAMAtaKMaSigU0qlTp+S6rv9VrVb13HPPaX5+XgcPHpR0+SVa0zQ1OjqqyclJra+vKxKJKJlM+i/SAsB3IbYG4JbVarW0trbmt8NxHEf79u3T4OCgPvvsM3U6HZmmqYmJCdm2LUmanp7W9PR0l2cOAAAAAAAAAABw2deroezYsWPTWKvVUjAYlGmauv322/1qKKurq8rlcpKkjz76SI7jKBQKyTAMmaapAwcOKBqNynVdGYahSCRy3dcFYGujsgmAW0K73db6+rocx1G9Xtfu3bv1ySef6KuvvvLPSafT2rt3r8bGxuQ4jkzTpJQcAAAAAAAAAAC4KbVaLYVCIZ09e1Zra2t+EKVUKul3v/ud1tfX9dZbb0mSEomEDMPQ8PCwZmZm5LqugsGgUqkU1VCAWxRhEwBdU6lUFAqFFI1GdeLECb/X4IZdu3bJ8zxdvHhx0/FsNquhoSGdP39exWJx09j4+LjC4bCOHTumUCikUCik2dlZVSoVbfxzFwgEdPvtt6tcLqtYLGp4eFjj4+Oam5tTo9HY9Pump6dVqVR0/vz5TccNw9C2bdt08eJFua67aWzbtm1KJpM6ceLEpuPhcFg7d+5UPp/X0tLSprGenh719fVpdnZWtVpt09jU1JRarZbOnj276XgqldLY2JgWFha0vr6+aWx4eFiZTEZffvnlpuPBYFAzMzNaX1/XwsLCpjHLsjQwMKBz586pXC5vGtu+fbsCgYBmZ2c3HY/H49q+fbuWlpaUz+c3jQ0ODiqXy13V3mYyGQ0PD19xb8fGxhSNRnXq1KlNx6PRqKamprSysqKVlZVNY319ferp6dGpU6f+a2937typWq2mubm5Tce/a29TqdSmkJL0//bWcRxdunRp09jG3p45c0bVanXT2DftbTKZ1Pj4uBYXF7W2trZpbGNvjx8/rq//LzwQCGjXrl1X3NtcLqfBwcEr7u3ExISCweBV7e3AwIAsy7ri3s7MzKhYLF713sZiMZ08eXLT8Y29XV1d1fLy8qaxjb09ffq06vX6prHv2tv5+XkVCoVNY9+0t6FQSNPT09dlb4eGhpTNZq/p3oZCIZ0+fXrT8Y29XV5e1urq6qax79rbUqmkCxcubDq+sbcXLlyQ53mbxm7UvbVtW/39/eztD9jbSCSiHTt2XHFve3t71dvbe1V7m06nNTo6esW9HRkZUTqdvmZ7Ozk5qU6nozNnzmw6/mP2tlAoaH5+ftPPbOzt3NycSqXSprFv2ttYLKbJyclv3duTJ0+q2WxuGvumvTVNUyMjI1fc29HRUcXj8Wu2tzt27FCj0dC5c+c2Hf+uvTUMQ8ePH990fGNv19bWtLi4uGlsY2/Pnj2rSqWyaeyb9jaRSGhiYkKXLl2S4zibxjb29quvvlK73d40tnv37ivu7cY16pX2duMa9Wr2tr+/X7ZtX3Fvv+ka9bv2NpFI/Nc16sbeXukadWNvr3SN+l17e6Vr1G/a241r1Cvt7cY16rXa241r1G/aW9d1v/H+45v2NhKJ/Nc16sbeXukadWNvr3SN+l17e6Vr1Ou1t992/zEyMiLTNL/x/uOH7K2k/7pG/aF7+133ljfa3v7Qe8sfsrffdW95tXv7TfeWG3v7bfeWP2Rvv+m5wZX29ofeW94Izw2+7d7y/9/bb7tGvdbPDb7tGvWHPjf4tvuPa/3c4Fa6t7zWzw1ulXvLG2Fvt+q95bXe22+7/7jWzw0mJyfVbrev6d5+273ltd7ba3Vvea2fG+zYsUP1ev2qnxv80HvLH/Lc4HrcW/6Q5wbfdW9ZLpevuLeDg4NaWFjQ6uqq1tfXVavVVKvV1Gg0/Ov/M2fOyPM8BQIBxWIx9fT0aHR0VJ7nqVKpKBaLKRwO/6jnBouLi3JdV/F4XJZlyTAMAdg6eGUfwHV16dIlzc7OamVlRf+XvfsOk6Qs9z7+69yTw04OG2bzAptZQEkKYkRBxSxJJYMgR+VgQj3qK6goSkYwew6SBVERSYrAJjaH2RxmdnLq3F1V7x+z02xPz+zuxJqZ/X645qKra+upu+vumunnqbufCofDWrh4iabWzNDateuUSKR26qfUzFRjc6vWrFmT8nz15CkqKCpV7bZtauw1+LJz1y4FA4G0zo7L5dLMWXMUCHRp3949Wrt2bXJdYVGJDLm0fsMGRXoNhFVWT1V7e0daDOUVFSoqrdD2HTtVtz914CMjK0eTnJ60bXw+n6qnTlfdgUatX5u6btbsucrJn6RNmzarqyt1EKqkvFLRaDStvaLiYpWUV2nX7j3avSu18+L2+uXNyE7bxul0akrNTB1obEpbN61mhvIKi7Vly1a1tqYOEhQUlcjldKVtk5efr/KqKdqzd5+21aZ2HORwyZ+V209uZ6ixua3P3BYWl6l223Y1NqR24nLyCpSVnZO2TVZWtionT9O+/fXavGlDyrp5x52grNwCbdiwUeFwaqeronqqOvrIbVl5d2537Nyl/ftSP2T7M3MklzdtG6/3YG7rG7SuV25nzp6TzG1nZ2qHp6SsUrFYem4nFRWrtKJau3bv0a6dqZ0Xt9cnb0a23nzzzZTnHQ6npk6fpQONzX3kdrryJ5Voy9atau01AFQwqUQudx+5zevJ7X5tq00dALUcTmVk52ndunVpg3GTp81QU0t6bquqJ6uwuEzbtm9XQ68OenZegXL6yG1mVlYyt5s2rk9Z91ZuN6R1qCuqpqijs6/clh88b3dp/77UgWB/ZnafufV4vZo8bYbqDjRqXa91M2f1n9vi0grFE/E+clvUb25dHp98md3HoffAwtTps9TQlJ7bqdO6c7t1a61aWlI7kgWTiuV2p/8uys3LS563tVt75VY9uV2veDy14zd52vQ+z9ue3NZu266GA6kd9OzcfOXk5qXnNvNgbuvqtWlDam7nzjs+ed6GQqkd6vKqyerq7Eprr7SsPHne7tubmltfRpZK3b703Hq6c1t/oFFre62bMWu2cguKtHnzFnV0pF5wKS6tUKKP3BZOOpjbPXu1a0fqIKzL4+0zt1JPblv6yG1Nd25ra9XSa5Agv7BYHm8fuc3NS563tVtTB8lMOZSRnaf169endeqrp07v87ytrKpOnrcHeg2+ZOXmKy8vPbcZmZmqmlKj/XUHtHHDupR1c+Ydp+y8Qm3YuFGhXoMl5ZWT1RVIz21JaZmKyyq1Y+du7dubOqDky8iS0+PvI7ee7tw2NKXndmb/uS0qKZdhGn3kdpJKK6q1e89e7eyVW6e7O7dr165NGzTq77ydMrUmed42N6de7MgvLJLXm/5+zcnNVUX1VO3Zt1+1W3rl1urO7br16xXrdeGpemqNmlra09qrqKzWpJJybdu+QwfqUwejs3LylJfvTM9tRkZ3busPaOP6Xrmd253bjRs3KRhMvehTVlmtYCDYb2537tqtvXtSc+v1Z8rlzUjbxu32JM/b3uumz5yVzG17e+rAbX+5LSicpLLKydq1Z692bk8dqHO6PQfP27UyzdTPldNmzO7zvJ0ydZoKikq1tXabmptSB03zCork8/eR25zu3O7dX6etm1MHQI+fv0CZOflav3592kXFqik1aunjvK2orNKkknJt37FD9b0uNGRm56mgMD23/oO53Vd3QBvXr01ZN3vuvOR5G+x1Qa+solqhUHpui0tKk+ft3j2pg4Vef4bcvr5y69aUmpmqb0j/jDp9xkzlFRZr85Ytau81KD+ppEyWZaXntqBQZZWTtXvPPu3Ynnox2eHyHPyMujatz9Df7+TJU7pzW1u7TU29cptbMEkZ/vTXlJ2T053bfXXasjn1Qu5xJ3Tndt369Yr2GsCunDxNba19nbeVyfO2vi51MDozO1cFhemf5/x+f/K83bCuV27ndOd246ZNCvS6MFBaUaVwKNxHbktUUl6lnbt2a8/u1Nx6fBly+zLTtnG5XP32P2oO5nbLlq1qa0sdlC8sLpVDjrRt8gsKVFY5WXv27tP2bb1y63Qn+x+GkTqIPnX6TDU295XbqQf7ltvV1Jjat8zNL1RGZlZ6brNzkuftlk29cnv8/IPn7QZFIr36lpOnqa21r75l5cHztq++Za4mFbn76Fv6k/2P9et69S3nHK5vWaVoJD23RcUl/fYtPb7++pY9uU3/W1cz/WDfcutWtfW64FJYVCqHs4/c5nfndvfefdreu2/p7O5brlu3Lu0CyWDGDXLyCpWVnZ7brOzD9C2Pf6v/0buApr9xg56+5fYdu1S3P7Vv2d+4gfdoxg02b1ZXr+KVkrJKRfvoWxYVFR88b/do967efcv+xw3671sO77iB5XD127fsb9ygqvrw4wbZh+tb1tVr88Z+xg02blS4d9+yeko/4wblyTGh9HGDvvuW3mTfsiG9b3mYcYPisgrFY331LfsfN+jpW7755hpJh/Yt+8/t1OS4Qa1a0/qWRxg32Ldf23r3LR2H61vO6PO8PXzfskA5uQMbN5h73PH9jhuUV01RVx/jBj19y77GDXwZ2Sp1D3TcYHbyvO3sOMpxg56+5e692rWzd9/ySOMGffUt+x83yJ9ULM9hxw366ls6k/2PeCx93KDvvmX/uc3KzVden+MGmUceN+irb9nvuEFP33Ig4wY9fcuBjRsUlZbLSPTVt+x/3KCnb7lmzVpZ1qF9y8ONCfWMG2xTS1rfslheb/r7NTlucLi+5br1isV69y37Hzfov2+Zr7z8PsYNMgY3blBWOVnBAY4beP1ZcnkPM27QR99yRk/fcssWdbQf5bhB4aTkebtzR399yzVp4wZH7lvWqrlXkWReYZF8fY0b9PQt99Vp65befcuFyf5H73GDqik1aumz/9F/bt926unKzc3TX//y5+RzlmUpGo1q//798mdkpv3Nz8jI1JSp07R37+70vmVltYLBvsYNuvuW23fsTBk38Hg8etvb3qaKigqZpimn0ykA9mFmEwCjZvPmzVq9erUkh/Ly85WXX9Dd2SgqVmdHu3r/NsrLz1c8Hk/7YOn1etXV1altWzYpFo1o0YmnqG7fHu3YtkVuj0d5+QXKyMjUpKIS5eTmSZJcLqeyc3IVjUTSKpL9GX75fH51dXamfeDLzcuTkUikVRB7PB5lZmUpFAoqHksdEMnMypLb7U7rRDqdDuXk5ikajaYVtfj8fvn9fgW6utIGvXNyc2WZZto3dtwet7KyshUOhdIuHGZmZsrj9aYdV4dDys3LVywWSxtE8fl88mdkKBgIpA3gZR+sFu49EO1yu5SdnaNIOJx2ESQjM0Ner0+dHR3q/acmNy9PiUSiz9xmZGYqFAwoHk+NISs7W06nM21QzelyKmewuTWMtA+3Q8ltLBpNG3j0+X3y+zMGllu3W1nZ2QqHQ4pFx2BuMzLk9iwt2gAAIABJREFU9fnU1dkh0xxoboNpg4hDym1Xp0wjNbc5ubkyTdP+3FpW2nEdSm7jsVjaAJnX51VGRubAcutyKTsnR5FIWNGIzbmNRhQJ98qt3y+ff3C57fP34VByG+iSkUjNbX/HdbRz63A40o7rcOfW4/UoMzOr39y6XK4+jqtTObnDmVu3Mvv7W3ek3MaiCod65fbg78PB5Lbvv3WZ3fcuHkxugwElev2ty87OlqOPc+ZYzK3H40kb2HM4HMrNG87cupTV7+eYQeT24O/DweU2klZ04M/IkG84c5uVJVef50z/uX3rM2qnjOHI7cHfh4PJbTDQpcSw5jb9M2pe/nDmtrv/MZjcHrb/MajcHq7/cfS5PZr+R/+5Pdxn1OHKbf/9jyPldiD9j6PL7SD6lgPK7ej3LdNzezT9j6PP7WD7locbNxhsbifkuMFY7VsezO3g+h/H0LjBMPct+8rtoPqWPbkdC31Lxg3Gdd+ScYMh9i3HcG7HQt9yXI4bjOO+ZVZ2tmKxqLo6OtXYWK9wKKRwKKhIOKTCScWaPe94bVi3Rs2NBySHQ35/hnJz81Qzc7ZcLrc6O9qVkZklr9ebzG0oGFQ0GlE4FFR7e5s62lo1f+FSeb0uvfzC85o+fbrmzJkjr9crAKOPYhMAI6q9vV0rV67UoqXLZJjSzu3bNGXadGVkZg6p3bp9e7V29Qrl5edr2dtOl5FIKJ6IKysre5giBwAAAAAAAAAAwFD1zELS2FCvtpYWBQJdCh78OfnUM+X3Z+iff39GkuT2eJSdnaOCwkmad8JChYIBWZalrOy3bqHT0tyktatXKBQMyO/366STTlJFRYVdLw84ZlFsAmDEbNq0SWvXrpVlWZq/6ERVTZ4ybG2bpimHwyGHwzFsbQIAAAAAAAAAAGB09Fymjsfj2r93twJd3QUogUCXsrOzdfKpZ2r9mlWKhMNaevLb07bdv3ePNq5brXg8rtNOO01VVVV2vAzgmEWxCYARsWbNGm3cuFHZOblauGSZ8vIL7A4JAAAAAAAAAAAA40DPbCjNTY2SZamopLTPfxeJhLWjdovmL1gohxmX1+uVy+Ua5WiBYxPFJgCGXTwe19/+/ne5PV4tO+U0ud1uu0MCAAAAAAAAAADABBWLRfXqS88rNzdXp512GgUnwCig2ATAsGppaVF2bp46gxG5XG4KTQAAAAAAAAAAADCiLMvShrWrtXvndk2bNk0nn3yy3SEBE57T7gAATByBQEDPP/+8Xn31Vfl8fgpNAAAAAAAAAAAAMOIcDoeOm79IpWUV2rlzp/bv3293SMCER7EJgGFhWZZee+01GYahaTUz7Q4HAAAAAAAAAAAAxxCHw6ETFi6Rx+vVmjVrxA0+gJHFtAMAhsW+ffvU1NSkqdNnqrCo2O5wAAAAAAAAAAAAcIzx+f1auuxtys/LlcPhsDscYEJjZhMAw2Lr1q1yOp2aOWuu3aEAAAAAAAAAAADgGFVYVKxgJKoVK1YokUjYHQ4wYTGzCYBhsWjREh1oapbX57M7FAAAAAAAAAAAABzDWpubVFtbq4KCAk2fPt3ucIAJiZlNAAxZe3u7LJdLVZOn2h0KAAAAAAAAAAAAjnGV1VPkdru1c+dOu0MBJiyKTQAM2YoVK/TCc3+3OwwAAAAAAAAAAABAbrdbBYVFam1tlWmadocDTEgUmwAYEsuy1NbWprz8ArtDAQAAAAAAAAAAACRJefkFMgxDnZ2ddocCTEhuuwMAML51dnYqkUhQbAIAAAAAAAAAAIAxo7J6soqKJikrK8vuUIAJiWITAEMSDoclSZn8oQYAAAAAAAAAAMAYkZWdo+ysTDkcDrtDASYkbqMDYEh67nPndPLrBAAAAAAAAAAAAGNDKBjQM089ro0bN9odCjAhcXUYwJBYliVJVIUCAAAAAAAAAABg7Dh47arnWhaA4UWxCQAAAAAAAAAAAAAAAI4axSYAAAAAAAAAAAAAAAA4am67AwAwvhUVFenUM86UPyPH7lAAAAAAAAAAAAAASZLD4ZDP55fH47E7FGBCcljcpArAEBiGoUA4KlMuuVwuu8MBAAAAAAAAAAAAJElul0OZXq5fASOBmU0ADMmBAwf08ssva+GSZaqsnmJ3OAAAAAAAAAAAYIIJBALasnmTAoGAYtGoXG63MjMzNHVqjcrKy+0OD2NUPB7Xru07VV5arOLiYrvDASYcik0AAAAAAAAAAAAAjBkNBw7oySce08oVy7V61Upt3bJZ/d2sobSsTIuXLNWixUt0zrvfq0WLl4xytBirYrGoNqxbI8uYR7EJMAIoNgEAAAAAAAAAAACGUUtzszo6OxSNRORyueTPyFBpaZl8Pp/doY1pr7/2qu67+y498fijSiQSR7VNw4EDevaZp/XsM0/r+9/9tpacuEyXX3GVzv/IBfJ6vSMcMQAcuyg2AQAAAAAAAAAAAAYpkUjopRdf0Irlr2v1qpVatXKFGg4cSPt3brdbxx1/ghYtXqJFi5fojHe8U9Om1dgQ8dizetVKfemL12jVyhVDbmvl8jd02fI3dPNNX9bXv/ltXfK5LwxDhACA3hxWf3NOAcBROHDggF5//XXNPWGhysor7Q4HAAAAAAAAAIBR0dTYqIcevF8PPnCf6uvqBtXG2ee8W5dfcbXe9e73yOFwDHOEY188HtetP/iefnzb/5NhGCnrnE6nTnnbqd23yFnSXaDzs5/8SL968AFd8LFP6Hv/7zatX79Oq1et0KqVK/TvV15We3t72j7OOvtd+vld96myqmq0XhbGiGAwoBefe1bz5s3TggUL7A4HmHAoNgEwZNGEqWjctDsMAAAAAAAAAABGXEtzs77xtZv08P/+QfF4fFjarKmZrv/+xrf0sY9/cljaGw+21W7VxZ/9lNatXZPy/KSiIl18yed16RcuU1VVdcq6L3/pi7rvnrv0iU99Rvc+8FDKunA4rD/93x913z13pbWZl5en239+lz7y0Y+NzIvBmBSLxbR7x1ZVlpeprKzM7nCACYfb6AAYkq6uLu3YtVtFJeXKyc2zOxwAAAAAAAAAAEbMU088rhu+eLWam5rS1lVUVnbPwrF4iRYtXqqKigr5/H6ZhqFAIKDNmzZq1coVWrVypda8uUqxWCy57Y4d2/WFSy7Uk48/qp/ecZeKS0pG82WNuq1bNuv97zlbjQ0Nyed8Pp++9s1bdMVV18rn8w24zYyMDF148aW68OJL9cI/n9cXr75Cu3fvkiR1dHTo0gs/rVAwqM9edMmwvQ6MbV6vV3OPO0GZXpfdoQATEsUmAIaks7NTG9ev08IlGRSbAAAAAAAAAAAmpM7OTn3puqv1p4f/N+V5p9Op933gXF1+5TU6/YwzD9vGwkWL9YlPfUaS1NbWpt/++kE9cO89yYIISXr6qSf16r//pTt+cY/O/dB5w/9CxoC+Ck0WL1mqe+5/ULPnzB2WfbzjnWfp1eWr9Y2bv6oHH7gv+fw1V14mSRScHCPCoZCW/+cVzZw5Q7Nnz7Y7HGDCcdodAAAAAAAAAAAAADBWdXZ26vwPvi+t0ORjH/+k1m3ept//7yNHLDTpraCgQNddf6Pe3LBFv/3DwyqvqEiua21p0Wc+eYF+++uHDtPC+LRr1860QpPPXnSJ/vHiv4at0KRHdna2br/jTv3m9/8nt/ut799fc+Vl+r8//n5Y94WxybRMdXV1KhKJ2B0KMCFRbAIAAAAAAAAAAAD0oafQZMUbryefKyou1u/++Cfd/9BvVFVVPaT2nU6nPnje+XptxZrkrCc9rrnysglVcGKapi7/3CUphSYXXnypfn7XvXK5Ru42Jx86/8P61W//mFJwcv21V2nXrp0jtk8AOBZQbAIAAAAAAAAAAAD0EgqF0gpNlpy4TK+vWDPst7jJz8/XvQ88pF/++ndps3D88fe/HdZ92eXuX9yh1/7z7+Typz97ke648x45HI4R3/e5HzpPv/rtH5P7CoVCuuqyz8uyrBHfNwBMVBSbABiS3NxczTvueOXm5dsdCgAAAAAAAAAAw+abX7sprdDkiT8/q6Li4hHb50cv+Lge+s0f0mbh2Fa7dcT2ORpqt27Rd275RnJ51uw5+snPfjEqhSY9zv3Qebrqmi8ml//9r5d1z50/H7X9A8BEQ7EJgCHJycnRnHnHKSc3z+5QAAAAAAAAAAAYFi+9+ILuv/fu5PKSpSfqiT8/q9zc3BHf9wfPO18P/eYPcjq7L+NFIhFd/oVLZRjGiO97pNzyza8pEolI6r510D33Pyi/3z/qcXzz29/VzFmzk8v/851vqaura9TjwOjIyMjU2e95n+bOnWt3KMCERLEJgCFpaGjQX//ytBrq6+wOBQBGndft4Gec/QAAAAAAABxJV1eXrr7888nl3Nxc/eYP/zcqhSY9Pnje+brhxq8kl1e88bru+OmPR23/w2nv3j36y9N/Ti5fd/2NWrL0RFti8fv9uvveB5LLgUBAf/jdb2yJBSPPsixFI1ElEgm7QwEmJIpNAAxJIpFQKBhUIhG3OxQAAAAAAAAAAIbs9h/dqr179ySXf3Drj1VVVT3qcdz0tW/ouONPSC5//7vfVlNj46jHMVS/vO9emaYpSfJ6vbr2izfYGs+JJ52s004/I7l8/713y7IsGyPCSIlEwnrlxedVW1trdyjAhESxCQAAAAAAAAAAACApGo3qoQfvTy6ffc679ZkLL7YlFq/Xq3vufzB5O51YLJYS23gQiUT061/9Mrl8/kcuUFFxsY0Rdbv8ymuSj2u3btEL/3zexmgAYHyi2AQAAAAAAAAAAACQ9Oif/k+tLS3J5f+++Rs2RiPNX7BQ7/vAucnlh355/7i6Jchr/3k15XhedsVVNkbzlvd94NyU2Wr+8vRTNkYDAOMTxSYAAAAAAAAAAACYcKLR6IC3ue+eu5KPFy9ZqqXLThrOkAblsiuuTj6u279fTz/15KjH0NXVpVAoNODtVq9akXxcUlqqpScuG86wBs3lcumc97w3ubxq1UobowGA8YliEwBDUlZWpvd+4IMqq6iyOxQAAAAAAAAAAJLOPvNU/ejWH6irq+uo/v3u3bu0+pCigy9cfuVIhTYgZ5z5Ds2eMze5/MRjj4x6DFs2b9L8eTN15x0/VTgcPurtDj2eCxctHonQBm3R4iXJx+vXrlE8HrcxGowEl8ulouJi5eTk2B0KMCFRbAJgSBKJhAJdXUok+BAGAAAAAAAAABg7Wpqb9d1bvqkT5s44qqKTVSvfmoXD4XDo3A+dP9IhHrXzzv9I8vGhcY4ay1JTY6NuvunLmj9vpu658+eKRCJH3GzVirdiXbxk6UhGOGCHxhONRrVxw3obo8FI8Psz9PbT36Gamhq7QwEmJIpNAAxJc3OzXnnpBTU3NtgdCgAAAAAAAAAAadpaW4+q6GT1yrdm4Zg5a/aQZ0Noa2vTxg3r1dbWNqR2pNRZOHbv3qXWlpYhtzkQlmUlHzc2NOirX/6SFhw3S/fefWe/RSexWEx79+5JLs+fv3DE4xyIufOOk8fjSS5v21ZrYzQYCdFoVKtXLte+ffvsDgWYkBzWoX8dAGCA9u/fr5dfflkLlyxTZfUUu8MBgFHldTvsDgEDFEvw0RcAAAAAgGPFvJnTtH9/+kXmgsJCXXPd9br8ymtSCko+8J6z9crLL0mSPv7JT+u+X/5qUPu1LEs3XHe1Hvrl/cnnLrrkc/rZL+6WwzG48aQD9fWaPX1ycvnRJ5/R2e86Z1BtDcbrr72qc955Rp/ryisqdOOXb9KFF18qn8+XfL69vV1TKoqTy3PmzlNOTu6Q4ti9a6caGxs0aVKRaqbPGFJbkrRq5XIZhiFJmjatRkXFJUNuczh86jOf1aWfv8zuMMa9YDCgF597VvPmzdOCBQvsDgeYcNx2BwAAAAAAAAAAAACMlp6ZTn5xx09Tik62bNmc/DeLFi0eVNt9FZpI0q8f+qUkDbrgpKy8XKVlZWo4cECStGXTxlEtNjncd9fr6+r0Xzdcp9t/dKtu/MpN+uxFl8jr9Soei6X8u82bNg5bPC0tzWppaR629iRp584d2rlzx7C2OVinn3Gm3SEAwBFRbAIAADDOWJZkmlLcMGUYlgzTUjxhKhhOyDAsTcr3Kcvvkst1+IGLiy/8TPKbG8cK07Q7AgAAAAAAMFr6mtXkUL2LTgKH3F6nsKhoUPvctWtnWqFJj18/9Etdf+OXVVMzfVBtJ+KJ5OP/+c4tuv0nt8nhcKT/qI/nDvnRYdb197N2zZtHjG///n360hev0U9u+6H+66v/rQ988LyU9ZddcdWgX3uPJ594TP959d9avHiJPvaJTw2pLUn69re+rnA4LEn66Mc+oaVLTxxym0Nx01dutHX/ADAQFJsAGBK/36/SsnL5/Rl2hwIAE5JlSdGYqXA0obhhKRhOKBQ1FTdMBUIJhSIJRaKWusIJGaYlh0PKy/JozpRsTSnNlM/r7LftPz38sEyqLwAAAAAAwDGup+jk0BlHfF7fYbbo3/59e4+wft+gCy4OjS8UCioUCg6qnZG2b99e3Xj9tWpqbEx5/vQz3qFzP3ReP1sdnR07tus/r/5bs+bM1ZXXXDektuLxuL5+81eTy+8/94P68EcuGFKbQ/XKKy/pmT8/ZWsMAHC0KDYBMCSTJk3S2087XdE4FysBYMDMg1OURCJSPKZYJK5wR1DxphZFHG61ZhSow52tWNxUJGbKMLtnL4kfZjISy5LaA3G9Wduplo6YZlRmqbjg8IMjJ598ipaddNIwv7ixyeDPFQAAAAAAx4w7f/7To/p302fM1FduulnXX3tVcpaLWDx2hK36VlpadoT1pYNqV5Ly8vPV3NwkSbrg45/URz76MVmW1f+P+l+nw23Xx8+/Xn5Jjz7y8BFjdLvd+uxFl+hLX/6qJk+eoj/87jfJW9OseXP1kItNhtOG9euUSLw1W8zs2XNsjAYjwefza/GJJ6lkUoHdoQATEsUmAIakra1NGzZuUvXU6SoonGR3OAAwdhmmrEBAjmBACoelYECOzk61t3YpUd8od2enPNGQ8sIdclmW4k63fDnF2j/1FLVkl8h0uQa0u0jM0Lb9QdU3RzRnao6mV2bJ5+l7lpP/d9ttOumkk4fjVY55sUT/9xcGAAAAAAATyxOPPXLYW+n0FJlc8PFPyuVy6eabvpwsNuns6BjUPqfVTNc73nmWXvjn82nr3vHOs1Qzfcag2pWkWDSafDx/wQK99/0fGHRbAzVz1uzDFpt4PB5ddMnndP2NX1Z19eTk84sWL0kWm6xauXzE4xyIVStXJB9nZGRoztx5NkaDkeB2u1U9eYoyvQMbWwVwdCg2ATAkoVBIe/fs1qTiUopNAOAgKxSW2trk6OyQOjvkqK+XI5GQAgEpGHyr2CQaVWE/bXjMhMo66nXKtpe1o3iGdpTMUsifM7A4LCkQMbR6a7vqmsI6YXqeJuV65XY7jrwxAAAAAADABNW7yKRHTc0MtTQ3S5LWrV0zqLbdbrf+95En9ImPnpdScPKOd56lP/7pcbndg7s019bWpr1797z1GqbPHFQ7g2VZfX+Bx+v16uJLP6/rv/RlVVZVpa1fvHSpHnv0T5KkVatWjmiMA/Xm6lXJx/MXLEp5L2BiCAUDeuG5Z3Xcccdp/vz5docDTDgUmwAAAAyHzVvk2LhejrZWqatLisXlMBKy4nEpEtFgyzsKg83KiXRoSssOvT79NDXnlEqOgbVmmFJdS1RtXc2aPTlbMyqzlZlB5xkAAAAAABxb+isy6bF4yRItf+M1SamzXgyU3+/Xw489pTdXr1Td/jpVVFZowcLF8vkOf6vjw1ndq1Bj0eIlg25rMEwz9d7EPp9Pl3z+Ml1/w3+pvKKi3+0WL1mafNzW2qp//+tlvf3U00cszqMVj8f17F+eTi4vWjK6xxOjo6dEqr9iKQBDQ7EJAADAMHDu3SPHivSpQIc6h4hDkteIq6SrUWdt+Iu2lB+nbaVzFfRny3L0fVuc/oRjptbv7FJjW0zVpRlDjAwAAAAAAGB8OFKRSY9DCyM2blivaDQ66AIRr9erZSedMqht+7J61VvFL6VlZaqorBy2to9Gz8V6v9+vz33hCl13/ZdUVl5+xO2WnXSKSsvK1HDggCTp3rvvHBPFJo8/9ogaGxqSyx8673wbowGA8WlgVygAAABgm8x4WPP3rtRpW/6h6uYd8sSjR96ol4Rhqa4lrBWb25PPWeZhNgAAAAAAABinZs6apXsfeEjLV6/TJz71mSPeJuXQ2UISiYSef+7vIx3iUfvbs88mH4/2rCaSlJHh17Vf/JLWbdqm7//wtqMqNJEkj8ejSz73heTy0089qbr9+0cqzKN23913JR8ff8J8ve3tp9kYDQCMTxSbABiSwsJCnXTK21U4qdjuUADgmOCyLJV11mvZjle1ZNdrKupsOPJGaRwyTCs5jeSuAyGFIsZwhgkAAAAAAGC7J5/521EVmfSYNXuOaqbPSC7fd8+dIxXagKx5c7Vef+3V5PJ73/eBUY/h5FPerv/5wQ9VUlo64G0v/dxlcru7b7ZgGIZ+8qMfDnd4A/LSiy8kb5ckSZddcZWN0WAkOeSQ0+mU08klcWAkcGYBGBK/36/yinL5M7gdAwCMppxol2Yd2KjTNz+n2XXr5TISg25ry54urdrarsbWyDBGCAAAAAAAML44HA594bIrkssv/PN51W7dYmNE3e67561ZOPLz8/WxT3zKxmgGrrSsTOed/5Hk8v333q1XXn7Jlli6urp09eWfTy4XFBSMu+OJo5eZlaVzz/+oTjjhBLtDASYkik0ADEldXZ2eePQR1e3bY3coAHDMcVmm8iIdWrrzVZ2x+e8q7GqScxBFJ5bl0M76kF7d0KrVtR0KhJjlBAAAAAAAHJs+feHFyszMTC7f/uPbbIxG2rt3jx55+H+Ty5/+bGp848W3vvs9ZWdnJ5evvvzzCgQCox7H1276svbufet6xne//0Nl8GXaCSsRj2v3rp1qbW21OxRgQqLYBAAAYJzzGnFNadmpd258VnPqN8gfCw+4DcuSOgIJrd/eqZfXNGlXfUjRuDkC0QIAAAAAAIxdeXl5+sSnPpNc/v1vf61/PPd3W2KxLEtXX/55RSLds9E6HA59/vIrjrDV2DR58hR9/4c/Si7v3r1LV3zhEiUSg5+td6B+95tf6dcP/TK5fM573qvPXnTJqO0foy8ai+rNlcu1d+9eu0MBJiSKTQAAACaInGiXFu5ZrpO2vayahoFP8epwOGRJau6I69X1LVq+qU1N7TGZ1JwAAAAAAIBjyFdu+pry8/OTy9dedZk6OjpGPY4H7rtHL734QnL5siuuUk3N9FGPY7hcdMnndPa7zkku//nJJ3TpRZ8elYKT3/3mV7rmysuSy/n5+brjF/eM+H4BYCKj2AQAAGAC8SWimtq8XSdtf0WLd74mXyzcPW3JACUMaUddUK9vaNG2/QHFmOUEAAAAAAAcI8orKnTrj3+aXK7bv19XXnbpqM7CsXLFcn3zazcll2umz9At3/3+qO1/pPzi7vs1ZcrU5PKTjz+mSy78lMLhgc/Ue7Qe+uX9uubKy2QdHCNzuVy6+74HVV5RMWL7BIBjAcUmAIbE6XTK4/HI6XTZHQoA4CCnLPkTUR2/b7XO2vCMpjXWyhuPDKIlh1q74lq1tUMvvdmsjkB82GMFAAAAAAAYiz7+yU/r/ed+MLn8zJ+f0ucu/syoFJysXLFc55/7XoVCIUnds9Hec/8vlZmZOeL7HmnlFRV65u/PpxScPPXE4zr15KVa/vprw7qvluZmXfjpj+v6a69KKTT51W//qPd94Nxh3RcAHIsoNgEwJOXl5Tr3vA+rvLLK7lAAAL24LFOlXQ16e+0LWrBnhXJDbYNoxaFY3FRdc0R/fb1BG3d3qSuUkDnwyVIAAAAAAADGlZ/9/O6UoognHntUn7v4M4rHR+4LOSuWv6Hzz31vym17vnrz13XSyW8bsX2OturqyWkFJ9tqt+qcs87Qt75+s9rb24fUvmmaevSRh7VsyXw9+fhjyed7Ck0+eN75Q2of44fH7dG0mhkqKiqyOxRgQqLYBMCQBINB7di+TcFAl92hAAD64TETmlW/UafUvqR5+96UPxYacBsOh0PRuKVVm9v10pvN2nMgpIRBxQkAAAAAAJi4iktK9PTf/pFWcHLmqSdr3do1w7ovwzD0o1t/oPecfWZKockNN35F//21bw7rvsaC6urJeva5F3TqaacnnzNNUz/9yW2aO2OKvnjNldqwft2A2mxtadHtP75VC+bN0qUXflrNTU3JdaVlZXr4sacoNDnGeH0+zV+0WJWVlXaHAkxIbrsDADC+tbe3681VK7VwyTJlZefYHQ4AoB9eM67yjv0q7mpUUVej3pxy4qDaMS2ptTOuFZvb1NIZ17SKDBXmeIc5WgAAAAAAgLFh8uQpevpv/9AH3n22du/eJUlav26tzjz1ZH315q/rizf8l3w+35D2sWnjBl19xRe0csXylOdvuPEruuW73xtS22NZZVWVnv7rP3TvXb/Qt75xsyKR7ttAh0Ih/erBB/SrBx/QnLnztHjJUi1avESLFy9RZ2dn978JBrVp4watW7dWq1et1KoVK7R61QpFo9G0/VzwsU/o1p/8TIWFhaP6+mC/SDis1Sv+o+k1NZoxY4bd4QATDsUmAAAAxwiHJI8Z1/SmWpV0HpDDkrrnJhn4DCXBiKFNuzq0pzGkE2pyNbU0U263Y5gjBgAAAAAAsN/kyVP0zN+f10Wf/kSyICSRSOh737lFd9/5c1108ef0ucsuV3X15KNu0zRN/e3Zv+i+e+7UP5//R8o6t9utr3/r27rhxq8M6+sYixwOh664+lq9693v0VduvF7/eO7vKes3b9qozZs26g+/+03K8089+bieevLxw7ZdM32GbvnO9/Sh8z887HFjfDBMQ61u/rGSAAAgAElEQVQtLSorLbU7FGBCotgEAADgGJQT7VJPkUlRZ8OAt3c4HDItqSuY0Bsb27S/MawTanKVm+Wh6AQAAAAAAEw41dWT9dwLr+inP7lNP/if7ygej0t669YtP7v9Rzr1tNO1ZOmy7lk4li5VeXmF3O7uS3GhUEgbN6zXqpUrtHrVSv3r5Ze0Z8/utP0cf8J83XP/gzph/oJRfX12mz5jph598hnVbt2i+++9W3/43W/U1dU14HYcDofe9e736LIrrtbZ7zpHDgfjVAAwUig2AQAAOMYVb35Fc0qLtKX8OEW8mQPePmFY2t0QVktnXLOqszS5NFM5mW7RlwcAAAAAABOJy+XSjV++Se957/t13TVXasUbryfXmaapl196US+/9GLaNoZhHLHtjIwMXXPdDfrqzV+Xx+MZ9tjHi5mzZuvWH/9U37jlu/rbX/9y8PY4K7XmzVUKBoNp/97pdKbcauesd52jadNqbIgcAI49FJsAGJLs7GzNmDVb2Tm5docCABgkI9iu+XtXqrx9n9ZXLVR9XqUMt3fA7QTCCa3d3qn6loimlWdpRlXWCEQLAAAAAABgr+OOP0HPv/gvLX/9Nd13z116/LFHkjOd9HakQpNp02r0+cuv0GcuvET5+fkjEe64lJOTo49e8HF99IKPS+ou5tm9e5e+e8s39OifHtYln/+Crrr6OlVVT1Zm5sC/PAUAGDqKTQAMSV5enuYvWKho3LQ7FADAAC0rL1fCNHVCcbHcpqHyjjoVBpq1r3CK1lYvUUdWgSyHc0BtJgxL9S1RNXXEVN8S0cKZucrye+QcWDMAAAAAAABj3oknnawTTzpZ3/t/t+mxRx7WiuVvaNWqldq+rbbfbbKysrRg4WItWrxE73jnWTrrXefIycDJETmdTvl9fv35ySckSY8/8id9+7s/oNAEh5WRkakzznqXCnL4UhwwEig2ATAkTU1NWrFypWbOOV4lpWV2hwMAGICXP/WptOd8Rkw1TbXKD7VpXdVC7S+copjHP+C2EwlLuw6E1BGIaWZ1jiaXZCjD7xqOsAEAAAAAAMaUktJSXXH1tcnljo4ObVi/Vn/7y1/009t/pDPfcZauvf5Lqqqq0qzZcyguGaSf/OiHisVikqT29nbdfecduunmb9gcFcY6l8vFOQeMEIpNAAxJLBZTe1ub4rGo3aFgBHndDrtDwAQXS1h2h4BDOCQVBFt04o5XNblll9ZOXqK27KIBt2NZUmtXQss3tam1I6ZZk7M1KW/gt+cBAAAAAAAYT/Ly8nTyKW/XDdddI0n61ysv6Wd33q2pU6fZHNn4VV9Xp189+EDKc3f/4g5defV1ysvLsykqjHXhcEgvPvdXzZs3TwsWLLA7HGDCoYwLAAAAaZyylBUPaWrzdr1j47Oa2lgrdyLWXUEyQKYlba8P6j/rW7Vqa7sCocQIRAwAAAAAADB2PP7YI9q8aaMkKZFI6Ec//IHNEY1vh85q0qNndhMAgD0oNgEAAEC/nLKUF+nUaVue17vWP63qlp1yGgMvFjFNqaUzpg07uvTvdS2qa44oFmdGGwAAAAAAMPGYpqlbf/C9lOf++PvfateunTZFNL71NatJj7t/cYc6OjpGOSIAgESxCQAAAI6C2zJU1lmvt9W+pLn165QTah9wGw6HQ5akhraY/rW2Ratr29XaFZNJzQkAAAAAAJhADp3VpAezmwze7T++NW1Wkx7MbgIA9qHYBMCQlJSU6Ox3v1clZRV2hwIAGAWZ8ZAW7F6ht9W+qKlN2+Q0jEG1E4mZ2ronoDc2tmnH/qAMg4oTAAAAAAAw/vU1q0kPZjcZuMPNatKD2U3QH6fTqby8fGVmZtodCjAhUWwCYMhM05AsLhICwLHCZ8RU3rFfS3f8Wwv3vCFvPCKHOfCiE0tSY1tMK7e06d/rWtQZig9/sAAAAAAAAKOor1lNejC7ycDd/uNbFY1GD/tvmN0E/cnIyNSZZ5+jmTNn2h0KMCFRbAJgSBobG/XP5/6uxoZ6u0MBAIwih6ScaEDz967S+998VLPrN8gXCw+qrWjc0s76kJ57o0kbd3apIxCnhhEAAAAAAIw7h5vVpAezmxy9o5nVpAezm6AvsVhMG9atUX0917CAkeC2OwAAAACMXw5J+eF2LdizQvmhVu0onqnG/MqBt+NwKBgxtKq2XbsOeDR3Sq6qSzPkdjmGP+ijFAp02rZvAOkys3PtDgEAAAAADutws5r06Jnd5Bd33zdKUY1fRzOrSY+e2U1uuvkbIxwVxpN4PKZtW7fI63apvLzc7nCACYdiEwAAAAxZZjysWQc2qayjTlvL5mlL+fEyXAP/qGmaUnNHXG9salNHMK6aikzlZnlGIGIAAAAAAIDhczSzmvT44+9/q//66n9r6tRpIxzV+BWPx9XZ2anzP/zRlOcff+yR5OPe6w7U18uyLDkc9n15CQCOJRSbAAAAYFi4LFP5oTYt3LNCk7oataFqkdqyCmU5XQNuKxIztH5Hp/Y0hDVvaramlWfJZeMsJwAAAAAAAIdzNLOa9GB2kyPzeDy65/4H05+/xKOH/++PuuLqa/XD235iQ2QAgB4UmwAYEq/Xq8JJk+T1+ewOBQAwBjgk+RJRzWiqVXXrHq2ZskS7J01X0J8ty+E8+nYcDpmW1B6Ia/mmNjV3xDSrOlvZGW55PUffDgAAAAAAwGh48Z/Pa+myk1KeW/HG68nHvddtq61Ve3u78vPzRyU+AACGG8UmAIakuLhYZ77zbEXjpt2hAADGGJ8R1eJdr6usvU47imdqz6SpMtzeAbcTN6StewOqa4poelWWpldmKztj4LOlAAAAAAAAjJSf33Vv2nO3//hW3fKNr+n0M87Un599zoaogGOb1+vTCQsXqay4yO5QgAmJYhMAQ9Le3q4ttbUqr5yi/IJCu8MBAIwxbtNQVetuTepqVHXrLr0243TFPP5BtORQIGJo484utRyc5aSqJGPY4wUAAED/QoFOu0MAcIjM7Fy7QwAAYEzzeDyqmT5TmV6+uAaMBOYgBzAkwWBQO7ZtUzDQZXcoAIAxyilLWfGQpjVt0zs3PqspTdvkTsQG1VbcsLSvKax/r2vRG5vaFAwbsqxhDhgAAAAAAADAuBcKBvWXpx7Xhg0b7A4FmJCY2QQAAACjwilL5R11Kupq1K6i6dpQtVBt2YOZwtKhaNzS1j0BtXTENLs6W5UlGfJ5qKMGAAAAAAAA0M2SpXg8rkQiYXcowIREsQkAAABGlcdMaGbjFuVEOrWtdLbq8qsVzBj49M+mJTW1x9Ta2aoZHdmaMzlbedmeEYgYAAAAAAAAAAAcimITAAAA2KK0s14FwVY15O3SmslL1JRTKofDMeB2DFPaurd7lpPqkgzNrM6W38ssJwAAAAAAAAAAjBSKTQAMSX5+vhYvPVG5BZPsDgUAMM44JPmMqKpad6sg2KItZfO0tfw4xTw+WY70YhHLst56LEuyDj4yTckydKAxoIYmS4lYoRbNLRu11wEAAAAAAAAAwLGGYhMAQ5KVlaWp02oUjZt2hwIAGKecspQT7dLi3W+osn2f1lUvUn1epRJOp2RZkmXJskzJMmVZlizLkExTlmV2P5aV0p5h8jcJAAAAAAAAONZlZmbpA+d9RFk+LokDI4EzC8CQ1NXV6ZV//UsLFp2oiqpqu8MBAIxDliRDkilLeZ31mrstoGj1YtUXVHcXmPTMXqLxW0Ry6Kwsh3vOLn3dvmgwtzQabhy3wePYAQAAAACAY51hGGpqblBxYb7y8vLsDgeYcCg2ATAklmXJNIzub5wDAHAExiE/CUnxg8+b6i46sSxT3kiHcgKN2p9bYlOUw6Pnwn73bCxW2vP9LY+m3hf3D112OBzJ5dEsAuC4DR7HDgCAiW+sF5RKY7eodKwfu7F63AAAGM+i0YiWv/aq5s2bpwULFtgdDjDhUGwCAACAIbMO+b+lt4pH4uouKjEPPrb62GYi2RH6j90hDFqla3HKxX6n0ylp9Aa4x/Oxq3Iv4bgNgt3vOQCAvcb6hX9p7Fz876+g9NB1vR/boXcRae91FDL3jWJcAAAAjFcUm2DCM03JtEzFDUtGwpRhSrGEqUA4IcOwVJTvVXaGW26X0+5QAQAYt+KSQuouKukpLsH4EotFuwez5ZDD6ZTL5ZLD4Uj+v6cQAOlisSjHbRB4zwHAsWM8F0dO8S1LWR7Ni//j+bhVuZdIEgW5g2BnITMAAAAwEBSbYEIxTSkaNxSOJBQ3LQVChgKRhBIJS52huILhhCIxU52hhBKGJYdDKsj26LhpOZpWniW/12X3SwAAYFxKSIpqYs5WcqyIhCNyHrzI73a7ZZmmnK7uz0Yulyv5bc+RGOi2+1u4QxWNxmw5buOdne85AACOlmEYkuwrmhivYrGoJMnpcEqHFJNSVHpkx3Ihc6Cjze4QMAyy8wrsDgEAAIwSik0wbkVihrpCcQVCCYWi3TOVhCKGoglTkaihhGEpEDEUi/f/3WrLklq74lqxpV3N7THNmpyt0gL/KL6K8a+yslIfvuDjih7mOAMAgLEvFArJ6XLJ5XLK4/bI7fHIbb319/3Qb/EiVSgU4rgNAu85AMB4YFfRxHgvxo2EI3I4nXIeLJigkPnoUcgMAMDwcbvdqqyerIICCuGAkUCxCcaVHXVt2tsUVXMwolAsobhpKGbFFXWGZBkueWJZ8hgDLxYJR01t2RvQ/paIjp+Wq1nV2fK6J/Y3BYZLKBRS3YEGZecVKjMzy+5wAACwzXgf1A4EAnJ73HK73TI8hjymIcvyJS/4m6Y5It/ktSxr3B+7UCg46sdN4j0HABgfxvvfKzuLJsazUCgkh9Mpt9slt8udUlTa87eeY9Y3CpkBABg+Pp9fS5edrEzubACMCIpNMGYZpqGIEVNHPKSYmVBbPKA1Dfu0p7FDRpYpy2/KcMcV84QlhyWH6ZQvlqOi9hr5orlyamDFIqYldQYTen1jq/Y2hrR4Zr4Kc73yUHRyWG1tbVr++mtauGQZxSYAAIxjwWBQHk/3hQDDZ8iyLDkd3RdVnE4zWRTCt0/ThYJBW47beGfnew4AgKNlR9HERCjGDQQCcrld8ng88rg98lqmLMsrp8Mp4+Axo5C5b3YVMgMAMBFFIhGtf3OFpk2domnTptkdDjDhUGwCG5iSaco0Y5IVk6y4oomgukIHFEoE1OLIVoNhqTMRV8SIqTMeVsyMqyMRUsQVl8r7btVymor4O9RYsFU5wWLlhMoHNcuJYUp7GyNq6WjS8dNyNKMqS9kZniG+ZgAAgLEtFArK4/HI6/VJUve3d91uuRIJuVxOWRZdh/6EQqG04+Y2DI7bEfT3nuPYAcDEMREu/NtZNDGeBYNBuT1ueT1eGT5DUvetiAy3Ww6TQubDoZAZAIDhYxgJNRyo16RCbqMDjARG7zDCTJnxgGQEZBlhOcygrESHLCOmztBeRWONcpsBZVpRFThM5VgOuSyfthmTtN7IVlQDn9Yq5g2o1RNWILNZxW0z5Y/lyaGBd8BCUUOrazvV0BbV5NIMzarKlsvFLCcA3mJZlkxZihpxxa3uW3vFzYQ640HFLUPlGZOU586Se4Tu4Q1g7JgIF1IikYgMs/tbuj3TdhuehEzDkGlaydc4nFPF925zvIpEo5LSj5tluUfkuEkT/z3X17GbSAIdbXaHgGGQncdgJXA0xvvvcTuLJsaznqJS82DBhMvlkivhktvwyOV0jvv3xUiikHn4HevvN34/AQCAkcKnUwwfIywj3ibF2yWjU1a0XrLiBwtNApIRkYygZIYkSTkHfySppxbE7bBU5ojoLEeDSh0hrTbyVWdlDCwOh0OWw1TUH1B98TrldlUoN1gut+Ef8K114oap3Q0h1bVE1dQe0+KZecr0u+V08gEdONZYlqVAIqJgIqywEVPIiKozEVTMTKg13qW2WECdiZC6EiHFLENOOVTiy9MpBfM0N2eyMtxeu18CABxWLBaT1H3xxO32KJFIyDAMmZYp0zRTpuwebuN98Dcei3V/49TtlvfgcTPM1CIdpDv0PcexAwCMVaNdNDFRii2j0agMw5QOzvwSj3fPDGMYhizPyBTkTpRjN5BCZnTr63hwjN5y6LHo61yjGAUAAAwWxSYYPNOU2bVZRtsaKdwmRbukeEzqisuKJ+SYlJCyLA1ichLlORJa5mrXTFdQ/4pP0ptmnhIDLBSRJMOdUFveXoUz2pXfWaWscPGAC04kh+IJU5v3BNTYFtWcKdmaXpGlDB+njyRlZmZqytRpyszKtjsUYNhEEjG1xQPqSAQVSIR1INKquGUomIgqkAgrYnYXm4TNWL9tmLJ0INqufzSvVn2kRQvzpqsys2gUXwUADEwikZDL5ZJpmd0X+y1TpmUySHsUUopyDh43HNmh7zmOHQBMPBPlorgdRRMTQTQaPVic45Tb5VYinpDhNWSZZrKodKSM9/cchcwDY1mWTNNMe65HPGEqluCYpf5ucqStczkd8nqccrv4HQYAAI4eV8txdExTZiAgBQKywmE5gkFZHR0y2zZIjdtldUmOoKSgpITkcEoqkHScpGmSBvGFfo/DUoliep+nQbPNgF6IF6nB8slwDLBYxGkp4u9Us2u7wv4O5QRLlBHLH3hAklq74nptY5taO+OaMzlbJQX+QbUzkRQUFGjJicsUjXNhAOOYZam2c49qAzsUSnQpkgjLacWUZYUUthzab7jULs+gmu5KhLW8vVbbQvV6e+E8LcybLrdzEFV4AMa88T7o2zN7iXXwxzxkWvgeIzFN/EQYMO/vuPX+Ge6LTxPhuNl17AAAOFp2Fk2MZ4ZhdBfkmlZKETPH68goZD6yQ99Lhxab9DxvGKbq203tbDDVGuA9NxBlBS7NrPCqrMDNZ3AAE4Lfn6G3nXaGJuXn2h0KMCFRbIJ04bCMtjapvV3q7JRVXy/F492FJoGAFIlIwaAUCiU3SfvYaUpqkbRCslokx0xJxYMLx+8wdZyrSxWOsP5tTNIGI1edllvWAD/sJjxRdbjrFPK3qqCzWtmhUrkGcZ9T05S27guoqT2qmooszazMVnbmsXsqNTc36801a1Qzc66KikvsDgc4MsuUEgHJDHTf1ssIyJHolDuwR9XhPSpwxpWphApdcbkkxeTQfqdff0uUar/llzGYWZZkqjnWqb82rNCWwD6dWTRfJb4CeSg6ATCGHDpYi4HjuA0c7zkAwHhgR9HERCjK6Ckq7SmasCxLyf9GsKh0ohw7inEPr+cY9BwfwzAkq/scjcYtvb7NUlfY7ijHpwNthg60hVWS79Kp8zKZ6WQYzJo1Rx86/8Oad9zxdocCHJOcTqdycvPk9/vsDgWYkI7dK+RIYW7eLHPdOqmtTVZnZ3dxSTwuJRLdxSWD7aSFJMcmSfsl64SDRSeDvLZa4EzoLEeTpjlD2mTkaLWZJyu9zOXwHJbi3rCaCrcpkNGkws5p8sVyBnxrHdOUmjtiag/Etb85ogXTc1VW6JfHPfCL0ONdNBpVU2OjKqun2h0KjnGmJVmmpbhhyTAsGaapWDSsrkCHZIRUmNGpPNceOa2EZAYlIyiZYckMymFGNUP/n737Dm+rOh84/r1Xy0Oy5b1HnMR2dsiCMMKmzLIKnVBaCt2lLf2VsKGMAqWUAm2ZpaUto0AZpWwIZJC9ncSJE8crjrcla9/5+8NO4oSQWMqwbJ/P8/gBK9L1sXx077nnvOd92e9V0Y7JKEuIL0s7Wa+lsMZw440xy0nE1Kj2N7Ez3MXx6eMY7yohxZaMPIIniARBiB/7Tl7v+7jwxb7ofRMO7EB9Tti/A7034n3b2/4W4EbyopwgDJbhMI4YrKCJoW64lFEaLOJ927/+QSaGYfQFgunoeu//K6rByjoL/sjIm6M93No8Ogs3BuM64GTb5o2D3YQBqSwfw+233Q4MnTYDjK4YP9hNEITDIhgM8MkH7zB+/HimTJky2M0RhGFHBJsIABgNDZjLlh2hgwMekJaA2QDSNHpL7MQQdJIoGVTKPkbJAUYbAd5ScwhhYT+5VQ7IlA2Cyd0o9hDpnhKSwxlYjeiiGiVJQjeguSNMhyfC6IJkJpSm4HbakOX4HIALwnBhGCaKZhKK6GiagT+kEQj3pjD2eDoIRwKEFJmeSDImFmTJToYDKt0eipz1OCxK1D8zT46QYetggunjLSWXRjMx6gxLu3i1IPM61rE92MY4ZyFT3WNEwIkgCHFHLA4M3L5pvMX7NnDivRu4fd+r/f27sMf+FnxlWT7gvwuCIOyPCJqIze73yzT32sQm3seDE8G4B7Y7yETXUTUNTdPQNBVdN6hptYlAk8OozaOzZYfC+GKRDUAQBEEQhP0TwSbC0aOCVA9mBzAJpFFAMtHGiWCRIAmDybKXLHuEJVo6mw0ngRi6s2YN0ZG2DX+kndRAHs5QbGVgFM1kU72Pzh6F8aUplOYkYreJ8hiCEDXTBN3AVBQkRQFVRQlFiLR3oYQieFOz8ViSCGkSEdUgrOhouok/1PvfXjbAvddhDdNKezgXb1sKHiWNitRNuOy+qJomAQ7JpFAK801HI8u1NFbqqXhNO0YMixVhQ2Wzv4n6YCvbgi2clz2TRGsCYt1DEARBEIT++geYGIax+/93fYUUk/o2nRaPgaKZMSelHJakfb/tfcBmlchOtTAm305KkrhvEwThwETQxKERQaXRE8G4+9c/m4mmqWiajqoqKIqKqipEFIM2X+JgN3PY2bZTobLILjZJCYIgCIKwXyLYRDjqpACwCtgJZglI5UQdcAK9QSeFUpgv23eySXfxqZZJi5kQZWMkDKtG0NJFOKGHSE+AFH8uFsMRdWkdkGjrjuALdlHfksDMSjdupz3KYwjCCGKa4Pf3foVCSIEgZo8HFIVgUwt6Zze2gJ+EsJ9EXUWXZKxJ6bQWTqYhvQzVFv2uioieyKbuKezwF1PiqmVyxhpkyYj6OC5J52RrB6PlAJ/p6Ww1nH1ZlqJjYhIyFNZ76+iIeDk2rYJyZyFOm5gcEQTh83Rdx2IRi6LC0SP63ODbXa6hL9BE13XoK99gGAYbm0zq20EsQQ1U7zsVUkx6ggZbd6rkp1s5rjIxbtPDC4IQP8TivyAMnr3HQxqqqvUGmkQUwpEIihKh3Z+AEfV8rnAwIcWkpUsjPyO2ktKCIAiCIAxvIthEGBwK0ABSC9AMzAaijBPZxY7JFEsPblQ2Gi6q9BS6iTLIQwLDotHlriOQ1EmqLw9nMBuLGe0gWiIUMdi+M0hnj8L0cjeFWYk4bBbkYXqvk5WVxcmnno49IXmwmyLEs1AY09ON5PGAz4fUshNJVSHgB38AwiEIBJBDIQBS9nMIi2mQHujgmO1LSPO1sy2nkk5XdNmIJElCM+10KTl0debQGsznmKylpDu6scpaVMeySFBiCZEqtVJjBFihu2k0k6I6xi6mZNIc6eKt1mVUBnZyUsZE8hLTYzqWIAjDh9ZRw7wX3uODj9axcUsrnqCOnJBCzpjRTDnlRM792qlMKxSBrcLhI/pc/Ni1iLlrB2/vl46m6X2LLAbVzRI7PCIY6FA1d2ks2BDkpAlJIuBEEARBEOLYnqwmvRlNIuEI4UiEcDhEOBwmEBGlXo6UYCT6jVqCIAjxQpZkEpOScDjEdUIQjgQRbCIMHhOIANvA9ADjQSoGYtzQXyyHyJPDVMh+PtCyaTASMaNN7ydBxOGj3RZAsQZJCeTh0JwxtacnoPHp2g6yUu0cM9ZNfmYCVsvwiziRZZnExERMWUx0C/vYvAVpw3qk7m7w+UBVkDQNU1UhEkGKcSdYshKkYudGCrobqSqcyrbsCgxLbJez5lAR/p1OylK2UpZSQ6rdG/Ux3LLGMbKHMbKfz/QMVupuwjFkOQFQTZ31vjq6VT/jncVMSC0h3e6K6ViCIAxlAaqff4r77vuYmp69J/X0cA/NVatprlrNO0+/zOxrv8/1P5lJnlj/Fw6J6HPxSNd1dF3H0HU0XUdVVXRdQ9cNGjtldnhijNYXPqfdq7Nqa5hZFSK7nCAMPTq6bkEk4hKOHtHnjrb+WU16g297M5tEFGV3oEk4HEbTdGKcjhEOYk/pakEQhKEnMSmJs845nyS7uEgIwpEggk2EwWeC1AF8BjQBU4GM6A8jSb1ZTsosQb4lNbBST2O54abbsGNEGXRiygbelGZCCV5S/Xk4gzlYzOg/LoYBrd0Kn23ooqLISWleEmnDrLROa2sr8+fPZ+r0WRQUlQx2c4Q4IjU2IK9Y/vnHD8OxraaOO+RhVu0iCrvqWVc8g+6k9BiCTmR61AzWdaayM1DAtKwl5Ca1Rt8eIE3WOENqo0z286mWRbORgCbFFmDWFGqnNeJhi7+J07OnUpyUI2rjCsKI4WfNQ3dww6PV+A82nxduYfEjd/PDqqt54LEvUx5bciVhxBN9Lt70L5mj6xqapqMoERRFRdNUVFVnh8c92M0cdurbVSaPcpBgH34bBARheNHpXreQN174lEVLtrC90UtIk3CkZVM6cQLHnXc6X75oMrkiHk84bESfG0y7xkV7xke7yugoKEqESCSyJ9hEEsEmR4pp9v4tJDE3JQjCEKQqCrX128jPzSE7O7pM6YIgHJwINhHihwbUgukHqRQoA2Lc0J8sG5wgdVJiBlmkplNtuKJe9DVlg4ijh3Z7gJDDQ4a3DItuR47hrsXrV1ld46WuJcAxY90UZychy2JwLgiHyq6rlHZuJ9PfzoaCKdRnjibgSIYoP+8GVlpCBSxoOZP8pAYmpK3F7Yg+y4lDMhlnCZAnR1iipbNKd+OP5VIrSaimRl24jecbP+EY92hmplWQZndiiTGARRCEocCg+/2nuetPA1j0302n/eNnuOm2TJ544HgyxClCiIroc/Gmf6CJoeuoqrY7TXxEUVBVha6AFcUQt/KHm2nCtp0KE0rEaqEgxK2erbxx1yP85dVafHsl4jKJdLewefYRedEAACAASURBVEELmxd8xIt/msE37vwh3z4th2iLIwvCXkSfiyum2b+MjoamaqiKiqooqIqCYROlXgRBEITPU1SFTRuqkExDBJsIwhEgZqiEuCO1AV1gNgLTQcolplQIFgkKCXG2vZWxup81upvtZnKUjZEwJQOfq41gQjep/gJS/HlYDQdSFI2SJAlNN2nrVliwrpOS3BDTxrpJdMhYZDFDLwiHyhnxc0z9CnK9zTRkjGJrTkXUASeSJOFXU9nincQOfzHTs5ZQ4GwkwRKJuj1uSeNkawclcpCNuouVRlrUx9glZCos7q6mMdTOcenjqHQWYY+xbJAgCHFOqeXlP8yjRe/91pZZwpTZExg/rpjCwnTcLgdWNILeblpq69i0fA3LlzfRo+ns/M9TPHn2ZG48I7byf8IIJfpcXOpNEW/0lc5RiEQUwpEI4XCISCSCL5w62E0ctjwBsUglCHHLW8XT37mLv60KcLD4yEjjCp699tdsvvk2fvOd0bFWaxZGOtHn4squUjqmYWD0ZX9TNbXvS0PVNAyLuI4fOb3vPyCymwiCIAiCsBexWiXEJw2kncAHYJaDNI7eLCdRxmVYJEhHI9XipUQOMV/LZKPuIozcW3cnCrpNxZPSiGIL4Apm4wxFHwEpSRKhiEF1vZ+WzjCTylIoykokOdEWbXMEQdiHXY9Q1FlHrreZfE8TS0efSMSaEPVnHSCgp7KkdQ7FwVrGpG4mO7EVixTdpEWiZFAp+ymTA+TpYRZoGfiwYcQQPWdisiPcyQdtK9nmb2ZKahllzryojyMIQnxTVn7IB5t1LFkTuPj/vsu3L6kg/SCj9XDDCv59z5P87b1mPnj6Q6449SIKRepoYYBEn4svuxZReoNNdDRNQ1W1vhTx4d0p4hXNFfV9kTAwqjbgFD+CIBxNhpf5dz/EcwNY9N9N6+Sze+7lodwHufGcNHHaFKIj+lxc2TM+MjFMA93Q+8oN6uiahq5pGLqOaYpgkyNlV6CJIAiCIAjCvkSwiRDfIiBVAW1gTgCphJh6rUWCbEnhy/adTNE9LNIz2Ko7MaJchDYsOv6kDkKOHkL2HtJ7SrGYsX2MPH6NpZs87OgIMzo/mVF5UWZdiRM2mw2ny4XVJhKFCoNPxsShRRjVVkNKoJvqgkk0pZcQtidFfSzFTGRrzzjaQnlUuquoTNsQdcCJJIEDk1mWborlEMu1NDYaLgIxnMgMTDxakNU9tTSE2jkpYyKVriISLQ4RrCYIw4JO3eINtKVN57rnb+bSsfYBvSqheAZX/nkUpTfeyG1vLGbBjgv4erFY+RcGQvS5eLN7x65pousGuq6haSqKohCJRHq/whE0dBjYn0sQBGFYUDe8yTOvtdGbiMtKWsVEps0qZ+zYPPKyU0lOtIAapqetjcbqGtYuWs3abT50rZV373qOk4+/jhNFUighCqLPxa/+wbnmrgCUvqxwgiAIgiAMDYqmYxgmumGi6SYRTScYUUmyW3EnO7DbxDzTUCKCTYT4ZwJtQADMJmAsSPmxHcqOyVhLkAI5zPtSDlv0ZDzRztTKJrocwZuyg4jdR5qvmIRIakxBJ4pqsL05SEtXhDZPhKmjU3HYh9ZJNDs7m7POPpeIKm7qhPghY5IVaMe9dT6NGaWsL5pGlzMrpiP1qOms6jiWpkAR49wbKHI2IEnR7eiwSlAohcm2t5CvhViipdNKQgzt6c1y0qH28FbrUtb21HJC+nhGJ+eLklyCMOSpNNV2M+6aX3PRABf9d7NkMOeW73Pukt9TvUEFsfAvDIjoc/Gkf6CJaRjouo6m6X2ZTVSUiIISiaAoEQyrPtjNHbbMvhTxIj28IMQTlfUvf0qtZiF95rn84ObL+dLUtINMaIbZMe9NHrvzJebXzefFly9n9vfyEFcrYWBEn4sXu8ZG+37f+wWGYe712MDT0AjRMkGMkQRBGLLsNjuV4yeSl5cz2E0ZcRRNR1UNIpqOohuEIjqGaRIIqQQVjYhqEFI0lL4sow6bTJ47kcLMZNzJDmRZXHeGAhFsIgwNJkh+oAZoBXMKUAqSI7bDJWJwprWVcXIiy/Q0tugu9CgHy6ZsEEryEHb4SPHnkhrIx6YmIUeZKNMEAiGN9bU9tHWHmVSWSl5GAo4hErnX09PDttrtZOUWkJLqHuzmCMJebIZGWftWksM+GjLLqMscjT8x+u1FmumgOTiKlmAR5e4NVLqrSHN4oj6OHZNjLF7y5TDVuosVehq+GC/FqqlTG2yhOdzJmVnTGOPMJ93uiulYgiDEAw1/OJsZc/Jjm5ROmcw5X0rn2Y4QxBjMJow0os/FI9PsTQ9vGAa6pqGpKpqmomoqqqahahqGPHhB3oYeQolomLIdR4Jj+JUIMPekiReLKYIQJ7RGVq3oIOWUa3jk8fMZNaBLTgIFp17O3eOLeOBr9/P++0to+c7FFAyNaRZhsIk+JwhHnQhkEQThSLLZ7VSMG0/SENvoPZTouoGqGwTCKiFFJ6IZBMIaimYQVjRUzUA1TMIRjQOlaY+oBnVtfjwBhZKsZEpyUo7ibyHESgSbCEOLCXhB+gzMrcAkoJCoa5ZLEiRjUC4HKJJDVMkpzNOy8GHFIMqgE4vem+XE4ccVyMYZzMZqRLc7VJIkDAN2diq0e9qZUJpCRbELtzP+S9P4fD6qN20kIckpgk2EuJXtayU90ElhVz2rSo6lLTUXpOiXRwysbPGMozOcxfi0dRQ4G3DIalTHsEsmhYTJs4YpkYN8pGWx00xAi3G5JqwrfNi+mmp/IzPc5VS4CrHE8LsJgjDYZCzWFNyZsU6wWcgrysRhj/+xgxAvRJ+LR7t26pqGgWEa6IaOpmnou7703l1AR4fGzrd/ynPvbiQU8hMOBVAUDROwT7uXW+dejvMotUQQhBFMbaahbSxff+ScAS7672HJmc1P7ziD1T+vYYsCBYlHponCMCP6XNzZN6NJbxaTvu8xd2fdMCHKWV0hXmzcUMUdt93M3JtuZfqMmYPdHEEQhplQMMiSRZ9QUV5OZWXlYDdnyOm9xkqYfSXrDBOCEQ1vQCGiaXT7FXwhFdME3TAxTBPDBN0w+NyVeSCBhZKEJ6jib/TQ1hOhLMdJuitxQC8VBocINhGGJg2kZqADmAlmEUgxbOiXJEjCYKbVQ4kcZIXmZp3hxmdaBnbS230gCDu8KNYA/sR2srsqsOtJ0TcI0HTYUOejw6tQkpvIqLxkkhPER1UQDoVEb5aTPG8zp298m5qcSrbkTcSX4MKUo4toNrDTHs5nSaubstAWylM3kubwRFVaR5J6L8DllgDZcoS1eiorNDddph0z2lGTJBEyFGr8zTSFOpgQKGFOxkRSbU5kMQIThCHERla2lQ1dJmTH8nqT7i4bubNiTPsmjECiz8Wb/gspu7KbGIbRG3jS7/85asEmMimTvsacpj/w+oc7UHY/biW3fDqx3e3EP7GzVhDijBIgUjiFY0tj24nqnH06c3JeoNtvQKIIyhcGQPS5uLcr4GRX+TtheHj/3Xd4/913OOvsc0TQiSAIh5VhGgQDASKRyGA3JW4ZhtEbJGL0lr4xTNB0g5CiEwxreIMRFN3EH+rNXDKwe+ZDu6/WDNjZHaLbH6E020VuWiIpSVGWgRaOCrGCLQxtCrACpHpgHFBM1FlOoPeUlyMrnGVrJ0+PsFJ3s91MjvoghlUjZOmmOXsdqb58XMEcLIYdKcqTqqab7GgP0dYdob1b4ZjyVNxOcRIVhMMhQYswYcc6sn2tbMyfTGNGKbol+l3ZESOJzZ6JNAcLGeXayqSMNVglPerjuCWNEyyd5EhhVmlpVJkxpoaTIGQorPDUUBdsZXrqGCanluGyJomoX0EYEiyMnWjlP0s7MSqzox/OaI0sWpXIxO+OvCwTalUV1cUTmRTj6TOwqoqGCRMZN+JiJkSfiyf9F0r2Cjox+n/1BpwcPTLJRScz6/QVLJhXxc5dwxw5n5LKouFXQkcQhPhksWBNSyUt1pOONYe8PAc2uzhrCQMk+pwQA61nC9s3rqG5pZ1gOALWJJLcuaTnjiGvtJxMMa87YCLoRBAE4chTNJ2woqOovSVv/GEVTTOI9JW9iagGIVVH0z8f1Hm0N2eEVYMtzV5avSFG57jIcSdisYhxVjwRwSbC0BcBmoB2MEcBU0FyElPQnE0ymWzpoUAOsUZPZbmeRjDaj4kkodpDdKTVEkrw4PYVkhhOi/4ELEmouknNjgA7OsOMK3ZSUewiOcEqFo4F4RDJmGT6WpmxfTH53Q3UZlfQklYY9XEMrHiVTFZ3ZLAjUMSM7MVkOjqxylpUx7FKMFYOkGcLU2IEmK9l4iP2xbsOpYcP29fQEu5mmnsMZc68mI8lCMLRIpN62nE4fvgGay69hmlR1aZQqX3uGd5zn8UTI7CUqV67njWWcUxKiWX3qU7rsvU0lI/EYBPR54SBMbwdBPrFuEhJkygrEwsmgiAcJbYMMmzVeA3IjGVO2fDgsWczNcpyKMIIJvqcEAXDs4IFz9/LRwvX4dMAJGSLjKnr7F6ek52M/uYr/OiCMSJYNwoi6EQQBOHQqZpOSNHpCSoomkEg0htIomo6im6gaQaqZqLoR3NjS/QME7p8EUIRDW9QoTTbRaJDhDjEC/GXEIaPCEjVYLaAWQHSGIglt7NVMslG4TRbB8VykI+0bNpMB1q0twOySTCxC8UaIiWQTXIoC4cWW1XzYFhnVY2XDq/CuBIXBVkJWOT4uD1JTU1l4uQppLjTBrspghAVi2niivgY27qZnJ4W1hdNoyFjFIrVEV0ZLXqjeTvCuSzaeSqlKdsYm1JNit0XXXskSJV0ZsvdjLUEWKRmUG04Yw460TGo8tWzI9zJ1NTRTHePxWkTs12CEM/kzBO48rT3uOuOhdx//4nkDCR2Quti9ZOPctcfqqm4/wZG5Lq/Vsubd/+NhIvKcEe1g9RA8dTz4QtNnPGtI9a6uCb6XPzalR6eXVlOMDHZkzL+6MWe63gat+Hvt5nJUjqDUhFrIgjC0WIbRYXtf6xuMRhdGP08iLZ1GVXJlXx1xAWVqmxZtpX8WeOIbSZKYdOyWkpmVQ7bsmlfSPQ5YaCCS/jfvdfwcV0IAHvJ1/jqT/+PqcUJ9Gx4hhcefpgtXgNMG+6cfBFoEqOjGnQSaad6+TKq6tvo7gmi2Vxkl4xn5nHTKHZ98V/Q8G1n2adL2NTUjZqUz5RTz+LYon3OnnoX1R+/y4KtXuy50zjjvGMp6BtT6z3bWbFwKZuaugjbcph48lmcWObq91ovtSsWsWJTA50hK2ljjuOMUyeSKVb3BGHEMoze8kC7kqTqRm9Gkl2BJSFFxx/WCEa03eVxTMy+1w3N0rGSJBFWDba1+GjuClJZ4CYnLRGryHIy6MTlSBh2JA+wHMwuoByk/BiOIYENk3GWAKVyPdW6i3l6Jl2mHSOKqV1TNlEdQbpsDQQTPKR7S0hQ3Mgx3F6YJjS2hej2qYzKT2JCqQtn4uCnLXc6nZRXVBJR4zvyURC+iIyJO+ThuK3zKWvbwoaCKTSnFWHK0e2QN7HQo2ZQ1ZlKezCXyZkryU5oxSpHV1pHBrIlhXPsrVTqPhbqGdTrSRgxDAB1DDoUL590rKMh2MZpWVPJcqRit4jLvyDEJxujr/kRF//oHm6+y8o9tx73hYv/Rtsm3n3pYz56bT7LawPoyPD22yybeTGzigZ/fHB0GbQveo2HF8X4cvsszjis7RlKRJ+LJ/3L5/R+vye4pH+ZnaMrROO2GvaM9K1kV0znAHPtgiAIh5ecwvFn2rn52SrOuXUyURU8jtTzn3vmkfLV38cYcDGU6TQsqcIybRzOWG7/9E6qljSQO6OSpJF2zhd9ThgQnfaP/8iCvkATpFQmXDKXacW9f3n3hO9zyTkf8cCLazEsFRSXDe/NP36/nz8+/Ifd39sd0f2+GzasP+hzjmTQibpzKS89+QQvvr+G5qAOyMiywa4KlpbUcVxy8+/59ZkF7H27pNDw/u+46d5X2ejdM/8nP/sO1z/9J74+uu8EHKnh5bk/4XeftKABkvs8is4+loJQLe89/jse+/didoT7jfeffJ5vPvws1x+bTPuK53jgnqeYVxfoNyb/M08f+zMe+cNVjE88bG+DIAxbSUnJfOncC3AlDb1IUNM00XSDiKZj6L3lb3QTwhENX1ghpBgEIyregDrgDbRDMdCkP8OEQERn9fZOSgNO8tOTcCXasFljyXgsHA5itUkYngyQtoHZDowFKoAYB16JksEUixe3pLBMT2OL4SJElIvQskEoycNOu4/kcAbpnlHY9ASkKINODBN6ghrra3to71aYPDqF3HQHdtvgnURbWlpYvHgxEyZPIze/YNDaIQiHymZoFHiayPS1s3LUcexIK8afGP1+bQMrO4OFeJvd5CU1MiljLW6HB4noFokSMKiU/WTICktIY52RGn1ZLwBJQkNnS3AHDQ2tlDuLOCVrMhn2FOQhPrAUhGHJWsSFTz7OhQd9ooOsScfylYnH8pXdj0k4xcdaiJboc8KBaNU01Af3fC9nUFwxuvduKNzItlWfUtfUgWrPpXDaOYwvThW7dgVBOMxk0s69nONfeoiH376VuedmDWhGRmtbzwtzH+Lp1WO48bGRueyvbXyPRx9I4MzxKdijuV6bKr6ti3h1w8wRGpAr+pwwECHqNlWh9n9orzkWCxkTT6I0pwNv5mxK04b3CCkUCvLnPz16VH7WrqCTn/38er595RWHuGiq07bgEW64/R+s7dYBB8VnXsdNP7+M6a56nvvlNTy2wofu3cQr9/6BY2Y+yNnuXa816Jh3Lz+9+S2MWZdyqfEpbyxpRQMMz1Ke/dt8zr/rNFxGF4se+hUP9gWaAFjKKinv/ojf/uI2Xql1MPGsKzjF/zEvzW/qfU54G++/u4yz697i/x6cR4smY0uwI4UV9L52dy19nIdeOYUnriiNcqVCEEYewzDw+33YLWCzxe9mGUXT0XWDYEQjohkomkkgrKJoOsGwhmaYhBWdiKbDvpviR+A8v2FCbauPFk+I0mwXhRlJJNhF2MNgEO+6MHwZfVlOVvWW1pFmAG5i6vWyBCVyiAxZYbzh41Mtk2Yz+ugVw6rjS25FsQVJ8xSTFEnDYkafg9owoLkzTGt3mLyMBKZXuMlMsWMZhHRRuq4TDofRde3gTxaEIcCuR5hWt4Tizlo2502kKb0EI8osJ0gyQT2Fbb4JNPhHc3zuJ+Ql7SDRGo7uMBJkmQpn2tqZaPh4V8umyYw9iXHY1Fjfsx2v6mdGWjnlzkKSrEMvolsQBJCzy5iZXTbYzRBGkLjvc3oYT1cIe3oaSbsu20aQoJJE0hHZSKoR8EVIcCUP68ldo3sdje39srQ5JlM2xoJnzUM8//hT1HT1W2L59+NMueZZrjh11LB+TwRBGAT2Ur5217nc8v3f8ojtRn525hct/ht0rPyYt/6zgPf+u5qGHgMsMO+fq5n8vWPIH2m3PnoHy598guUxvtx60hEsVRHvhlmf08MeukN20tKS2DNMCqIkJXFkhkkBfJEEXMnDeUSgoan9xkhmD5veeoa6yT+jtG/axlr+c3766M8Hp3lHmd3u4Nzzzt/9vTXKxdwNVVVs21ozoOeWV1Ryw023cPElX6Fu6+aofs7eDLxLH+Znv36OLWEAibST/o9H7r2MYitAOaefUMZfVqxFA8yeKlZtVjj72F1z+WE6vTaKT/kJP7nnKsZ6xtJ80T0sDgGYdC6dz5rIKYyb/3vuebUOqeBEvna8woevrsA+dhzZ2XlMP+YEEn74C356Sh7mCo1PFz1Pk977et/i3/Oz/zYTyDudn9/2a746PZkND1/FD/6xtS9oJcS6jz9h5zeuonA4f9QE4TAIh0Msmv8J48ePZ8qUKYPdHABUTScQVukJqYRVg56gSljpLXmjaAaGYaLqBvp+CwqMvMCSLyYRjOjUNHvx+COU5rjITBne2cTikQg2EYY/HaRGoAXMEpCOAVKJ+nwsS5CCzgSLjzRJZZGWzmbDRcSUMaOJGpQkInY/7elbSYqk4e4pIkF1Hfx1+6Eb0NQexuNrZ1q5m8LshLgorSMIQ5kEJGgRCrobyfK1sT1zNGuLphNKcGJK0Qd0qWYCS1tPojC5njHuarITW7FIAy87JUmQiEGZJcjVcj0fa1lU6Sl4TVtMpXVMCRpC7XSqfjb5GpiTOYmCxMyojyMIwlFgqPg7uvFrDlKyU0kSI/cvIJFcMZvTTi0m9XPbdiNs+e8KLGefwOj9DpEiVP9v51Fo4xAxBPuc0baAJ267nb8uiVAysQyX0kG7UsDJV1zLBfaX+Ff4Lu66LPpATWPnfP764CP8Z3UbqgmSYw5z37ib0xxAeCWPXHoRd87rJOvM3/Lyy9cxKfr48SFB3baOln7rKJbiqaStuoHHHn+DTsOOzSqjan3jGq2Jdf/8HauOeYyZ7uG9e1cQhKPPOuZs7vvo7IM+T0rMpPKMC6g444I9D8pJIuuSELWh3+cM2hc9xh13PMVSpZSJo1xEOttQ8k/jm9+7CMfLzxG64z6+EvUwyaBl4ZM89NjLrGlVMZFwnHQrr/7mDBxAeNXv+epXbuGTzmzOuPtNXvjpFIbnMMlJYdko5DWb+0qbmIS3PMoTd7Rw0Y/mcmzpwTLl6oRa11K7ZROtbe2EVbAm5ZI99njGVRTjGPwOFJXU1FSeevqvu793pqZF9foNVes5fta0Az6nf5CJxXLo0RVG1yc8dOe/+gJNgKQZXP2rS/oCTQAMPN3efnmKZfau0JBExUU38+hFfd9mnsjs8VYWr+wNBTG7N7J+9Xu88+DbtKWfxq1//h0X5jVyfOVKtEkTsFuTOGvuA5zV9/JAWxuefuPucGszas6Z3P6X+zi/sLdRk045lrznt9LY9zxjRx11OiLYRBDiiGYYmIaJiYRhGCiagaLpBMIavpDaG1Si6oRVva+MLrv/OxKzkxwuqm7S3B2ivSfMqGwnxdlOkhxirfRoGQLTh4JwmKh9pXV8wDiQioEYdhjIQKEc5hLbTpqNbubrGWw1nKjR3EZKoNsUfNZWwvYeMjyjSAqnIRu2mFL/+cMay6q7qWt1MKHURWFWkrguCcIhkgCHFqGiZSM53mZqcsdTmz2WkD056oFf2Ehmq6+CtnAuZSk1jE9bj8MSibpNDsnkTFs7ky09LNPSWKOnosYQAGNK4NdDbPI34VEDzE4fR6WrCLtsE6V1BCEOhOuX8fKfXuftDzfR2KViAnKCm9JZx3HeNZdxyUk5w3TCNkaWYi6+/+t8b+rnbyL19tU8/FEDo777DS7J2s/50mjjpdVPHfk2xrmh2ueM9veYe+5lPGt+l5c+eIjT+v7G4br/cs93zue4pQHOevy2mI4t583hOz9eyktTb2KZBiRmsyvBh7b1f7yyoDcN9s55/+a97T9hUsU+1ds3PMNf6y/mB+emH8JvONgUdm7dyJ7y8RK2yIe8+nQN9hPv5uff/ApF5ke8cNNPWdHRt8ziW8S6tT5mnpw6aK0WBGH4MyIBujsCaAkuMjIS+01uymSMn0rG+EFsnDAsDb0+Z9Dx/vVc8PUnMa96g3d/dwaZMkCYurfu4JqLprIscA5/ujmWY8vknngNP1j2PDNvWYwGJOa09ZX20Nj2zkssbNGAZj555W3qfjSF8v7DJKWKvz9dzwU/Oo+hPEoCKwVn/ZApn17P6s5dEQIm4bp/8+ItS6j6ym+5/MvH4tr3FsToZNv7jzLv43fZXNeBhozFbsVQlL6gBivO8m9x+c9vZFKmiCCAwx9k0kthwz//xDs7d/3tZLJO/xYXFvc7vm8V//ukkV3PkFImMKX8AHdFchaTJhRgWVnf+xqtljduu5/O7iIu+cPtXFBsBUZx4iWj9vNilZpNNYT2Ol4u595wE+cW7jnjSMnJJPSbtjNCIUI6giDEkcbWAC3dQWQLBCM6vvBAKgJIIlnJYaLqJltbfHT6FUbnushwObBZxfX0SBPBJsLIYoLUBvQAdcAxQIwb+m2SSYklxLlSK6v0CFWGi3YzyvRMEqj2EK2Zm0iIpODuKSIpnI4cdeJpibBi0NAawuNXmVCqUFHkwmqRkWVxlRKEQyEBaSEP0+qWkh7ooCZnHC1phTEcyUKPms76zmm0BvMYl7aOQmdjVFlOAKyYFMhhzrK2ki4rrNFTaY323NPHxKQ50sXrLYvJ697MSRkTGZOcj90ihgeCMDh0Wt55grm/focan7nXvxhhD7Xz3+XRhQv54Kqfc9/Nx5El7pUAkHPKmVC6b6CJwo73X+D+W19jZWcZ13pMyNrPi40g/oBE6hDbOXj4DOU+p7Dyj//HMxsVxlz/DU7sF0yUUHoBd/77b3hP+zpNihLzT7BkZZG2n75hrbyM7138Kre93UL+hT/gojH7vDHKJp7+1a28d+G5XAtxsLM5RkYXDdua2DNSMQnXbcA48zF+fPVppMgAc5hU6WLlwl27PiN0NDcAkwalyYIgDGdhmj76L889/RGLVu3AEzEBGUdWEVPOPJOv//A8ZhWJ3Yt7kZIoPf14jitPwbHvNTxSx7yP4PhzS/e/DytSx6cDq2gxjA3hPqcs49G5j7NJKecXX5vTF2gCkEDp+ffywtMezryigdiHSRayMtP2M8axUnHpD7joP3N5p7WQC669lNF79T2FzU/8gt+8ezFf+gFDeJDUS04/n6/e4MF46Lesbem3oUhpoOr579HZ9Sg/vOqUvQNOjFrWvf0CG1p0JPccLrj+d5xckUT3Z7/hqcdepk3T8G/5Oy/9Yyplvzif5KP+W8WPIxNk0ie0nDfermX3ErCczcnnzN79fqttS/n7nbfwWkNfJIeUyoyrr+W0AyassTGmciyJ1OPvPQrt7WHGXf0wPz/RfeDubrSxfuMO+seNOKZ8ne/OSd/rdYbPR7DfNKJkt2Mf4p8jQRhudrQFWFfrweW0EhaUnwAAIABJREFU4XRasFjEh/RoM0zo9EXwhVSKM5MoyXaRnBCnY7ZhQqwmCSOPCYSAesAP5kSQSgAbMUUPZsgqc6QOxpp+FmsZbDBcGFEeyJRNQolewnY/GZ5SkkOZ2PXo030D9AQ0Fm/wsLkhwMSyFEpzk0iwH7mVgby8PM6/8GJ0U1w0heHNauqMat9Khq+NbTmV1OSOJ2xPjPo4OjZ2hoppDeVRmVZFeepG0hyeqI+TLBscL3VRKftYoqWzynBHl2Gpf5tMg6ZwB++2rWBqShkTU0rITogu5akgCIdOr3ub+274/KL/Xgw/1c/+gbuLH+KhqwqiDk8djuzHHcfsft8b3q28dc+j/PmVbfgMgB1Urw/A2M/PDBqd1WzcIVMyQmNzh3Sf02v4+JMaNHQal8ynVplFZb+NhnLW2cy97nSuV1UMYl3LkPY/qreO48q/r+XK/b7Gw8LfXMVdn3qYeWFMPzR+qOtobFD3eshSdCVfvWJXoAmAjD0hEfD2fW+ihoNHsZGCIIwIehuf3HE39/6zlsBelyyDSHs9y55/mhVvfcpXfn8zPzkzM36uVYPMMvZcbrruW0z43EZ8A++SZ1hSncvXfnkB+03+1vE2NTcw5IMBYjbE+5y+9UM+3aqBXs/ShVtRZo7vl6VOJvNLt/LT036KqsY+SvqijK/Wyu/yzMrv7vffPAvu4No7P8E76+LYfmYccpR+iyvvncrSf97Mfz/ZQGh3IECIne/fyv+mvM3Xpu+vfLqDsgvv5JSKDGQg87hfMmfem7yyNgKYBLcspUk9n4oRuDZ2RINM+ijrPmFxe7+ojYQiUrwf88bzdWxeu5T5C9fS3BfVYU0bz3k/uY1fXjKWg/05HGPHUmT9kE19USzWMV/nxmunctBZ/nAVG2r6h5okcszZ51C0z68fbm6ms1+zLWlZiAQ4gnBwFouV7JxcUlIOVuLs0JkmBEMGkUgEf8BCTrYDq3WkDqgGl6IZ1Lb66fQp5KYlMjZfZGA9UkSwiTBymUAHSPPBzARpClBITJ8Kh2RSIoVIs7ZQagT4VMvEjzX6oBOLTpe7nkBiJ6n+ApJDGTFkOenV5VNZUe2h0xthbKGT7LTYMh8cjKIodHV1kpicQkJC9AvvgjCUWEwDd8jD1IblZHt3sqZ0Fp6kdPQYMoEY2KjunkB7KJtxaespTG7AYVEP/sJ+bJJJjqRwlq2NEiPIfDWTbmxEYjxvdKt+FnVtYGtgJ8dnjGOcqxhLDGV6BEGIhc62V99nlZHHjEumM740i3R3AnarjKnrqEqEkM+PZ2cT1YtWs/qf71P9je/sZ/FgJNNpX/QKv7/x3yxo6F+qLMBnjzzJO5N+wjlj+42Hemp5/baXWCFN5/IReaob4n3ODBLuq68eWHQ7l3/L5LGHr2NO/q4GyuSeewXnrjzwNVHv3sKKFdtRcycxbVL+wSeCD8ToZNFvL+fKh1cRPOhUdPzTG9fRFOy3wialMv7L36N0r9sKg3Aw0K+WvYTNIe4JBEE4nHSa/vkIv/3cov/ejJ4aXr7+YfJfv5PLysTKG1jImFxB4b63qkobnz32GA8+sYqOsd/EZ7DfYBPTHyQsOUdorMnQ73NmMEzvMCnAZ3deyLfNp3joJ6eQt3uYlMc537iAVQdqtt7N1uXL2a7mMnH6ZPIObZBE18K7ueKbv2dNkGEwStqb7JzI7B+8SFnljTz95Ft07EqXYbRQ9dlilOln7Qn2kUuYcvkdZIdcFMws2PMZk1NwZ6Qg0Y4JSDY71hEWEH80gkx66TStq6J/rAnB5fz1xuW9/29JwJ1bzozjJzPj+NP50lmzKEke2NnQmldEnp3dwSampqMP4O+obllPdf9xt20cs0/I3OccrFJTvY3+M4eO4jKKxQqfIBxUQkICs0+cQ9IR3JTdn80mY7FIBEM6O5pDpKbacCZbsVgkJFHC/qgyTOjyR+gOKHT7I5Tnp+BMtGMVGWcOK3EpEgSjr7TOEjDLQRoFxLChXwJSZY3Zcjflsp95WhY1RjJ+04oZxQXEsGiEErtRrWEith7SfKVIpowcwy1+MKKzqd5PS1eEymIX5UVObIc5irKzs5PPFsxn6vRZFBSVHNZjC0I8kgCroVPcXU9Oz04aM0pZVzyDnsRUzCgDMwzstIXy8Slp7HTWUpm2gQxHxxdtEPpCiZLBFEsPJVKQ1Yab5VoaXtP6hTuNDkQxdRrD7bzd6md7oIU5GZNw2ZKQxUBYEI6wCNu2mHz5Lw/xq5OcB35qz1oeuuw1tvpgQsbRaV3cCzby4e8e4eF/bKJ7r3K4EkkpSUTqPuHu81bzr6nllGTZ0XvaqV27jR09OpZpueSNyLuiId7nrJVMm5KOtLENE4X6t27iwgX/4Nwf3MyNP7uMiWkycv7FXJHf+3S9aR5P3DGXB17fRNgEyX0Jd9yVxL9+9VfWenQggcLTfsWjz9zKaTlffD03ds7n6d/M5b6XqwiaICVdwGOb/8Wljlpe/uGFXPfPagIAqCycW0H+zWCfdRcN71x3FN6Uw8nAX7uejn4bLCXXHKbP3GfS22ils6N/dXkJV3ruQY6t0F31Giu3BMg9/ttMzI2vBTpBEOKMVsc7L67HKJ3K2SeXU5jvJiXJjlU20TUNNRzC7/XSvm0rKxas57WXtnLRjRXDbjE7ejamfWnmXo8ENn3In+f+lf+u7ekt1VC3lWovlH3u2m7Qs3Iz9fJxI/N9HAZ9zloxg8npEpvaTFDqePuWL7Honxdw7Y238eNLJ5Mmy+Rd9B3OA9Ab+fTPt3Hb/f9hc8gEyc2X77qXpH/8gufWeNCBhMLTue4vf2fu6TkHmJ00aFn4OHffdBevbghgIpF43lNseO5SWv99LZf/+Dm29A6SUBf8H1Oz5oL9WG777F1+NGpojQXC9R+ytqYLW9EpTK3I7ntPEsk55W4u2bKKpz5s7gvENQl72ggb7Cl1ImdTduLXKdv3oIafni5f3+tknJWzKRhB9yhjxpazZMWaIxxksotC7fbGfiVrrIy5/LfcdEEJKWnpZGVn4YrpAx1k7bP/4LN+Sf70ljrqQjDlgMczaK/aSHO/cbe1+Bim5ezzXugNrFrbsle7x04dQNYUQRCIRMKsrVpHSXEhxcXFR/znOZ02srMS6OgM4/UotLcrBIM6breNpMQRdHKPE7sCfFo8YXwhlaJMJ/kZiTgT4mU31dAnerUg7OIDaS2YTSBNBEqJOZNkhqxynq2FasNJlZZCteGKKuAESUKzh+m2NeBP7iDVV4ArmINFt0Ud+WiY0OFVWLHZQ5snwpTRqaQ6rVhkEbknCIfKoSuUtdXgDPvYnDeBpvQSFFt0WYQkSSJsJLG1ZxwtwXxGp25mQvp67HJ0WU4kIE3WmC11kSuFWam52WTGnhrQp4VY5tnC1kAzJ2dOZkxyPi5rooi+FoQjxkA3bKS4HQd/anIa6a7ea7wAWs0H3POjJ/mgJsReb4ktg2lXf59fXdrOgxc8xaqwl+3LlrN9r1fLFMyYSN7Qmt8+TIZ6n3Nxzi9/xYlv38ACb2/DDO8m3rr/W7z77CN8/cYHueOa2WT2DXkthafy/Zsu4/V/38hSDVDf5LGXfsb97yzD9uYvuOa++TR9fA9X/7iIT1/6LsVf0CfkvDl875Zv8Obzv2CBChDprfVuKeCsu//L7wIz+fFrHkxsHHfrIp75Riay48in6j38VBq3Vu9dN77yZMbuO5utbGJH/5lxOZOsA6SmNbwrWfSv3/Du/A0EyWV22TfjKtiku7uLeR9XI0kD23G2YuWqo9AqYaj5v7k34XLtr2SCEJNwHbXml7jn9R8x6yCZr/2fPc4Pn9qOn4pY9hANX3o3q5/6M/f/cTGN/eMD/Sv5+90fM+Ge0yjpd34P1XzMHx9Zjj7j9LgrD3NUDIc+5zqfn/9yDu/e+Cm9wyQDb/Ub/O7b/+Nvj13BDQ/cw9XHZvVOe1qKOPlHt3DJay9y2xINUHn7jy/wwwc/YL79DW747j0sbPqIB676PoWLXuXKLxokIZN74g+46Wv/4cVffdqbfUHRAAv5X/otrzzkZ84P/oPHBNvs2/nob1eQITtwZQ21XhZh+7u389JHrThm/5EJFeexZzTtpLhsDDLNfWMoCZsrHccApmANz4dUbenNzig5j+eMi07lyOSojk8OxwDuSQ4XI0BXV/97RytFk09k6sRDCdsw8H72MHf+vRrVIoPelzZFrWNbrQpTDxRtEqZq/ZZ+424JZ+VEyvZZudObF7F0a7+dFbZxnHhS3sg8TwtClDRNo6mxnhRX8lEJNpEAm81Cbk4SSYlWuroj+AMaimqS4jRwOi3Yj1KWFWFvgYjO5mYvnkCEshwXmakiM+vhIIJNBKE/DaRWwAdmM0jHAEkQZTUcoDfTwCRLD6VSkFIjyEdqFooU5QVEklDtIbpT61BtAZyBHJKU6G9fJUkiohrUNAWobwkyvcLN6PxkkhLEKUAQDpWMSXZPCykhLyWdtawrmk6nKzvq45hY8GnprOk4lpZAAcdkLSczoR2rrB/8xf0kSgYVsp9ie4gyPcAnWhZB0xJdwFs/Xaqfd1qWU+4sZIKrmMqUYpHlRBCOCAeFRQH+8MPb8V52PBNGZ5LmTiLRYetNs4mJHgnibdnB+rf/x5tdM/ndUFy/PgK09UuYt1egiUTSmJO4+rfXctlMNxZ8fO3CN1n7Uiv7nlHlrGO58tvlcbUT9egZ+n3OOuE6/vovD1dd/QCLWvdMvGpty/jHL05n3vt38/dnfskMd+/jktNF8q5LmGUS33vwVs4da4HKW/jK82fzVL1B1/uP8rc1V3Lb9C8eJ8sp/Y6zm4PU7FxS7Hv+wZqcSU5e3tAsQaBvo3G7t9/nykZB5czPLXpo25bT0D/lt2MipWX7WSwwetgx/yFeff5Ftnv6/layhRgqER5RXq+XTes+G3CwyWOPPXYUWiUMNT/+6XUi2ORw0nVMu5OUAcwDJ2a5cWIc/IkjSLh2IU/f+CT/Xtq19zhIcpCcrNH02kNctfBVJk4tJiNBx9/SwMY1TXhVC2MvzBmZi5jDos9ZGf+Tf/H37m9w7e/n07Z7mKTRvvxZfnXWh3zwmxd48rpjcQNILpx7BkmM//4fmHt+ORbG8evL/slnT9RhdL7HX55ZzZV3zjjAz5VxuZyfm0Z1pGaTk+LY87jVSUZuHrlDcZBkNNBU14kJRLYsZFvoPMbv7isaXR0te8ZPUipjpx07gHsNHzWvPdVbRsVawoxr7+WE/BH56TtKpH0SAUvI8heN+zTa6ppJLC7GdYD+arS8x313vUJj1vlcd9Z2Hvl7VW9Aur6Tmi1ejKn7lsTpR91MVXWw37jbQtGoMvbeb69T/977rFf2POKceSHnlIh+IgjxTJIkUlLsJCXZ6PZE6OgI09mt4A/KZKTZSEy0HuD8IxwppgktnhDeoEp2qoOy3BRciSLLyaGIs6kdQYgTQZA2ATvAnApSEZBI1EEnVnozDRwnd5MlRVispVNnJqNGOeWsWzW8zhaCCV5S/Xmk+gqQY7zlVzSTZZu6afdEKMlJoig7EbtNDEwF4VDImCSpQYo7tuMM+dhQOIWmjFJUiy3q0jpIMq3hAha1JFPiqqUspYZ0R3dUh7BI4ERnlsVDvhxmsZZOjeEkEuN5I2yqVPnqqQ+1Uh9q49TMKSRYxQBMEA4vGxMumkPRP1/k9T+s4/UDPtdO5fWnM158DD/P6mbKldfw61+dTOnujWkuTrjtZq5Xfs+f36jHbwDIOMeeyDUP/phzCobiLPfhMBz6nEz2aXfy5men8/Sdc3nw+eW0715MUWl650a+9bMCPvnbVz+/mJFQRElB33XRcQzHTLBDfRi0auZ/UgfTxxzF3yP+GP51NOzst3NSLqBwTNY+dzEKO9Z8Rne/NTZHxcmU77MpNNL0P95/9j4W1iWQ7UxG8nh3p4iPt/jV5ORkKirHDTjY5MKLLzkKrRKGgh07drBi2dLBbsbwlJhPnu8Jbv62j/POqaAk102KKwG73YJFksDUUfw+2mo38sk/3sNz2u0cpDjcCKFT9+oj3Hbnx2zr2Ts1mSWzkotv+QkXeZ7ie3esJdxez6oP6vd+uZzBpOMKR+bE8XDpc3IOp97+HgtO/wt33XQfL65oY88wqZH3br6cX+Yv4a+X5e3zwgSKSgr7Zg8cTJk2ATt1hNHY8unHwIGCTUaAUBWNO3rfSbPzTd746zScV1xIcXKIlpVP8Nr7NX3hRxZSpl3P+SdkHGQW2MC/6n5e/bAOw5LLxO8+zuXH5Q/NYOWhQnaRl5uGRHvfmFSlYdt2NMbvfc4zvKz9163c9Ngacq9+hIevncquUFKjbRVvz2si79TzmO7cxN9uuYf327M57/5fcKnlYZ59ropus/fYW6uqiFx+Cl8Uv2a0b2Bj/0yBSKSkp+89gxdYxouvb2B3DmTbGC695nzyREcRhLgnSRI2m0R2ViLp6Q4aGvxEwjo7WyI4nTrpaTZsNllkEz/qJEKKTn17kC6/Qnl+KhmpCSRYxVppLEbkPYMgDFgPSIvB3AGUgVRCTFlObJhUWgKMkoOsNtwsVNPpIsr0gLKJagvQlVpHxObD7SvCrjqRo7z9MAwDQzfYUt9NQ3M3M8ZlMHF0ZnRt6ScxMZH8ggISE0WFSEGQMckMtHPClnl0OjOpKppGc1oRmiW6PfMmFnrUDDZ0pdIazGdi+hoKkhujznJik0xGSSHybc2s0N2s0d3sNBIwYhi8Ghh4tSDLurfQrng5Lm0cpUk52ONtS7IgDGG2yV/hhl9s+H/27jo+qivv4/jn3juWmbgTNFhwaIsUK1ahbpQ6bSlQqGy79VLduuyzpd26ULft1t1lSwUquDvEZeIj154/ZiZMQiAkRCbJebfzIkxGToabuWfO+Z7f4dqHVlG6zwWSMvHjz+OGOZmiI1+HI3MsF92zgLPHJe4drXP15uSH/81R12xh7cZSSOzOwGHpuDr54Fz7Pua8uN0GCQlOLF2OYP5TP3HW5e/w+N138tRH6ykPlozP/eBRXt04g2sH7G/AwEFychwSXkwMcnfuADp52GTrCnLCsiZYetGlW520kX8Ffy7dtmc9t5TM4CnHEBf+e2W42fjRY6xPuIRLrzqHrnkP8dCtz1IQiYvAgZSUVI6YMgNZPrDBvlmz57VCq4T2IHv3bgb1z2zrZnRMtiyOPiGD9/79Gc//8tn+b2vvx9zTszppxbK6VNZ//kOdoImdbkefyXV3ns7IdAXKTuHoxav5cGfdz5kSsRNO54wxnfSV7AjHnNeN20ggwWkhfcIVPP79+Vz63iLuvfvffLKhPDDBbuTw4WMvwhk37fehHMkpxErgNcHI2dkqzY9kekk5RmwMircCHR8FP9zEwz/cjCQbmMH+jeTsxYAjr+aUmceR2sCclZ7zH9586j8U0oWhFz3PeUf2i7A+d0dkY9jYw4j74HNKTQCNze8+zAtj7mbWqDSsnkI2L/2a9994iXd/y8Vv68mh3ZNrhUUqf32R++5fQvqyjQwr+oSPV3joesrdXDUlCXvxULJsH/KrD8DE/ccSVvomM8r7Pxbd/A6W067lsqndaj6zetesYlOtt2ETVVUxIDjqX82KxYv4KDvUgXYy6IJbmDNCbP0gCO2NRZHp2SOa8nI/xSU+yis0/H6dhHgbTqcFRRGBk7ZQ4dFYsb2YtHgnvVKiSYx1NGUauFMTfRdBaIgK0jYw8wIX6VCgias67ZLJ4YqbBPys0uPYZLioaMxHUknCUHQqYgqocpaQWNaDmKp0FD28QWbwQ6OBiYlp6JiGDmbgT9PcM7Kr+kwqq1xN+2GCEhMTOXzcBHxqhI4YC0IbsJg6aRX5RG1dwqa0LHYk96HMldToxzGwUODpws958WS4djI06S8S7KVImA3fOYxdMjnc4qaH7GG1FstSI6HJVU40dDZV5bCjOp/hcb0ZnziYJHuE7asgCO2Wg4ELbufpPv/lyUWf8dPasj2rD5FxpPdh3MyZXHLpWLp1pg28GySTdvR87vrnCfTf79uRjLNbP0Z2a612tQft+Jjz/87j925i3gMXkSoDyMQPOYOb3zyJcz9cyOxL/s0fZSao61m9xgcD9heMlrBarUgQPMN29mEFjYLN64JVgAIkRwKuWp+BDMp/fZE/8vaMjNuzZnPk6DpbfsoJDL3kIwbLFmRAL7Iixs8EQWgcKwMXXMGc3+/g6V/K971hiRzHyGsu56yBYjVifZSEfpyw8AouPaP3nioccaO44slL8Fz5Al9vDm5JKNnpOvVMFj54LD067UvZ/o85/5+LuH/Tpdx3QVpgslqOZ/Dpd/DaCRfw8a3ncunjyygzQd2wssHHkmxWrHs6SZ2e0v0C5jx2Pn73ZnZt2UhJWSnVlWV4fBqyI4mErkPoM3gYiY4DSLVX/sIni+5hTUUaQy9ezPlH9ou84FIHFTtlNucP/4nHlldiAqZ7KU/OO4Zn7Vbw+9GCx7sSN4iZNz/EtUeFV3pS2bRuMz40tn3zCtsAx4CLuP3qySTKQNJ4Jg6P4telHgCM3E94+HYLA3I/55Mt3Zg7P3xxhMqmVeuorvX7pbP2q/dZN/1CstjJktcf4t6X1+MDkGMZfM7d/N/8Qzi4EX1B6FzsdgejxowjJSm+rZuCosgkJDhwOCyUlvkoLvZRWOQnKkojPi6wtY7Q+jQdsourqKj20z05ml6p0ShKJ1+h1gjiqBWEA2GAVAWsBdMN0lAgnSb/BvWXq+gmecgyXXynppC31+7nB9AkRaM4fjteSznOqkSiqmKRDAlME9PQMM3GVUBoqpKSElavWUOPzH4kJjW9QoogdESx3nKG7lpON/cu1nYdzo6k3phy47fV8RoutlYMZFdlLyZ0+Za0qDyiLN5GPYwCdJO8pNl8DDPKeMvfjRKsGE0szuo3dZaVbqJUrWJITC/6uLoQZxMfdQXh4DnodvR53HP02VTs2samzUVUmlEkZGTQu39Kp6/EUR8paRQX3jKtgaCJsG/t95irXvIOH2ZfwJzu4Y200+ukB3khZw3jr/6GCsmBs8HBfhO/31+ztUt6965Nb1SHCFJUsGvLltqTa7paM+gOYJR9z2f//Yaq4HVS7ESOn3chXeqbbwsGTQRBEJrM2Z/zFv+THk++yOLXlrKpOHybLzspQ0ZxwmWzOP+YjMbWkO0EbHSZMoNr7jqDsd32nsZ2Dj6OO744gtl/rWNroUFc3wEM6RcnJrzb/TFXzS/vvUf2+fOp3U3K5IT7Xidn7aFc920FkqPhz/Cmz48/eL6XM7ofRJs6RCcpSMaW0J8+I/vTp6kPYexi2dPX8v0OB/3OfZJzw4MmWj45G7Ox9BhBarToRbUIaxYXPPQvtDvv4sWfduExAUw0nx8AyZHG0KkzmXf5BYzrUucd0Shk/ab8mr6yI/Nkbvvn5RwW2mNH7soJF8/g3RWvsMUHmFVs/OJ1tqWP55JFdzF7iLPWY61em03tUXyTyt8f5fzJjyGbRvB5LMT3n8zMBVdyweQe+9ySRxCE+lksFtIzuuC0Rc6UeFSUBbtdweW0UlDoobJSx+s1iI83iIkOVDkRW+u0Nolyj8r67DIKyrwM7BZLnMsRcdv/RqLI+c0ShPZAB2k3kAf0A4YBTZjYkCRwSQaDzQoybF5+1RL4y4jHYyqYB/rOZQRCJZW2fKopIt7Xhejq1g97eDwesnfvJiUtA0TYRBD2YjNUUsvziPaWk1aazaoeh+GxOTGlxg8YqGYUv+RPoqtrJz2it9PNtQuLrDV8xyBJAhsmGZKP8207+VOPZ5Uei9u0Hfh7Tx2bKnPY7Ski05nG5ORhdIlqfAUXQRACjLJSKlzxxFkAFGK69+XQ7vVt5aFTVlRNdHJME2sUdSz2SUdzbJ3rNE81fsmO0yFeof1p78ecWfkdj93/Oaf9+7jAKsIaCl1Hjaa75RvWxR/B1MMbCnZXU1BQFgibKL0ZO7HpW2EoYdvLmWY7XQKsrmHHDl+tq0zPMv78aTMDp/TAv+Nzvnn+Tn7LC/RB5MSJHPf3R5hYd5sdQRCE5hSVwRFXL+SIv1WSs24rO/KqMV1xpPXqSWaGU4Ta6iMnMWbhddwxZwCx+3uBlGh6jBxFj1ZrWDvRro85k8rvH+ahL85g0bFJtduqdGPkyJ5Yvl1D3ISjGnyk6oL84PaECr3GHtH0JinKnn6kaTZboZTaE3Htpe/lJ/eTm3h3aQnJRz7B+ScMCQstGZT9ei9PP76aEbd+xqmDIqN/1RHn2eTkMcx99H1mbFnGr39sYHeJFyUmidQuvRk66hB6xuzrtzya0efewBWjSpBSBjPpmIlk1sltxYy+mudeOoQvftpIseYgufdwxk84lIy6KRHvGlbX2kPHQtY5d3PJwHJ25pVQpVmITupK72GjGJmVEqHhNkGIfFVVlXz/1WcMGjSI4cOHt3VzasiyRGysjehoC/n5HsorVAqL/FRUBqqcRLssyHJHfAeOZBK6YVJY7qV8o5++XWJIiXMQ6xTvwPsjwiaC0BQasA6oALM30A2kJizolyVIklSmWwvIMir5UUtim+FCD3XhTcA0wQAME3Qz8KdmBK4PMkwVTWpclQNBEFqPBLj81QzKXU1X905W9hhJdkJ3PDYXjY3GevVotpZnkVPZnayENQxKWIldURvXHglSJJWpUhF9lCr+pyaxyYxp+I71Phh4DD/rKneT6y1hdEIWh8b3w6HYkEXsVxAaxf/d6zzGDK47JXW/O/b5837hqX9XM/+eo4lrtdZFOpX8X77gjRe+5eel28gtVTGQsSWk03/0KKbPPo0TxySJDz91tP9jTmfbS3OY1fUNXrhxEik148HVrPj0S7aYaRx92x2cUl8O0rOJ1WuqOGWUC6p+ZekqFZCImzCfC0cGXg2jqhpvqMutV1PtAZyB6z0113tqrgeZ1LRkZArRMdi1chlbluUyjzdJAAAgAElEQVTy/HdZ3H/9lBZ7FZqbkb+C3aUGYCNuwERSS39jc14+q56ezk3PSphGcLMhRwZ9xl/MsTPPo09CJMWQBEHo0CzRZAwdRsbQtm5IpJOJHX8GV54bHjTR8VX5wRGFXbxt74dBeVElzuTYQN9xf8ecVo670kVCfAS+oPpWXpl/Jhmvvs71E1P3BE6q/+Lzrzdhph3LLbedXs8dPWxetZqq00bjooplv61EBaS4icydPTp4G4Pqag97uklVeAEnBtXV1Xuu94SuBzktnSQZinQwdq7gj81LyXvuG/rdcROT9rfbIYFAyZ4LwYvEnv+CfzcOfDFOW9J2vsDbb/+K13RgXf0gT1z7YM33TL2csoJ8vAzE4YycSJM1Ag/x5mEhoc9Yju0z9sDvIsfSb8pM+u23ey8TlzWNmVnT9vtQ6sZVrK8KC0nJaYyYMo3JIyMjZCQIQuuQZZkuXVxEx/hxl/gor1DJ9/nQEg2iXVZstsg5H3QmPs1g7a5SYottZHWNIyXWIbbW2Qcx3ioIB2M3SIXATuBQoJEL+s1QbsSAdMPDJDUfQ01mq+EKBE0Mg1r1qgVBaPfivOWM3vITuxJ7sSO5D7uSezW6yomJgseIYVXxYeRVZTAgYTXdoxtX5QTAKpn0laqJt6qsM6r5Q4+jwGz8tl6BNpm4tSq+KvyLTVXZjE8cTG9XFyxyhx2REITmZxTz1dWz+exaC8o+s1omuqpjmXQ581uzbRGtkhWP3s3CRasprbXvh4HfncPqLz5g9Tc/8u3fbuCey4fsf2VvZ9POjzk5fgxz7juTlLX3ceb0pzn8qPH0S1DZ/fNbvLEkillPf8E/zsmq/0OvI5biz2/h9u97EbXyOf6bK5MyegEPP3MpfRUwcv/H83e+yJ+hU6v6Gy/e8hT9LhnA6see44+w61++7RkG3jaHw9NsHDL3JmZ8MI+3tnjZ9tIZTP59Hk+/P691XpDmEjOZo+a6KFaGMXLioURTSdHGJWzeupWyShXZEU9cl8FkDhpBikuc5wVBaGl1Jv73J5In/ludjXGzpoNWworX3uWtd5ayfE0eZT4DZCtxPXozfNo0zpx3DCPSxOtVm59fHlmMNP8yju66vw2FVAq/fJkXK2Zx3ZmRtp+jTPyo+dwzM5W1D5zKCc+MY9q4/iSou/jl7Vf4xTGbJz65j7P61/db5SC2+DP+ccu39HKu5IX/5CKnHs6cR55nbj8FMMhb8jR3v/w7Nd2hpc9x2zP9mZu1kicWLwu7fjF3PDeIW2aPJ/XQeVw78z2ueGMz3m0vcN6EZcx+7mNmNxA0qY8UTJzstb2A3934B2ttRjZLX3ua7V4ALxW5m6io73aKC4czchbwJO6zyofQdAaFa9aQHV7YxDmI4QNF0EQQOquYaBsOuwWXy0dhkZeSEpXKKp34WCvR0aLKSVswkSirVlm90016vINeqbFER3X6DSf3IsImgnCwfMAOMIuBQSD1B+zsVV9QN0DTAoVJVA20YEfSMAOhExOTaMNPslrNVr1pk72CILQPdt1PZtFm0stzSC3PYXnP0WiWxn+Y1LGS5+1BQW46gxJW0S9uPfH20kY/TpKkMk4pJkuu4Fs1mY1mDN7GbpRgBqovGSbsKMulorKSI9MPY1BSr0a3RxA6O1PTaB9r8iKD99c3uO/RukGTOjQ3fy56gAe6P8xdpyZHeNnz1tcujzlLf855/FUGDO2OwqVc597MH8tWsbNUZ9TFL3DZUwNI3N+pVUpj0jX/5Iid/+OnzNt56fJDGTemNzVbrXeZyNwnf2Puk3vfdcJzfzD/ufofVul5Ns/8OpY53y0j25LJmCkjyWhn1VbluMEMnTo47JpokgccQ/KANmuSIAidWkeY+G8jlet5Zd7dPPtzKeFzmRgqZds38OPzG1jy4U9c9O+buODwGNE/CmPmfc+d47/hbquy7+1DTB1NUxhz36zWbNoBsfQ9n0dfHsSQbgrMX4h7y1J+X7WTUmMMFz13JY9nJe2nqp1E6uTruG/yDpb82JuFr17BiAljyawphiqTPn4Bjy1ZwGN73XcST/92BU/X+7i9mPn874yZ9y1/ZFvoNWYqh3ZtuJMUHijZu8KJVOuCWoKpViJZoxt83LZilHzNX6vKG97wR3IR5YyMIFhyjERMlHiHaH5e1q7eWOv92dIzi/5iWkAQOjWrVSYx0UFcnJ3s7EqqqjWKin14fQaJCVZkWRKhkzZQ5dXYll9JntvLwO5xpMZFYbVExnk6EoiwiSA0BxOkCjCXgrETtCHgTwZdChQn8at73bzDSEpKYuyEiThdkVVUXRAinWIaRPsqGZi7mvhqN2u7DqMgLgNNaXwy1sDGWvdQCr1p9IndQIZrFzHWqgO+vySBAqRKfk625bFWr+I3PYFcw4Fet+qKae7Z1sskUJ7JMPds+2WCDhQaxeRFF4mwiSAILUxl5YdLyA4mJSwpfZlw0gTGjepLRt7nPLVtGrfNTqFkw1r+95/3+eDZz9h84vnUu4hTaF/kVAaHlbNXEvoy+ui+jN73PeqhkDhgMic1d4jC1YvRJ4jznyAIQnNp7xP/bcPP8kWL9g6a1KEXrmTxFY/S5YObmJ4hJpNrM9HVdhfHBUBOHcqQmr8pJPQZy1GN2SYEUBIHcsQpA5u5ZS56jjmRngf5KJIkIctyzYSbLMvBbXXAqNyMlDCiORrbIuTkC7js9QvauhmNYNInXUymtQh1E6vWVdWeJ1D9qAY0dv2XIAj7JyFhsVixWNrHYJAkSVgsEt27x1Be7qeo2EtpmUpVlUZcrIXYWCuKUk+FL6HFSJKECVT7dVZsc9MlwUuvtBhio6xiax1E2EQQmoUJaAQX9ueDrxJ8Q8DMaOuWtTybzUZycgqaIU5sgtAUFkOnu3snaWW5bEnLYk3XEVQ4Gx/eMrCRX90VtzeZrtE7GJr4F0mO4kY/TpRkcIiljC6yl9/88axQY/FrUiBQYgT3/grpSMk5QYgIdnpNP5Pp41KotyKjt5Df3/yMNRnHcP6swUS1evsikY+8nFIMFFKPvIi7/3kSg+MDH/J83/4PW14MqT170bVnL4ZOG4rr7MWsK4P+jdz6sOPqfMdcez111RpEMvdXxkc4GLIYIxKECNZ+J/7bhG8tX32aEwyaKMQPGs2Rxx/GiGEZlLz1MttOvpazerjZ9sdvfPLcZ7z+2haOvK6fGCjuzCKwkyRJEqZp1gqXKLISuCgKcp2LYpqYnhwMJQo5Nqutm98BmAzpJpEWr+ypHiM0G6NoNetyascBtY2LmTdjO1csup8ZmSJxIgjNxelycfzJp+K0ta/fK1mWiI+343AoVFT4yS/wUlKq4vMbxMZYcLnEdi5tQTNMdhZVUVrlp2dKNF0SnUTZO3cvunP/9ILQBDqBYIkBqMGvCf7dJDD2a1aAUQpSJwib5Obm8uOPPzLisNF07X6waxMEofOyGSoDc1cT4y1nW0pfshO647E3svSrJOE3HWyr6EeBJ53+cWvISliHQ/YhSQ2PHBlmYIsvXYcYw8dIfyEer85qXZShFoTWYBl6ItdPzWJQ/L5nO08+czwvz3mE9f6TOLkV2xa5LLhcNuT4Q1jw0CkMjt/3Lau3rGZ9vswE8QmoRmc75kx3CeWh06Gvgkof4GzLFtW2d2n44HU1/wVDJ7q3rZvaZKanEn9Nl8SH39+WrdlblE1MogiC0EF488krMkBJYuwNN3LznIEkyAAqv35uJSc+iW5Z6XTLGsi4ibFcdetGyox+JInQXYCjO5Mvn8ZhGQ6Uek4N/uzlfPj6BtLOOoPTR3WAOK5ZgntPJ4mKSOskEdZPkuVAsERWsCgWrBYrmkVDt2iYpolimkhVWzFMDaL7ISmN37JYAJti0DdNp3uybe/tioTmYT+MWfc8xBl1r5cSyRLVZAShWamqyq7tO0lPTSYpqf2tPnI4LNjtClabQkmJl4pKHY/XINZrkBAvKmu0BUmSqPBqbMgpI7/MQ2ZqDOmJkdV3ak1iqFUQgsywCwRCJSaBQIlOIExSdyw0AkP/giC0c13dO0muyKd7fFdW9BhJSXRKEx5FpkqL46+iMeRUdWdI4l+kO7NRpMBKaMMEQw8GS0zQNAhfJBh6b7Ni4EKsHhSE1qLv3sx6oz+D9hOYwJnB0P4eFj/0ASdNuZDBnX7s1MaQsQNwbkgnw1X3ewYFXzzP9astVLsL2bEhH330PC6P3C3cW11nOub03d/yxKLv0QcNY4gJSMV89sBjxJ1zHscPiycSh2akYOJkr0F9Ty5m7CAkuZ0MQhvVVJUWUJq3mpXvf0FJqDCLUcS6T57kL/t0uqenEROXgL2Nf6SeKe3kNRWEzqazTfw3B6sTp10mZvyFYUGT+qjk/r6ZQmkYlkg8GbYJK1kXXs64Q7KI3edrMp0Tjv0PN1y/CfXC6a3ZuOan7+L7x/7F//TBDBlqAhLFn97HU3HnctaJw9lPJrnVSZKMLMsoiozFatlz0SxYdGtNFRRD1zG8uzE82eBIx7SngGyBfW/EtU9mEwZ/TUwwzeBOw6Gvzb0eL9DFk/YEjEN9v8B3w27T3KSw55ZqKscosoTVAsnROl0SFJzOKGRZhExaipw4gAlHNfd+noIg1Mfv97Fy+Z9ogwa1y7AJBM4TcbE2YmNsFBV7cbu9uEtVvF6dhAQbUQ4FWRbv1a1N1U0Kyry4q/z0rPDSKzWaqChbRI4xtSQRNhGEIA/gIxAqCYVLBEEQWpsEODQfPYq2kVhZxPouQ9icPgC/xY4pNdxNMU0zMJhhGJimQW5FIuWeQxkSZ5ARnY1pBEImIiwnCJHHdK/gqes+5ct+STjqm+80DfxlBWxZl4cqb2ZDqcHg1M728aUumbTTzuaMd5/l2z8qGTK2dpKkevs6lm4LfC0lDOXShcfQVcwl1+hMx5zSbSpXPDmVK1rwOVRVxTAM7HZ7o+8bPoC/d4UTCVkOTAJIkoRkahjVu5Gi20dVQW3tQ/zr7lf2hExqGJSvfIyXVz4GUiIjr/0f545q/GvXXOJdEgnR7fP4FoSOrZNN/DcXRxaHjIhia88M9nprM0pY8uA9bLd7Kc3exdbtXgbedC4ijxuik7d6M+bw/R1zENV7IJlVr/P04umMvTGLdlvIXunO5CufYfKVbd2Q+oUHHVauWMGAgQNrKprYbXYM3cA0Ap0MRVZQVT+6rmOYJoZhgFGEWV245wGbkh45QGYwVGIGn1vXdUxDR9d1dN0IBE5Mk0Ckh0CVFjkUoAluBxT8e+hnbraQR9jjSZKEHAyYWKxWrBYLdqsDh8NBVFQUTqcTm82OxWJBlpU9fVAROBEEQWhToTGC1JQoYmKs5Od7qK7WyMn1EhdnJT7Ois0qPtO2NkmS0HSTrfkVFFf66JUaTXq8E5u18wxAirCJIASpBMImgiAIkUDGJNZbzmHbf6Greyeru40gL64rhrLn1B0YxDAwDR2CfxqGFvomEBjMKPU7KLTEk2zPbpsfRhDaEb/fj9VqbaOBNBN/0S5WFe1q8JZSbDyJYlI0wDmQ2U/N4sW7HuXx8ouZf0wa4R/nJHs8fScfxfnXnsm0fu20LEeLEcdccyosKODIyRO49oabOG/WhdhsjTve6pYol2smIMK/DlzMyk2Y9iQka+RPDVqG3M6tb97e1s3YL4tiMqynRUykCEJE6mQT/81FTmX6lcfz+T1LWFuZxfDw04XpJXvZ7wTO/hLRI8/j8vO60nmGwxtiULbkJe555Xsy0+31vi6mrlKxezubd2lIqzZTbmSJLYhaUOjcfN+9d1NSUsKCSy9j8pQp2Ow2DMOoqWiiKAqKIqPpeuD6YAjFDKss0pJCz2EYRs3FNAz0YBtN0whUOwm2N3RR6oRMWiRsQu3qKYFKJgoWazC447DjcDiw2x1YrTYslsC2DCJoIgiCEJmiHBa6dXVRXu6nqNhLaamK328Q41JwuSxYRMm6VmciUVqlsmqHm/JqPz1TYohxdo5xSBE2EQThoCiKgt1uR1bEsIQgNCcT0AgMQsSX5TDIV4naYyS5Cd0wjUCwxDT1eu4lCMLB+PGH73no/nu56ZbbGDXysMgcVFPiGXX5aYztvFuB7kVOHcHsR/rhdltrJgSsh57BQx/PIK13VxJERf2DI465A5advZu//+0y/vnAfU0KnYRWKsmSjCwFVrkqFguyoiDJcs0KWEPzYxT9Aslj20XgJJJZZJNRmRDvEoNxghCZ2v/E/84dO9ixYzsTJh7Rqn1L58hzueeqN3nsxpepuPFcJnSr/epZEnoyasYM5l85hb4Reo7//LNPGTlqNMnJya37xKYf9+Z1uDc3dEOJuJQEnBF0vHVENb83ksSWLZu59pq/07t3b+bMm88RRwR+r2RFxqpqqFYrmqZjmEZNECW8mklrhE5qgiZhVU7Cq56E/0zhIZNQ0CR0fXOo9Z5T5znDwyY2uw2bLRA4sdmsWK3WWlVNIlWfrEFt3QRBEIQ2Y7HIJCTYcbosFBX5KC314fXqVFbrpCTbOlVljUii6SbbC6ooqVBJjbPTt2sclmY6r0cqETYRBOGgpKenc/xJp+BTxcZDgtBUOoFgiUGgylKwNgkGgfiIaRrYPKW4ynPRo9vnvpKC0J78+ssSTj7+GEaPGcO1193QihMDEq6egxk8MBGHtfbzSbKMYrHiTOrC4KOncuTIZLFiN0hdvYaNmYMZ7HKREPYWKcdnMCC+4ft7lq9hx8DBDGi73TvakDjmWkpTQyeBsuZyoIy6oqAEy8SHLrpFq7mtrmsYRT9hRHVFcmWK0EkjWSSd9Fg/PVIk4qKj9qosIwidwacff8T0445vtknNFtPOJ/4LCgqYOeM0xow5nGuvv4HxEya20vuMQsqkc7l9hBt3zWSDwqC5C3nm4iR69kmOuNeqrv+89SaXLriE2RfPYf6Cy1o/dNIAJWUEF8wdicg1tzxJkgj/rdm6dSsLb7yezMxMZl88l4lHTMJmNdB0G7qmB7fSMfaqatJaYZPQ84SHTPY8d2Ajnfr6HqH34+Z6j6i7VWPoOWRJRrEoWCyWwLZENitWqw27zYbFasWiKDUVV0TfSBCE9s5qtdKnX39SUlLauinNTpIkHHYLXTMUEuJt5ORWUV2tk53tIS7ORkyMBYsi3sdbkyRJGCa4q3yUVvso86j0TY8hzmnDYumYASARNhEE4aBUVlayfecuEpPTiI6JbevmCEJEMcMuEAiVmAQCJTqBMIm/nvsIghAZlv72GzNnnNZqoRMpfgRznz+WU/p2zA8eLUXfupaVjgEMbtLrplP4x1p29u2cYRNxzLW8Aw2dhA/ih6qXWCwKVqsF1RqcANCs6IaOJEmowdsbhoHpzcb0ZoPixJSaFglqaOJlf+994RMooZW8uh6Y5DHN0GRL7TLxgbLsSq0VvM3x/lp3QkWSpEBwSpaxWCyBSRS7DafDRly0FZfLSZQ9qmarIjEAJ3Q2V1x2CfHxCVx/082cMfOsyA+dNCDSJ/5/++1Xzjj91FYKnahsXLaVbqOycMYlsCePKxPbJ4uGR2/C7t9CLTxQnupqHv/3oyx+/rnWC51ITrqOGkC/NAdK+D9RsPqYxe4koWcWE08/gmHpIo7baur5ddm2bRu33rKQXpmZzLl4LpOmTAGkmi1sTNPEpHXDJqHn2RMwMcOLq9RsowOhYiMtF3it1TdiT9hECvbHAn2zQJ/TYglUNLEEK+uFh00EQRDaM5vNzpBhI3DaOu7YhyRJuFxWevaIobTUT4nbS1Gxn2qPRnycDZdTEe/nrSz0eue5PZRXq2QkOumZGkO0o+NFMzreTyQIQqsqKytj1YrljDhstAibCEIdHsBHIFQSCpcIgtD+tFboxD71BE5p9kftBLRNfHDPGzhPzSTe1ph/FxO1bAufvbSLqWe2WOsi2gEfc/5tvPtyPqfNObylm9Rh1Q2dnHLyyfusdBIIZQRLm1sCq0xtNh1D1zFNM1D5RJbRZBkjbJWsaWrsqY/WOkITOKH/DElHx0BGR2bPimJJkpBMUEwFBQUZBUWqvVq2uVfwBqrEBEIkFqsVq8XAbpdxRFmIipKw261YrcGJFElMpAid1+ZNG5k3+wIevO+eyA2ddLCJ/9YJnejsXLYW+6FZ9GzKvIpRypplO0g5LCtiqp+0XuhEJnbC+Tx07rFNe+2ENrF92zZuuWUhmZmZzJ03n6nTjtzzXlanuklrqltZJXRdeH8lpEUXNkhSzTY6obBvqM8ZqHJiwWIJBE9EyEQQhI7G6/Hw+29L6Ne3D/369Wvr5rQom00hNTUKh0PGXeqnokJFVX34oi3ExFiwdeDATaSSJAmPX2drXgUVHpWeKS66JLraulnNSoRNBEEQBKGFqATCJoIgdAytXelkn8TEfx06ed+9yYPfNfHuttFMbdb2dCQqhb9/y+v/epOPbWdy2py2a8nsC2dFfPWv3JycBm8TCp08dP89/O3Kv3PmWWfXhE5qhSTkwIpSq9WCYdgwdJ3QklhFUdBUBU2rUx6+DSZRwkvEB0rGG+i6UVPhxDBqR21DkxeB6iZKraomzfZ+WmciRakJm1ixO+zY7XZsNjtWqw2LxYrFoiC1QOhFENqbyA2ddNyJ/5YOnWgrP+OxR1wcOyQOW2P+KU2dynXf8Z/lhzC52VrTfFo+dGJj3Kxjm/Hxmm7b1q3ccvNNBCpfhK6VQv93Ol6vt8HbbNu2jYU33UDv3r2Zv+Ayjj5mOoost1nYBA6uglxz2VfYJPB1oO8Z6qOFLq3VNkEQhJamGzplpW6qq6vbuimtJibGhtNppbTUR1Gxl5JSlepqnYQEK1FRCooSCf38zsUECsu8lFWrFJZ76ZMeg9Nu7RDnWhE2EQRBEARBEDqMksJc7nz5HpLi6y+gbjRQYujrr79s8DnqC520jsiZ+Bc6OM3Nuk8+578vf863fxTjB6yT2rZJX3/1JZrWulU7WlJOTg433nAdq1ev4r77H6y1elQOToiEgiaBHIkZGPhXZKx+FVVT0YNhk1CgI3wiozUnVMLLxJtmKGSyZ1udEEkKlm0PVmapO9HRHGptRyRJgZW6SmC1rtVixWa3YbOFAieBUvGhyRURNBGEgMgLnRz4xL+67hPe2T2Zs45q3pWCuq7jLinBbrfj9Xio9niorq7CGeXE4YjCarNiUSw126DVfSvJzd1/GLFu6GTc+AnN1PACfn70UX5u4t0tEw856CZUVVVRXVXVpNcN9h/krC90kpSUtM/bt4SWOuZCTEz8/rqb7woHYvv27fz668+MGz+e1NTUtm5ORKjpIxEInoQHbcP7oqJPJAiC0P5JkoTFIpGcHEVCgp0dOyvw+Qxy8324nApJiTZsNlHFqrWZgE/V2V5QhbvST78uscRH23DaI7864/6IsIkgCIIgCILQYVRXlfPVZ++3ynOFQie33XEn8xdc2nJPFIET/0LHpLu38uPrH/HOG/9j+W5vRFUSufKqq1Eskf3hOycnm1dffvGAbjtl6lSuvuY6Dj30sFrXhwb7gWDgZM/PLEsysqJgtahouoauG5hh1UNM2jZsEvo60B4T02SvyiZ1t81p7lWzkiQFJlAIW7UrS1gsFiyKBasttC1R4E+LUrtUvBhoEzoiTdPweDz1fq+yomKf94u80Ml++IpZ+d67PPfol1ivmMhZzfzwbncJ/7j9tmZ+1L2Fh07+fu11jBs3vsWfs6W99+47/PjD9y36HLVCJ7PnMO+S+cQnJLToc7b0MRfSpUsGD/zz/4iKiiIqKgq7zYHNZg1WnlCQZQmHs2OVYfdUVu7ze6efdnKD95dlmdNOn8HlV/yNnj17Aa3bL4pkdbfsqRvSrW9rH0EQBKH9UxSZnj1iKK9QKSnxUVml4fN5SUy04nJasFgitI/fwZVVq/y1rZjUOAd902OJi7Yjt9NzsAibCIJwUGJiYsgaMJCY2Li2boogCIIg4IqJZ8bZF5G6j70v9QbGGb/56ks2b9p4QM81/djjuPra6xg6dFiLDGBG8sR/pJEcKQyZOJCusVaUA/5cZuJ372T5by3ZsvbAoHzDb3z04sd88OFKsqsi80i75rrrccVEdn8zJ7vhsMmRRx/DTQtvZUBW/33epmb7F0XBNE0CVc8lFCWwHYyuaTVhE8MwarbPCQ99tDazbhvMQPSlbnvCJzLCV9A2p1qTJrKMHAybyLKC1RoInVisge1z5LBtfcTEitBRvf/eO1x8wXlNvn/d0Mnxxx0XMaETrXAT373+Ee+88ROr8vyAhTFt3ahmoFgsKHIH2zOoFciSjGJRWvT4bO1jLioqiqFDhxEdHU10dDRRUU7sdjtKWFgy0vtHjVVZ5t7n90aPGcPS3+rvvMuyzOkzzuCKv11FZmYmIEIm+1M3WCL6QYIgCB2bosgkxNuJciiUlfspLPRSVKxSVaUTH2/FGSXiAm1BNyDX7cHjN0iPj6JXWgy2dhj+EUePIAgHJTY2lsFDh+FTG9iXQBAEQRBaQUJSGlde/w9GDs6o9/t+bf8Djl9/9SWnn3z8fm8THjJpfu1j4j+yyHQ95xr+fdsQbI2+r58VD75Cbgu0KvLp5C35mNee+YQvf8qhUq/zbclO2sgJnHDWNCYNqeCDN6vapJUdRShkMnJ0YEpqfxMpocF+RQlMNBqGHAybKCiKhmm1YphGTdgkPOhBBEyq7BU8CdMqq2al2pVNZFlCkRWkYIAnfIIuvKqJIAj753aXkJebg8/nIyqq/u0KW4dO2dpf+ODFT/jg49XkVbf8+15CQiIP/d/D2O12nE4nTpcLl8uF0xnYDsZmtaJYLMhysKIStd9Tfv99GRdfdEGDzzNu/ASuue56xo4dF9yS7GDHWSRs6f057JB0YuwyB57H1Sjfuo4VB/nsAKedPoMZZ8xs0usGMPuiWfzx++/7fQ6XK5o5c+cxb/4CEhISMAwDXa/bsTkYrX/MCQdOlmVmzJjJ3666irws/pAAACAASURBVMzM3rX6HuL83jDxGgmC0BlERTmZctQxxEc727opbc7hsGCzKbicVvLyq6iq1vF4dZKT7ES7LMiyODe0hFrjNjV/mui6js9TTWmJxrbtGhW9UzlsYGYbtrRpRNhEEISDUlBQwNJly8gaNIy09C5t3RxBEARBaDEtGzIRE/9NJxOfHE/T1v/a6NE7nYJmblH7oOLesokN64tqH2/2JAZNP4rTLzqeaSMSCGziYnDJVd62aWY7VzdkcqDCAyd7tpwxUBQ5uFWNWRM0idSwSUNaK2yy50+QZaUmuBP+fTGYJnQWvy9fXevvI0cMafA+ScnJXPn3a5h7yaU4nU6qK8tbqnn7Z1Sy9asvePulz/j6lzxac75fUZRgQMKBy+XCFawy4XK5iIpyYrPZghWU6q+UlJqatt/HD4VMQtvmNFs1BrkLJz/yAFeNacI2dL4NPPfQ9oNuwsG8brD/1y48ZJKYmAg0cyWLNjzmhIbVDZmEiHO6IAiCUB/TaLtKoJFGliWio61kRsVSVOylrMxPfoGPUrtKQnxgax3lwMsGC3WExmoMQ6/Z+ljXNTRVRVV96LqO3+tB17W97uvzxbdBiw+eCJsIgnBQVFWlorwcTfW3dVMEQRAEoUW0bMgkREz8HwxJanqJyYRTjmZKp/xU5GDgrGt55sxiVn/yGe++9jU/bIrn+Puu59LjM3DUuq2MK06sAGqMpoZMwoVCEKFQRGCwQqkJmIRvWQNgis22APasjK9TRaVuuESETITOJjOzN/36Z9W6LjklhaLCwnpvXzdk0ma0An5/+R1ef+V7ft9WxV55XEcKw044mhNPG0tW2ed82EZZmKaoGzJpdnIsiclN7CPZe9Cr567mbU8zqS9k0qw68DHXEewrZLK/CUQxuVhbff0f0ScSBKEj83iq+f6bLxk0aBDDhw9v6+ZEDEWRSUt14nJacJf6KCtTKSr24/cZxMRYsNvFto4NMQwDQ9fQNBXDMFD9PnRNwzBNdM2Pruvouoau7R0s6Ug65bCqIAgRQvfhw444ZwmCIAiRqHVCJiFi4r/pTDRVbfrdLdbO/aHInsSQ085jyGlnUrLiZz545XEuW+xkxEnHcNKph9IzVgajjJ8/38a440a0dWsjXnOETOpTNxixv61qhID6tuxplW18BKGdi5iQSYhayo6Vm9mSU3vS35bWn0lnnsjM8yYwKDVYucOYxcXVjnofJpK0eMikhoTc5PGWKCbNnIQSQVvGt3jIJKQDHnMdxQknnMS/Hn6kVsgE2LvSW53vlVcb+DUzEgrARYS6faBA/yhQHM5ulYmJElsMCoIgdCYulxWHw0JUlI/iYh/uMpUqj058nJWY6MCWh52daZpomorq92MYOn6fB03TMPRA9RLd0DFNo8OHSvalU4+rCoLQlgxyXp7Nzcb9PH9xd1pu/MLPpk8f54XXP+X3bF9wvadE1JB5PLLoXDJrBl4M3Mvf462PvuCbHzZQRgy9xx3JKeddzvT+4q1SEAShs5AkieNPPIkbbrqFfn37tH4DxMR/E5jkbN6Fh55Et3VT2jUricMncdHwSZxftIUf3vyY/zvzBdSeAxmUUcYfOSMZd1xbtzGydcnI4J33P272xw0f7JflQK95XxMqQm31BUvE5Ikg1C/iQiYhUf05fdH/ceJN6/n2tY95/+1f2JZ0FDc8diFTe9WZ5JedxERwZ6D1QiZBpo52EHlcq70J2++0gFYLmYR0oGOuo7l4ztxafw/vDxmGUfO1aZr4VYMdhTrbCnSqfa3e1HYtzinTN8NGz1QrFrGNgiAIQocnSRIWi0RSooP4ODs5udVUVqoUFfnweHQSE6xYrR0ziBjoS5iBbZYI9CF0TcM0DLxeD7qmoukqPq8HzFBwVSz6qUvMoAqC0Da0lbz4zHt8RH9WX3A7w5rx3ci/5nkW7ziV+cclAjb6Hfd37hqRyZXTz+GVzcGRlqWrmNulHx8sHI0LAJmEEaczf8QxDCgZxaWVV/OfO0+mfe6QJgiCIDTVlKnTmHbkUQBUV7ZlTWwx8X/gDMq/+Yj31o3m/IG2tm5Mh2BJ7sO0y69k2oJyNn72Ca8+/hM7Ug9r62ZFvNYYeKlvJWq4zj7gsa9/g444KCYIzSViQyZ12NIGMP3qAUy/3M26zz7n3YU38Z+YwRx51jFMn9SdaBmM4mX8sH4wU8ZH1s+RlpbGO+9/2HohkxAznx2bfdAvsl6Pxjj7nHP5578WtU7IpI72fMx1BoZh1ARLDMNA1/XAJBAm1T6DXzaaeMSO301SVm3wx2YvW/P8TBriwmYV/ShBEITOIBQ66d7NRXm5n6JiLxWVGtUejcQEGzHRVpR2HEI0DB1D1zFME0PXglvg6Giahur3ohs6fq8Xw6i7iaLQEBE2EQThoKSlpXHMsceD0rjJnYovn+CVVSoqL/HcN9fw6DHNtBTEv47nrr2VL04+jnlQUzFFyTiWmUd25fXN2wNlUM0Klj1wATcO/Z5HTkwLq6wSzZDB/cksG0hM87RIEARBaEdCVQMiiZj4b5hZtYZnL74X/b5LOWdSKiJy0kyUWPqfcDZ3Th3KM4vy27o1AvWHSTp7wCRc+GtR37ZDInQiCLXdevudzDzrnIgOmezFlsDAk8/m5pNn4l79Mx++/BSX3a/S9dAs0kqWkz/lHqa0dRvr6N6jB9179Gj9JzYqWPLS52ydehq97a3/9M3hqKOPaesmtMtjriMLndMNwwi76GiajmEYVPsM/tim4FHFOf9guSsNflhdJQIngiC0e4qskJCYiMvlauumtAuSJBEXZ8fhsFBe7qeg0ENRsR+v18DlUoh2WSL6s3UokKr6fRiGjq5paJqKrmnouhoIqWoauq6J8ZRmEnmj6YIgtCuGYeDz+RqX9jN28p+n/kuOARi7ef/Zt8k1mqM1pfx054Xc9UMp9Z4i5AymX3giXUJb56ibeeWy2Ty/vvZSB0VRkBWRxRMEQRAiTGji/51bODsrMsqaRwIpPo1e3RNxlvzFsxcuYOZpD/LEiz+zsUisRGg2ziHMWzitrVvR6YVW74ZW8IpL4y7hr58YUBKEgAtnz2lfQZNaFBKGTOSCB+9h8ZvzmZZezJ+/ZOMVv95hDKp+fZlrF7zFspyD2E9HCBLHXKTQdT1w0TRUVcXr9eHzefF6vWzIMUTQpBm5Kw02ZIt9iARBaN8cUVEcMeVI+vbt29ZNaVfsdoXkZAc9ukcHgicVGgWFfopL/Oh6s0zoHTTDMPD7fVRVllFeVkJhfjb5OTsoyNlJUUEOxYW5uIsLKHMXUVlRiqe6Cp/Xg6apYlygGYnZVEEQDkphYSE//vgjIw4bTdfuPQ/oPv7lz/Pyz57g30zKvn6GV9adz/WDG3pL8pK3ehmrdpShJA/gkJF9SQgFR4xiltw3k1mL/qSafU3AyaSf8gRPxWzjzH+vxguYRV9y2+w7GPTZvYyPO4DGGxXs+Ot31ufrxGcOYfjAdBwN3wvwkbfyZ9b6+jBuVI9936dqJ3/+tppiaw+GjxlCqi30tNv4c+kaiq29OPTwIaSIJduCIAidl3MI8xYOaetWRAz71Hm8OHUeoON1F5OfXURBbgkV5QYkKw3eXxAiXWgAJBQyCX0duuiGye5ig/xSHb/Wli2NXBISSHu+tlokkuMUMtOs2K1iDY4gtHdKQm+mXXk94w5/mcW7xSRzgIwrLZ3k+EKKvnuFv0/7guHHTuGoEyYyZVIv4kQX6aCIY65thG+Zo+samqbj9/vw+1U0TcXjMyiqbP0tlzq6rXkqg3rYUWRxrAuC0D75/T7WblhL964ZdO3ata2b065IkkR0tBWXy0qJ20dJsZcSt4rHoxEXZ8PltCDLzV9F1DRNzPAt80wDXVWD4RIPfp8PXddQ/b6a2wttR4RNBEFoZaV89czn9L/tJqL+cRe/eAD/n7z6zA9c9sg09lXIrHLl89yw4Da+cZ7KeX3/4tmXl6H1PZ07XnqOuUPzeXvByVz56nqqAFD56cYsMm4G2+i72PnZlXseSEpg8p0vc9uqI7n5+xJMoHr5v5j3t+F88cKZdNvnWLNByZJ/ccWl9/KtOZm55w5i68KzWBp9An//5/9xyeFJyICR+wNPL7yGBz7aiNcEpdtc3vxpDjuuPIMb3tpApdSVWf9dwyOH/MkzN1zFvR9vwm+C0u0i/u8WC89f9wRLCzRAInrQxTz53oP0+e5qFtz0CivcOiARN/IGXvvwLibGN9M/iSAIgiB0CAqOhFR6JqTSsxFZHO/GreT36k1PEeQUIlB4RY7Q5AqmiUngui15BlvyQRWFfBqw98BTTonG6u0+enexMqK3AzmCywALgnBgosbM4rIxbd2KSGFj4t1PMfFu0D0VFOUUUpBXRGFhESX+XsRFtXX7OgZxzLWe8L6Qoeuoqoaq+vF5ffj8flTVT36FAxNxPm9uPtUkt0SlW7L4wCQIQvukqirbtmwmym4TYZMmkCQJSYLkJAfRLgsFhR4qKzXyC3zExOgkxFmx25uWZA6c3wPndsM00TUVXdcxDQPV70NT/ei6jqr6RKAkgoklPIIgtCpjxxssXjOFOfPmc9HRicGPgAY7//skH+bXX3pL3/kal51+Ga+uH8zfFz/KLf+8miPjoXLTf1l4xcOsMbty9N0f8dCp8cHHs3L4rUv4a/UGlr02Z+8HtA9lwXNPcGbPUN5OZ/d/L+eSRcvx7qPd2vrHuWjmQj7e7OSku1/izhvu5pmHz8K+/DVuOnUGi1YEEpRyl0nMu3EGvf0ePB4P1Z4SfrpjNg/8rxi/CRhFZO+ugrSJzLnqBLoFb1e5/RXufz2WK/7zA89f0A8Fk8q1i7nm1KO45rvh3P35d9x/XAoSJmW/L+LBN3YSGYXKBEEQBKE90yn43x9s8Dd8S0FoTXUDJlpwj2FN0/D5/Xi9PtbtUlmfI4ImB8MwYXOOyq/rPRhi4EoQhA5KiYohrU9vho4fzdRTRpJ5QEETnR1rd+xzjEQQ2kJoazxN1wNBE58fr8+Hx1NNVVUV1T4xUtZSPD7RTxIEQRDA4bDQNcNFWloUdrtMRYVGQaEPd6kfVd3/edjQdXRNxVNdRWVFGeWlxRQX5lJcmEdRQS7FBTkU5edQXJBDSVEeFeVuPJ4q/H6vCJpEOFHZRBCEVuTnz+dfQT3jZUY6Uhky+3S6ffQsuwww3Z/z/KsbmHnNQGpnICv59oFb+TBbxzJsPGO7yCCPZMwhLv77bSVaUQHFup3BqenE2vasXrC4kknr0mWfiTo543T+uXglG066l7+qALOUn+6axa1Dv+Gmujc2Cnn3rnv4wW2CNYvhhwTqrzhHHMYAK+wsW8Kiu9/gnLcuJF0GyeHAHmyKkf8hXzk/5Oc1GXx3x9U8tWEwlxyfjAyYUVE12+lIcdO59bnbOSkJvAVjSXh5E0WmQbExhdefupxRdoNeRwzk1k8LUfGzafU6VHpgP8h/EUEQBEHoUHyl7Fi9he3Z5VT79AYmj03U8hx+ei2bKWe2WgsF4YAFSsQHVvhoYYETXTfIcUtsLRLL0pvL7iKNFVt9HNLnwDbIFARB6PCMYv78fgOTB/TEIZYqCm0sPIRrGIE+kapq+P0+fD4vXm/gomqxYmltC9ENMcknCIIgBCiKTGKCnehoK0VFXtxuHz6fH49HJzEhUOXENAw0TcXv86LpGj5PNZqmAmAY+p6tgQ0RFO0IOl3YxPBXUuZ2U1paRmlZBdWqjinF02fkELqISnCC0Gh2u53klBTs9gMYmHV/ynNf9GbWp31RANeUuZwz5AUeWKkBPv588Rl+uexhJoQ/VPV3vPvJbgxAiYkjXgbknlz4xLtY3/4L5xEXMKGJiYuYsbfy3H3LmX7lpxSagG8dz82fT+aFOsSE3bDsCz74ujhQfFuJJzEh+MnVHkO0HfCZlP3wId+WXsg5dbeGNYdw8kWHE2NTOOne9zhpH22RHIkkRQe/ttuwSYAJUmwCicF3aofDGry1QXVFJWIRqyAIgiAEGW7+ePJJHn7mN7aVNfIMaRvNlJZplSA0SXhFE13X0DQdv99XUy5eVXV2uePaupkdztY8P4N72LFZI6/8/pYNa9u6CR1an6xBbd0EQWhxWlkum9bsJK/Ig0836ttdbA9Do2L7b7y39jAmt1oLBWHfaiakTBNdN4L9IxW/34/P5wtcvD50SRdhE0EQBEFoBZIkYbcpdM1wkZBgIzu7iqpqHY9Hw0o2hgiRdCrtP2ziy+aXt1/gxbe/RTr7TZ44K3XvPmXl+8wdMZu3siup8qnUDeIqGRfz4Zbn6HKgT/nTHZx25xaGnXouF513NP1jRC9W6LySk5M5YvJUfA2UyAKdba8/ydKBZ7Mgfw3r8gEsHH7UcGwr/8AP6Fvf5NkPFzJuZkrN77G+ew0bSwK/tKa3Gk/w99fWYwoXXXOwU0MW+s5+lsdXTOHc5zeiAkbuh9z+r2gOu33PrbStG9jiCf7F7tizqkeWkENj0d5tbNmuUZMMCZIS+9E/o2n71dUlhe0jrxsiaiIIgiAIAR5W/usf3PDYZjwN31gIo21dx/ro/gxJPcC+iqHi16zYREi/xYQHTQxdrwmY+Lw+fH4/quqntFrBp1sbfjChUXQDtuX7yeomagcKgtBxGEWreeMfz/D651spVRt3X8vEw1qmUYLQCOFBE7Nme0E9WNlExe/z4/f58Pt96BYdRBepRZhm4N8ifGxSEAShvbDb7Iw4dCRpKUlt3ZQOyRllpWfPGIqKvJSWVomgSSfUflMSej5LnljA5L59GX/+rTz72WqWr91AfdutG/4MJs46i7FdLexdSVsi6rDxjDngark6O9auYs2S13ng0uMYnHkoZ931EZurD+qnEYR2q7S0lD9/X0apu2T/N/Qt48W33AyM+5NXnn2a5599mueffZZPKwZwSHrwrcgs4otnX2FbWI7C9PvRgl/ru7awtZGDIw2SUznmgZe4cWwcoY9Lfp+31iIfQ9drQmqSYkEJvXMaBnoDVSQlm4Mo8TlMEARBOADa1nWsLmhEmNBQ8dfX+e1ktA0f8tizImjSFNryd7hmxv28vbySAxkKMNxrePXym7jx7i9ZVyoGD1pKoES8gabrgaCJz4/X58Pjqaaqqooyj+hctpTichHoFgShA6lex+KL/8ETHzU+aCIIkcY0TQwz0EfSNQ1NVdE0FVVTUTUNVdNEKf4WtSf0IwiC0N5YrFZ6ZvYmMbFuWXqhudisCvHxNhSl/cYOhKZrl5VNtB0fcvMF83n4x1w0JYlDL7ybu29dwPTeznpvLyeOZtZtozltoJseZ72Ju1a/08LQ8eOJP+BnV+g/7x02n/wbrz50K3c8/jVv3X4Kn799Pg+98hhzh0cf3A8nCO1MVVUV27dtJT4xmfiEfZ+s3Z8+xXeDbuWjR06kdtFvjT/jVnDUQ6vRAM+vi1m89DLuGRtYUWjJ6Em6HdDALF7Cd8u8HDtxH+mwpo67O0fy98WLWDltDh/k7D3AbOnZm+422OABdH3PZIzpw+cLfm3tRo/u7fItVRAEQYgQ2vJ3uGaRxJxHr+T0EdENpsIN9xpe/X/27ju+ifqP4/jr7jI6aUuhhTJKmQXZGxkynCiKW9wKKg5U/InKEPfGhaioqLgVt4DiAmXJBtmj7E0ZpSNNk9zd748kbVoKtLUjbT9PHnnQJpfk2/Sa3H2/7+/nO/orNjfsx033nE3L6Op4Qqez4+eFbMwBJTyeVl2bkxgfSWiIJa/62EkZuI7vY+Vf1Xng3iRn1yJev24fm8aP4oGrG1H4GZWXGtueW18LZco1Y7hr8L88NPV+Lmgk00dLi78D3xs20fF4PL5Zuznk5DhxOr0XlyeyMk8bCWoujwygCBF8dHYt30J4+2Rii1qIK8eNbrdW8wIHOtunvs/n/0oct/hknwtG3uMkMA0DwzTQfcdKuv+i6xjlFoTwcGDWSD77fRNOZxY52Q5ynA7cHh1rx+cZ/8gVhJdTS4QQQpyeIyuLubN/pVWrVrRu3bqim1NlqaoiFbCqqUo3MupY/RbXXnQ/P+32oMb14ZEPPuHJCxsW6QexWCwn9slZkujesxHFXeTCEt+NmyfMYvDVb3H7dQ/xzZqPGd5vE9um/cgzZxeylI8Q1Zm+na/eX0r7EZM5cXV5C+2uv45OE0ezOAfQN/P1ez/zYI9LiQGI7sfZ3SKYNTsT9G188+bXjOx5A3V9f2RG6i72hjakQQRoWt47QWFJe/+JaWG0xOt5fcq/pFz2Guuc+W9Ta5/HwJ6R/PFHBqYznfRsIASMY8fI8CVPwntcQL/CqrCZ5imXQhZCCCHyyMB/8bnZsWU/atIAHp16N+ckFnd9F53Nb3zB9jJpW+VhZu3kl0ceJmXlHTw2vj9Jp9rxwppx+ZDWfDb6b14Z1YTkLy4jqdKdVQanwDLxum6g6x48Hjcul4ucnBzvxZmDBx1kKSMhRLXhZv07j/GBeh2Pv3ARraJOG8fl+LJveGFSCvUGX81NVzanRnXspPPsZvbMLeSgEFq3CW3a1ad2dCg2q3r6eTqmm8yd61lSbccKZJ8LNoHHSP7qJoZheIMnAV9Tbj1wKuHJF9Nl++vMnLMtoNK6hbrJHQktp1aUJ6loIoSozExMdF1H16WSpRBloVJ1C+rbPuImf9CkznlM+Plr7u9Q1EoiBgd37s4dGPZTo7vQq0NJe+pUorvcwxd/JBB1/nW8v2ERL155KaG//Mr47lLhRAgvg6O/PsfbC8K55vnC33K0xhdyTutHWbzcA5gc/Ok1pq4fxMhWFlAbMmT0cD5cMIF1OSZHpv+Pm8aG8tI9fYjZM53X39zJha8/SQNU4uJroZKKjsHu1UvZunQ/789pwfMP9QPS2b1rCzt3HsEgodBAWEzfp5nyxGoGPjI3/w1qA4aMHcHHC59lVc5m1q7LgV52nOvXs1UHwjty57ibaOhfDcjhwOk7BzNzHDhOcj5m5uTgzv06m2z/fVwu3P77uJy5j+XIzsm9r9uZjRwaiSrD8JCWmo6tZgxh/vSn4cDhCiOsyMvcFYeHrIwcQiLDix02FaI8yMB/cbjJyg6n/0O3lSBoAqBRJ6kOB6rtYEoerVU7Ele+zfAr1nDPhGEManWy+ZgqtlA7FsCxYhYzVg1iROfqFnIqfYGDKKZhoOs6Ho/uq2zixpXjwpWTg8uVg2GRo8CyYvpKxMtsLCGCjJnD3lnvcd+2rdw3cTgXJZ9qKFclpucQHgv/lHuGPML8hXfz8ksDqF/dQnruXezYpVBv8EgmPNefhsUd/dZ38dlrG8ukaZWC7HNBoeCyLflCJ0bgxRs4Kb/ZXiqRjc6h57lrWDR3I/v9h2ZqPRJb1K+Sk1BNkGMkIYQQQhSq8hz7OJfx7HUj+Ha3G+wtuevjz7i3yEETABerV2/Ek+86BXvHXpz5H+PGWsPLmPT1s/SPUTHS/uHp6+/nx0OyRqQQGIdY8MYtXDJ0KjtyVvPh/ffw3FuzvAENn8x1M5k68Q1+3RZwpeMfJtxwAy/N2o4ORPR8gk/evYMONTUwj7H49SH0ad6U8x/byFlPjKN/DICNDreN5oomIYDO9o+upO9da+l1XQ9Sfn2bF++9hqd/PcScJy/jzqfe5Kd/j3HiX6mdVnd/yGvXNj6h9GlYt/F88sFIzozbzWf/u4OX3nyW+8Z8wZG6fRn50deM6e4dkDEOzOP9CV+zwfdmYx75hYmj32Xh/vzPZhycx5SXv2Vz7nZ/8M5z09myZSYvvfU7R3wnyJ4NX/Py23+xafF7PPXRstxwimvxhzz19VoKFGERolIxM7fzz7fv8Ppr7zBs5L3cPeQCLho8jJe+XcLGmY/y3HRHiR7X2D+XKf+7goH9+3BOvz6ce/44ZvuzWs7lTLwwiYbxtTnjktdZ4zrlQwlRYfIG/l9n+vqsU2xZcODffYptqyIr9tCGtGx3qkTOqdW46Gz6SJ1rlOh2jPj4IS5UF/Di5ffz8KuL2FnYrqcf5M/pa8kG0A+xbVPJ3qtF4QJn7OoeDx63G4/Hjdvjxu3x4PZ4vIMpomyYJw5sCSGChYlj8588f9XDvPDdLk63OExo24u4uBvs+XEyz07dVaA/sBrIcZAd0Ys7nyhB0ARAi6N+Aztq5ek5LgOyz4lTM9NTyQo4ZFDC2tI4SVJGQoiiczgcvP7qhBMuM6f/BFDobe9OfkvOV4QQQaWSzHvMYeWLd/HC4gxMxUrynW/yzDk1i5eU8Wxi2cqjBQaXLbQ6sye1SuHEyX7GvUx+YiZd7v+TtG0fcd/oi+n13sXEVuuTMlEdxMTE0LlrNyKjCllDRo2j54iPmDfio5PeP+KMC7n5jAu5eeRbp3gWG02unMTsC/7H8nnL2eEIoW6rbnRvWTvfm5iWOIR3F/Vg2Jyl7LUk0a1fZxLsQL07eei8O3loYhF+IDWBwa9+S9KeuAIVDzQaXvwiv5z3AGv/WczGgzm0enk+z/ZoTe2A80i1Tm9uf38lt79/mqeJ783wj1YzvJCX5tGZu3j0hGv7MmX5HUwpwo8gRGVgZm7m5ykfs5SuXH/7IO689y4AnDum88wtF9F9cRbnTh5fosdW6/bhlrsX81X7MSzxAKFxpPrybJ6UmXwz7wAeYP+cafy6/R7atAj8a3ex/sN32XXJPZxf8z/9iEL8J0p0O0a8cg6xQ1/ixcvXMv/2odx1e3cSC4YiChv473zionVVl0bdBlEcdUpHS2lQa3fhnk/GE3nX83z4+tP882E9Op7fm17dGtOgQQz29J388/k3TJud7ps4qmGzS42o0uRf9tE0DAzTQDe8pX51j8d70XUM6VgUQlRbGk3PrM/aR0dx56KhjB13Ls1qnGRT1UZoiAZks/aL31h/8zDaVqcxYKuNkBbNaRVZ0gcI4ayrzirNFlVSss8Fg3wV4HzBUPzfY+ZW3TDh9MtElRqdtN1byQwYbNAaZPMJ0AAAIABJREFUd6KR/M6FEMUQFhbG33Nm8+cfvxd6u8fjYfzY0fmuu+fekVJlSAgRVCpF2ETf8SFjXl1Olglq3GAeHd2H4p4rGUeXsHRzgUy5lkDXXs1L6UXQaHr709zxzlxeXOdm16fjeGnYuTzfo0zq/wsRNMLCwmiY2Igcd9nPsFQjkuhyQRJdTrVReCO6XtTovz1RRDLtkk9ym70OrfteQuv/9gxCVHM6e+bPYMkhndg+HUiKUNA93oGzkEaDeGLaVI73H8IeV8nLjmi1axNTSODTknwlwy79lvE/HyDhkuEMbpp/kNS18W0efvxnBp1/F5WpAJyommTgvyistDgzip8XHMZoHF+iv1rnpm0cTGpMiVbhqWJMQI1pzS0fPEv8uOd45dvdLJ32JUunneQOIc3p0KUqrkpfMfKVhvdVNzEMA0PXc782DQMkbFKmpES8EMFMIarnMMZdFcPD901i+OLFXDv2FoacW5+CNc703fP4Y7G3Fqi+dxfbMqBtIXNkqixrHHVj0siRj4z/SPa5YOQPnPiXv6sYTnZv2xKwco+F+OadiZBuBCFEMT0y9tGThk0KCgkJ4b6R/yvjFlU94eERXHL5VYTZqlufmRDloxKETZwsnPgqfxw3AAvNbriPy+OKf9TmXr6E1QXOsJTIzvTqbPc9zU7mfPwen/68gNXbD5GtRtGg7QCuu/8Bru0QU7SOa3tX7rzzLN4c8QeZrnVMeWka939zI3XkIFNUYXv37mXu3Lm079yNevUbVnRzhBCVgXGYlK2HMTBJ27WNI54GRAfcrNY+n0fuG8D/3G4MShr5UAqf0WRpyY0f/cuNhd2W9jfPDB3P3LRuDCrRcwpRumTgv2hCep1Piwc/5psOd3NV6+Iup6Ozd/YiUm6QsAked+5yfYQ2ZOBLL9Go3WSeffFvtmcW1olvp+mN1zIoUTprSkPgQEm+0IkReDFkCR0hhEAhtv9QXp0Swbi7v+CD25fxdeM2nHVRN9q3TKBunJ3Mzcv48e2fWHjM996qWbFVgh7QUmVrSoeYP1i+36Bh/ZKcUbnZtfEA8ckNsJd64yob2edEITwb2bXdkRc2UWuTmJzkrZLs2sfOVfPZsTcVt70eiR3PoVkdWbdTCFG4rt16MODsc4oUOBl2+53ExceXQ6uqFo/Hw4F9+4mLjSE6Ovr0dxBCFEvwH/amzWDyZyl4TMDahqtv6FaCkxwPW5au5JAeeJ2CrV0vekZC2tJJDL9xNNM2ZhLYjbpu1T/8+u1PLJn2G68NLMpMSZUGV17PgHGz+THN4Ogv7/JJynWMai4dsKIakBmWQoiiMl14fCOa7h2/8ckX0O6s7vRJ8I/0qtQZeAMDl5/q81Pn2JbFLN/upk7rLrROKO4Ac37Gkbm8cO01TFzpAOt/eighSocM/BedVo/Bo89i0ogxPNi8J33PbEbD+tFERYZgOdUBvOkmfetSPv56O71uKLfWBi1jxzY2pUMdf7+LGkGrGx9kSt9+/PDedGZMX8n2NO8JlVajAWfeOoz/jWiDdJsLIYQoVyaASlS3Ibz0RW0m3DmZX1JWMWPiKmac5C72dm1oG1GObQwKIXQd0pinXpxJ6+cH0azYedzDLP5tA2c3b4C9uk+ik31OFMJIW8Pu1IDBhpA2JDWxcHz163wx+R02HQ6o1PpFE7rd9SFX9UiQ+qlCiEIVpbqJVDUpuZwcJ8uXLKJVq1YSNhGiDAR92OTIjC/4+bB39pY1eSCDzihJk4+zdNlG8i+iY6HpmT2w/zWGCy5/gUVphc8QM7PW8PaIx7mw99ucV4S1e9Ra5zOoZzg/zczAzFnCtK82MPLR1sH/QgshhBDlRYujXkIoHMoCdNI2/MIlD9zDwOFjGX3vlbSOUVETLuWGBACdPX9N4qmxz/LTxmxMFKIGP8sTYR/x8NSVpOlASAP6jXyXd8eezamKnxn75zLlyUd4/uu1OExQwgYxadNnDD74JfdcNpzPN2V5N3TPZWzraMZjo8vjS5g+onHZvyZCFCAD/8WjxnXl3qkNWPTlz/zx3Vf8tPcYx9OdOF3GKUpre8g+loFD7Uqvcm1t8Ag57w7e/qgPG9ZsZfP67XwzagqecbcwICC0FNKwE9c81YlrHssided+DqRbqNOiIbXDpKu8LPnLw+OvcoKJSV7JeFnkRQhRXXncuXFcQpqdzZhvG9By/OtM/mkXjsI+8kOSuPz+c6lfDfO4lmYXcdfAyTx+9VO0vKQXnds2oG58DSJCLaf8HDFdmez5+2um/9uSs8uttcFL9jlRGHfKv+wPyJpoiR2IWfkIk976nsOGBU0D3X97zlaWTH2FVm0mSAhJCFGoolQ3kaomQohgFeQZiAzm/DyXdANAo27PvrQpSYtzVrJklTNf1RLUWrSP/p1rr3qBxVm16XbTXdx6fgtYNplHX/sroAqKiWfH13z4y3Ocd1UREm9qLfqe1RbLzAW4TQ+rf/2FHWNa01ROMIQQQggfO8l9+pK0cSbbvUtaYxzfwIwXrmfWhxMZMnoCj9/Wg1oqgEb9vvfw8BXf8c3YhXgA94xX+fruV5m+0MaMB2/kxXm7mfP89YxosJjPb07kZB+5at0+DBt3LT99PpJ5boAcPICWcAFP/vA6WT1u48c0E6w9GfP3JwyJVbHVqF0Or4cQXjLw/x+F1qX7LUPpfkvR76Knruadu2ZV34H78DhanhVHy7POOv22lnBqN2mKvCuWncDlc7zf54VLTh6aEkKI6sRgz7oUMomjhu8aNaoFl7/+Ct0vncUXH/3Gn/N2ke4BUIlo2pWrxg3n5u7/rQpi5aUSf/5dvNxkEd998jdf//w9B1LTcWS7yHEbcJKPFlN34sjyoPZuWb7NDUqyz4nCuDiQsh5n7t+Qgs35O9+8uxlb76e5f8hl1Pf8wqdjR7HqmHeCq5k2m1Vrsmjbo7pODxBCnM6pqptIVRMhRDAL7rBJznL+XnQMA0Cx065rxxKtE6pvW8yKA3r+K83DfDP+CdzWttw57QdeH5zofTGubMeR+W0Zu9idd85lHGf5wtVwVZ8iPJtG/S4daaAtYJtu4l41j3nHR9G0ZgkaLkQloCgKqqqiKNV2mEYIUQJqnV5cdW02X037ix2ZedXFPIeW8MnIAcz57Wk+ev8BOkcDKERGhOUOBmtnDOeFsYNoqkGL0Vfz5YK32Wkc4Y83p/Dv9U/R8RRHN2qNSMILvl3Zo6gdH4U993qN8Ng61Kkrg/einMnAf7nTarfmsku2sbqiGyJEJWFk7WTXxlXsO3gIR7YL0xJKWFQ80XWaUS+xCdGhMsviZEzTlHMmIUokhD6Pv8Qrgzazce1WtmyYwbNP69wzundA5YgQ6vUdzIN9B3N/+hH27jxEpi2Oxs1iCZVDesKadef6J7tzfZHvoXN44SeM/7i6vmfJPidOwzjKrm27yevJMMnevpbIc97krqH9iFQBzqF1sxBWLXH4NnGQuncv0LwiWiyEqAROVd1k6G3DpaqJECJoBXXYRN+7jFV7fCERLZHkliWrM5e+dBkbPAWuNN249ESGTP2RiYMb5s2C1hrR9oxYlMUHAgL+Ovt27S7y81lbtqKpRWGbbmI6V7NsVQ639C9JTEaI4JeQkMDgy6/0zooRQogiU4hoei633NOMxb/P5CMLpOZ+VrvZ88torr+3Hn9NvZo6BTrrQhokkeD74La370RLG+x0gmfTX/y9U6djExnoElWFgSc7G6dpIyzMKut7lwmV2oMG0EMmn/rIPicKZ2SsYtEXL/D73GWkuU4yFV6LoeXN3zLsvIay7xRi+dIlTHz9FR4ePY4zWrep6OYIUamE1WtGt3rN6Hbx6be11IglsU1s2TeqStOo1f0SBq5bVtENqTCyz4lTcq9h1y53vqu0hjdxzQ3+oAmAhj00BAWHb4zBxOV0lG87y8HWrSlkZKSfcP227TsroDWiOpn21RcV3YQyUVh1E6lq8t9ZLFYaJiYRGyuf10KUhaAOm3g2bWK7f/xarUejRiVaQ4dVS1aduIamYiHxpjeYeFXDAuX2FWxWa4FS2ia6I6vIz6hGN6RBrAr7dDAOsGVTGvSX1KGomhwOB3v27adGdCxh4bLwqBCiKDxkO0xCw6yoNZLocfndLGsSx5tPP8nk6RtJNwEM9v84kU83X8GDyaeYURdSm1pRCjhNMPaye6cHJGwiKjU3BxbM4oupc1i4ZDv7j7sxUbFG1aZJpw70u/oSLj2vAVJ8ufRoUZFEVnQjKpTsc+I0spfyyzPD+HNbFiZgS7yGK+4aSYdEO2mr3uXLSW+zNdMEQyOyVrwETU7CNE1+/P47fvz+Oy659DIJnQghgpsaRe9LuhAub+peho4z04kZEkqoTV6U6k7fs5q9WQGDDUo0rS4eRmJI4FYenNnZAZNZFWz20EIeLZu0HSvZtWM7R9Mz8Bg2QmObkNi6O/Vjgn/y6uJFC9m5Y8cJ10+aNKkCWiNE5VdYdZOhtw0nvk6dCmxV5We32+nQuQthNukzFqIsBHXYJHP3Hg77CpuoEfHUiS7Bwby+kyUr9lJgER2UyP6MGjeQ2BMe0iQzM6vAsqUKis1W9OfU6lK3li9sYurs27UTkLCJqJqOHTvG8qVLaN+pq4RNhBBF49nDgtmpdL+wCxEKgEJ06ysZ++XFXPfTGG694w2WHzfBvZG163IgOeTkj6XYsFoUchccr66VnkXVYBxn6UtP8ug7m8jIVzDMwH38IBtnz2Lj7DnMGHQHz004l6Tg73sUwU72OXFaOodnv8bfvqAJSgxtLh9NlyRv/KhWx3u59Py/eOWb9RiWFjRsbK3Q1lYWEjoR4j+Sgf9yoBIVF13RjahYOYdY9sV3fPP9MlZtPEhGjgmqhciERrTp04tBtwykTzMpj1f9GGRtXU1qwGCDUqMvnbvE5g/cGvs4ejiw+olKZM24vJvTV7L4h/dZtGguuw87MNFQVR3Df0xurUvzS57n+it6BlRLCT4xMTVxOE6s2CLHNqK8JCQkVHQTSl1gdROpalI6nM5sVq9YQuOkJBo3blzRzRGiygnisInOodSjuWsfKpFRRJVkAClzGUvXF1xDR6X2RbdxbaNCUmzGMfYdyCT/giAK0bVqFf05lSiiauQ+IMdSDxenxUIIIUSV596xhnXHO9MtOvDD3U6ji1/kw33r6PnAn2QoIYSFnKZXxczB5fYFTdQE6tcL4kMbIU4j/Y8PePqEQf+Cctg9fTJPNmrEO/9rTjHi0EKcQPY5cXrZ7NiwmryhEgVFDfzsthDfujf1/jpKZnxXEmsE8WhIEJLQiRDFIAP/ohwZR1bxzrDn+XxlgT5iw0PGnhQWfp7Cwu9+Y8AT4xh3dUM5PqpW3OxO2RQwsVXB3vIsmhUsWuLcyL4DAWMSal1qJ+TVCjT2zmT2z7M4bKhEtBnJjXcPo0nITpZOGc60+bsw3PvZ/N1DzGg8iyGdg7cO4wUDLyr0+vsfHF3OLRGi6gisbiJVTUqHruukHjpE7eKM8wohiiyIR2RMshzZud8pdjv2EoRNXP8uZlVWgTV01FjOvuw8Cs3nuzexaXvBOiga9ZKSiv6kSgghNn9jzULTvUIIIUR1ZuZsZcHsTbS5NJmwfJ/vGvW6dKWB5U82RPehf/cQ4BSjoI6DHDru/ZzXknrSq7AgaZFoaLlHRSZmweX3hChzTlbMXMwRA1BCiG/bhvZt61MnNoLQEA1Fd+PMOM7BbSmsWLCJlGmzWHF3c7qfovCPEKcm+5woCg9uV8D5sXmMtT9/zO62w2ng2xcsrUbxwFujKqZ5VUT5h07cHNu6kuXrdnLo6HEchpUacY04o3NXzqhTWIl/Pwd7V8xnyYY9HHWHUa99X/q3r1NgkNUgfctcfluYQqY9gQ79z6VdnO8gy3Cwb/UClqzfyxGnlTptz6J/5/qEBtw3Y/cqFi/bwO4j2Vhim9Gjf2+aRkmIqbqTgX9RvjKZ/9yrJ+5vBTn38ef4l2mQPIHb2kllr2pD38quHWkBVdGt1E/uRMECgJ6tS9npzPteCW1No0aFvDtZO9L/tuE0q6kBzely7U0sW/QUKR7AOMy2tRvxdO4SzIM4Qogy8MjYR1kwf55UNRFCVApBfJxi4PF48g7cFLUEaz/r7Fmygl0FCpsoET05r2/hiWBj/wr+3VPgVEKtQfIZxQiboKIGNFZ3F6ysIoQQFSMrK4vw8PDTbyhEmTM4tvxrvoy6jqv6Nw7oEHbw78+/sdWM59zxjzM49sR7ZqesZn3W5XQOh6zFi1jrBpQoet4+lE6+BzKyHDj9BxG6A0c2EOa9Pjv3+uzc61HjiY9VIVUHYxdrlm1h2YF3+av5UzzYV2ZIivLgISM9BzO0Kde8O547e9c86YG6Z988nr3uV/amG3C66j9CnJTsc6IoIqiXlIi6aotvwM3Euf4VJj+xn0vveojODarPceWxY8d49523811ns58qmJHf0iWLTrtNmYdO3AdZ9s17TPlyFit2ZXBCT4WlFh1veJzn7ulN7QJ/6u59s3lj7NN8uepI3v209+gz5n1evqwR3rhvDlu/Hc29L/zJfjeg1OKSegNoF6eza84UXp34OfN2BAzeKm/y+dBJvHd3R+xHlvP5S8/y3h8pZAbkm954py+j3nyJK5tIfKD6koF/Uc6yVzP7d2+1bSWsNsndW5PcpDYxUaHYLQqGy0nmkVR2rVnD8pXbmfH5am5sd2LYQFRNRuZqdu0LrFhSnwZNaxUYt3Cxe9U/pOd94GFvdRZNA3YSNf4czrkxgeywNrSPy5s0o9aoR0yYAunejgvVEsTDN0KIMtO1Ww8++vRLqWoihKgUgvhoRcVqs5I72dnjPrEj5LQcLF26lvx1ShSsbXvS6yTLjqbNm88qd/7pzIqtHd26FGcKn4u8fImCxSYnuaLqCg8Pp3GTpoRHBG9JR5Fn4qsvs3z5Uh4Z8yidu3St6OaIakwJbUjXC9oTfnA2n763iJQjR2kW42bPwq/4YkEoN77zK09c26LQA5WQGof57bEx/J0YytoPvuSAGkeXO97kreHN0QBj/zzef3IqK/yfxe7FTB03mWZ3JLN20hSWB1z/8fh3aTl+GN3jO3Hrw9fw052fsc25jU+GdGf5sKl8O0yCJqK8hNKyXSL2HW3o2+3kg/4AlvhGJDWvS90Ci3e7du/jaN0E6gTxEb4IJrLPiaKwUP+8u2j794OsOuo/szZwbP2Mz8YuZO3VL3DlBR0JL2IGyXP4H5bOX0FO/Qvp07lRCSaUVJyMjHQmvv5auTyXP3TyyJhHeWTso6XymHrqfN586FE+WXUUHbDV78+Ih+7l8s412Db1Ae55dxUOz2FWfPQEk9r+yBN9A0r9H53HS3c9xA+uDlw4uDH/zFjKIQ+gH2b+5KksPP9xeocZHJs/gQef/5P9/mMtS2OSmx3j7wkPMP6LTVhans3V12Tw9zcL2OcBzCw2TZ/J0r4p/DTqBebs96BYrFgUNx5ft4zn4F+8MeF7ek66moSSFrATlZsM/Ivy5sok02kS0vpSnvvgZrrGnezNR+fgjNe478v9ZBhgr0wfaqLEjG2r8z7nACyJxCcUCETmLGfF4l15ATk1jjZ9zybwUFqt2Y2uA7ud+PiOVNL9M2TUWiS1KrxfRIiqZuum9RXdhKDTrEmSvC6FaNKiVUU3QQhRQBAfqyhERgR0bjiyTrOWeCFcq1myquDMB43Ezt2oX+h5Qibz/vyHzHxZEwVru7M5O6EYZwxmJhm5S/cohEdEFK/dQlQi0dHRtO/YiRx3cf9ARUX5/ddZ/P7rLM4573wJnYiKodWiw6XXElc3CpUe9HUcYeFff7MrTafL0A+5e3IyNU8xeVWJ68/9L/Rj9/y/afTol9zZoTddk/ICb2rd3tz29mJue/vE+/aaspzhUwp/3MSrpzK/+x38vWwvlkY9OKtTPemkFuVIo+mwO7h+4UQ+/XIAj9/YiELnyzsPMHfiZ+zufz1D8m2gs2fG32y5YQh15NBTFInsc6Jo1JqDuObh4xivPsfqAzl5Nzi38+/Ht3Dk2NsMv/bMUwdOjCNs/+0Fvpv2A3syIersNvSqZGGT0NBQzj3v/HzXWaxFn1iydMliUg8dKtK2LZJb8sjYRxl86eUoSgnWEy7ASF/MG/c+yMcbvUsVKzG9+N8bL3JlI2/725zXi6QPVrHOAxhH+Xf5Ztx9O+D/6XIOHMRTtzd3jniBW5KPMu3AYJ5f5H0s48hC5v7romezv3nlmW/ZqTWg52Wdyf79B/6tkUxybCw1W7Wk6zW3MvL+s0kwF+P5+x++3u+rlZOxgAkjvmdvVl363T+eB6/qQtiq57h5xDR2+vJNmSv+YN6RK7k6rjLtMaLUyMC/KG/hzWjZzM6eHmfS4aT7G4BGreSGJCXGE5Fvf3Ozb8cx4hrFBXPHuygRD4dS1ucbo1BCYgjP139hkLZgKitS/SFdhZCWQxnQqUYRHt8gfdmf7PR47xfW+g76t5cJMEII8V+FhITSu29/YmpI54UQZSGIj3k14uJi0RRwm2CmHyWtmKVNjP1LWb4jf10TFDst27cpfP3W47/z7axD+cMpSghdr7ic5sWZQaMf49hxf9hEJTY+rjjNFqJSOXz4MCtWrqRJ81bUjouv6OaIYpDQiagwSgR16uZ9q4bF0vXcSynWHqjVpMVZl9KilJsWntiDgYml/KBCFImL5e9/w2pdZ8MTD3HTD81JOKFfUSdtyya25cTTpvVkHpyed4vpTmfHhtrcfkN5tllUbrLPiaKzJ13PTc+2Z/GnY/hpzvq8perMLPbMGMesdjO4vE1hgyEG2Tu+5+f3X2LhpsO+c20VVat81T9r147jw6kf57suIiqmyPdfungRZ/frfcptAkMmqlpKI+VGGnNfeZzPfEETCKPT0Ie5rFHe78BITycjYNKNUuC5Q1tdwfi3r/B9V5uePZKxLFrprT5rHGHD6n/59acX+SU1lgHjJ/PcxbHs6N6SFXSkudVK6MBHeWmg7+5ZRziSt64ApmM/e3PiGfDYZJ4b1MDbSdVpAF1qf8POA77tPHvZvtMDcbKUTrUkA/+ivFmSuOaJK1j+8DdMv3wUlyUXXu06Z9ciPnxlH2f+7zLybeHZy+wft3PpfbLPVT0Z7N66Nf/Yge5CD/gMNdL+4Odv/8Lhu06p0ZsLh91IfFE+1h0L+eOn+ThNUOMu4Yrh1yM5SyGE+O8URSEkNBRrMSYLCCGKLqiPeUMTG1JHhR06mK4D7DmgQ9Oipz6yly1hjSf/kjho9WjatPBOsAM/fMLM1AJ1UOoMZsSNTSlWtVbPPvYe8oVcFAv1G8molai6cnJyOHL4MA0SnRXdFFFCEjoRlYN5+k2EqNQUbJl7WLF8HzqQuWIVe0+67W5Wzd994tW2WmXXPFEFyT4nikeNaE2P4V/SqPkjvP/ezxzJXVVnD2sWLOWSNmfl72BwprDymyf56bcNWBOiCFEP4/CdbqulUK2jKimTkImPe/3HvDVzX+7ywmrtc7hucMOAPo4sVvzyF3tzJ2BH0bpdY07eDasR17oVdbWV7NYBPGz9diwvHTlG4pVvMO6i+liApv2upmlh7dmynpR8p44qdS8cw9gLG+TtP0oYYSEB+4iZTXaWHAtWWzLwL8qbczVfTV6HoW/htStH8GvbeEILfmzp6WxfsQNXg1a0eOwx/gy4yX1sN1vr3sCl5dlmUT7c69i5MyffVWb2UlYu2EZy33q4dvzC71OeYpmvqokW24eBI1+nV70ivPsYR1j36eP8c8CDWnMAlz30DB1qSdJECCFKQ3a2g79+/4VWrVrRrl27im6OEFVOUJ9nWZNb0cSisEM3wdhFyhZPMcImLtYsWUV6wZU9lChq1izkMVyrmfzGzxwL3F6J5MyR47i8mBFifdcWdvg7QrQGtGghpZmEEMFPQicieJkcO5aeGzfJycwgB5BisqJqsdKwaV009qKffmMhSoHsc+LUsnf8zr8px7A37Ee75rV9S96EUbf/MwzetIIP5hzwfTYbZKYdwk1gB4NB1pop/LY6ngHjX+fMRjuZOepqZu+VvS1QWYZMvLJZ+v1MtuVWiVWJ73ch3f0rFnsOs/zTJ3j8u12+9wGV6G63c0ufyMIeLJe1WUua2GG3w/t9TupBlFa389h9PYg65Y9hkLp2PfsCd4OQDlwztDfRgfczM8gMDJcoVmx2CShVWzLwL8qbasWxdTVrthtAFmsX7D/5tilrWZpy4tXWOmXWOlGBjIP/sifNAGxEt+xD7WP/kHLgIP9OPpfV7yqYhvezSwmpR9New7jgqmtpHF2UsQwPh2aPYdrsHRB7DpeNfoWeDWVRXyGEEEJUDkEdNlFrdaZTY40/N3hAP8SGdXvRL2hctCojRipLl24rpONU4cQuCp3tH47hjZU5AfOmVaL7Ps5b97UqXlUTwLluLVv8hU0i2tGlrZR6FZXbkCFDyMrKKvS27Oxsjh49So2oaEJCQ8u5ZaK4Zv0887TbSOhEBBedPXNeZ+LfOi3btMUElCMzmPBWNNdcezFtooNnpo9RKxY1Jgbl2LGKboqopMKS6hFfYx+1ezQhxlaCQTVLE4oyaU4IP9nnxMnlsH3WeKbNPkxor0mc0fy8gKVow2nYuDHqnAO+822FkIjoAp0LKuFdnuHBThqaCuj70DQJC/iVfcjEx7WavxYGLBWshNEgOp15M75kx8Z/WTJvLit2ZXpvt0TT8qL7GP/gZTQ+3d91aDOa1rfw12ZfisXSnOvG3kbb054OOlm3dnO+fprQjgM5v36BXpfM/Rw4HjATSK1JLZndXX3JwL8ob7Z6JCZaYJurolsigk1kX865LZyjlvZ07tWecDJI3bSAlG3bOZ7lRguJISqhFY1bdaBWWNE/txxrJ/DxR3+SGXMOV4x9jR71JWgihBBCiMojuLsGbe3o2zOelzfsRcfDukWLyKRjKIktAAAgAElEQVQxUUW5r3MpS9e4Tyy6r29n3bpMaJn3KGkLn+bGR37laF4PDOFth/Pxp/fTutg5ERerF63wVVRRCO3Sjz7hp7uPEMFt1qxZpKWlVXQzRDn7/ddZ/LNgPp999S3nnjOgopsjqi2N+v0eYFK/Byq6IadltmiJERGJMvcvlG3bUEwp9y6KR2ucSM9b+jB8ZItTLF8gROmRfU6clL6T3TuOYWKSvWke25znkbdyhYdjhw/lnWsrMTTv2KWQfcgXNBG5yi1k4qPv/pf1hwNCG2YmS959kCUAqNgi42nSqSttOvWk/wXn0b1RJEVqlSWBhglW8IdNMDCMItzTvZk1GxwB/TRWzjjzTGIL3NW1ZRPbPXnfK6GJNK4f3N1XogzJwL8od6E0SKpFxI5YOp4Rg7UkedzWdYK8012UhBp1Bm36nxFwTSS1W55P7ZYlf0zj0PdMm/Qh+6zduXDUy/mCJp6jG9h5OISEpkmEyjGVEEIIIYJUkB/3htB70DnEfTCV/YZJxj9/Ms9xLRcVoW6+Z90SVh4vuIYOYBzmuzG38JTjJjrWyGDL/GlMfncmmzJ82yo2Gpw7jqlTx9K/TgmO4jxb+GPONjwASgjdLryAeDkYFJXcqFGjcDqdhd6m6zrZzhxUzYqmFbcOkChvLz7/TJG2Cw8P58677+XuEfdRMza2jFslRNWghIVC02aYNWtirliBunA+uFwSOhFFptY6lxEjK7oVojqRfU6cVPZa9uzzjvabqT/w44cdCL9uEA3CHexfOpnv/9jqq5ZhIarLKAZ2j67I1lYKbdq1Z9GyVeUSMvFz7djGnoAyIpZmV/PUwxdSv0YUsbXjqR0dWuxKrgCOVVP5fFF23hWevezYmQ2tT738jpG6lvWBa+hYGtG+U1yBgIuHHStXkxrQnWNNbkcbmeRdjcnAvyhvGoktunHVoBsZ2kHiuKIMeTYz9+0nWZ3ekO7/e41+jQMGPYx9rPjgJr7afSn3vDyaJBlfEEKIElMVlYjISEJCQk6/sRCi2IL+XCvi7OsY3PAT3t6hox/8lR/mZHLRhRGnuZdB6rJlpHgTH1gT+nDTlQ1Y+/XXLN6Xg3PL94y/6fv8d1FsxLW9kFtHjWfUkPbULOEBnGfjd/y02tspp0T2Y8iVDUvUeSNEMBkzZsxJb/N4PKRlZKFqNixWOQkPdqqq8vyzT530dgmZCPEfKUBsLObZ52CccQbK/HmweRM4HIUs4yeEEEIEJ/1YBmaNSFRnBgZODsx5mFfmjEZRDUxfCEANSyL53AcZfOV5yAonp1f+HZsGjiNHcQRkXi3129GnUzv+y+KnxvH5vP74R2xyqSgYviolLnak7MBNm1NWSXKuW5O75DCAUqMlrZIKdEvpe1i4aCt5hU1stO7dm9qyj1VjMvAvyptKzNVDGVrRzRBFoigBZ9qmu+IaUmwu9s18lFnrMjBtIaR8dgMvfea/zUR3HODI0UxoHEFIEHQmWGWAQwhRiYWGhTHg3AsIs8mbmRBlIejDJoT15c6hHflg/FJy9P38OPUnnrvg2tN2NFg638pzj7Vjy/F6XDlqBH3ravDiy6z+8xf+WLSaLXsPk+m2Eh4VS73mbenSewD929Wh2Kvm5JPDko8+Z5XbBDQaXHkX1yRIj4io2g4ePMjcuXNp36kr9RokVnRzRAlJyESI0qUoQEIC5gUDMRs0RP13FezaWdHNEkIIIYpEa3ATwybdQM6xFHZv3cyx42k4Mo+TneNBC4klpn4bmrRqQ0yInO8Gt/yjU8opqqp4Du1gf3gjGpxqGWDjAL+98BTf7YnjwvsGsPWNT9jgAdDZn7KFTNoQc9I7u9myZkO+8ItWP4mCWRPPtl/4fV3eYKES2YNB59eTSTzVmgz8C1HdKYoScMF3Ucj75wuduNMruqlFZqR+x8wfVpAD4EoldU9qodtpoZFBETaJDpdjPiFE5eV2uUjZvoWEOvHUqVOnopsjRJUT/GETLJxx52iufudKPt6jc2TGa0xeexWPtj1V01Vqd7mG+7tck/9qWxxtL7iJtheUTUuN/dN4+aPNeAClRm/uH3U+py4iK4QQFUtCJkKUschIzC5d0Rs1Ql26BGX5MhR3ZZptJYQQovpSscc0p2nn5hXdEFEiKhF16xKtwGFfwMO9ays7PZCcrzvF4Pi/n/DY6Emsrjecia8NpbU/cKIfZPnMv9hfvx8DO0awYepYnp+VSvzFLzPyCp0JH3zKhuO+2iab17LBdRlnnmwGj5HK2vV7CShsglIjhpr5UiTpLPz8BzblljWx0fzq27hAypoIIYQIoPgSJ/mqmgA4D2J6HCiWsMLvGDQMji+dwaas0y+5q4REElrBH4Mx4RI2EUJUbi63i00b1qMpSNhEiDJQCcImoMZezOOPDeSXO6aT6lzOxDEfcP2Pt5MUVFNbjvH7U08x/bABSigd7n2eO1sEVQOFECKXhEyEKD+KRYO6dTEHnINZrz7qvLlwOBXFMCq6aUIIIYSowuztetAp+gd+PeYdzPKkfMtrU7vx5I1diLNkczhlKbN//IyPvlnEfpedxC71iLEHPEDGQj567lkWxy9iQ/sj/DrjXxwNruDp+88iJuQQrZtb+WWpCwDjyDIWrXNxZrsMZk94lF8irmbkHWeR4O8Wca5l7WY9X/tMjwuXAfjGrzKWT+HNmQfwHiEpRLQdythb2/zHCrRCCCEqs8BAyYkVThRUVUFV1dxKJ0bmdpToMyqwxUWhEjPwUyYMrOh2FE3jeBnjEEIIIcTJVYqwCWgk3TKRCbNWcOt3ezn8yxhuf+NMZtzfGvvp71wODPZ99z/unpKC21Sp0WM0k0d3o7xXZBZCiNOJiIzgwYdGS8hEiJNIS0sjOjq6bB48PAw6dUJv2Qrl919R165Bycoqm+cSQghRpeSbuWtKWLGsaFVt0m6N/txyQ3sWvLGSTBMwj7LkzWFc8I4dKy5cHt+Mai2G1kPG8fwDZ5MQ0Evk2rKRbS5w75zNFzuB0JYMfeIBekWrQG169W7NxKW+JQD0XfzwwqO4m+5m1qxdNLnnXmIDxqbcm9ewwZF/Bre+9g+mb7yAG5qb7Jz3KS8+9ylb3AAqUW1v4umXb6d1aFm+QEIIIYKZoiiYplkgZOINl3gvgV97L6ZjB4YlAjVClvouDU3jTerFarmvvRBCCCFEQZUkbAJojbjxvU/ZuGswLyw9wp+PXM7t8b/w3pDGFTzLxeDIX49xxdCP2OoGW+MhTP58DF2CvVqfEKXEarUSFR2N1SbzzSqDe+4dKSeHQpzC3cOHYbfZeWj0WJJbtiqT51DCQjHPH4hRrz7qxg2wZbMsrSOEEKKQ2brkztL1/vOFTjyOim5q8ZlZOHPyggZuV04FNubkwuxV7TjZSvObJvCS+wme+XAee5ze34HpycEFoIZSt83ZXHXnCK7rFl+gg8jg8KbNHPJnm0KSuOSxlxne3r/GjkaDS4Yy+Lu1fLXDBZhkbprFV9sT6HP3RB6/MTlgcpBB6rp17Mtf2AQzcwkTr+vDJNXEX/DNEpNMv6vvZMTNfakfHLOLhBBCBAH/8ZGqqKiKiqZpaBYLqqahqCqKL2xiGAbm8TUYpo4S0QhFqWpJ0vKhKiaNYj00rWOt6KYIIYQQIshVnrAJQExfnp7+DcrlQ3hh4WY+ueksDqVM5f3RA/LNvik/aayacj83PPAJazNMwlveyNs/vMuQRlJaTlQfcXFxDDjnPHLcMsOyMpCgiRCnZhgG334zjW+/mcblV1xVZqETxW6Djp0wmjWHlC2oM6ejOJ2l/jxCCCEqL8WXODnh+M25H9NohaIGe+e/Tk5GKulHdrFnyWRWp/qTBgYZKz/k94WhtGucSFR0LOEhwdE1kRhXBc/l1Vp0u/0NvrtiC8sWrWDTnqPkWGoQG1eXpHbdaN8gnJMNw0V0vYFR93bjmFKbVmedT6+k8Pwb1OjFqA8/ofOv89ly1ENorSa079mLdgkFy5E4WbdmC4FZE0vL63n6thYc23WINIcbLTyW+k3b0blTC2pJyEQIIUQBiqJ4gyaahqppaJoFq8Wae9EtntxtdV3HzNiIkbkVM7whSkg8qFagnPvETBOzsK9PQgFv2rjA12Wh4HMpioKiKlhVg5jQHOrXVIiMCMlboijgIoQQlY3NZueMNm2pGx9X0U0RokoKjh6dYlDjz+aZ3+bS+pGh3D95EbMeO592Pw7hgXEPM3zQGcSUS9+Qg51/fcwrTz3Pu3N24lQiaXn1k0x5817OjJW0tKhe0tPT2Zyylfi6DYgqq6UnhBCiApR56ERVIKoGtO+AERWF+s8CSEkBt7u8u8CEEEJUsMCO+/xl4gMvvs5+U8fI2o0S2bgCW1wE7iXMGH0T8w+dGEo3j83nt9fm8xsK4X3e4ul7zqmABuYXG6EQFVZ1z+ctNZvRfWAzuhf5Hio1mvfnyub9T71VdDIDrk5mwKk2cm9mzcasgEE2jbod+tOvXyeCPTIlhBCiYgUGHPzVSywWDavVgttqwWqzYvVY0Q0dRVFw+5bZMQwDw9DBsR0c2zHN00U9So9pmrkXXdcxDCP3f8MwfG0xfT+f99hD01RUVUPTvEvW+P8vrYBHwWNN1VcNxqJpWK1W7HY7ofYwwsLCCA0Lw24LQ9Ms+Y5BhRCisrJarTRtnkyYrQpOLhAiCFS6sAkAYS0ZMnEe/Yd8yPNPvsSHv3/KmMu+ZOrI2ax5uVcZL6tjsOvNi2k14k8chFKvx83cO3Yc9wxsgqycI6qjjIwMtmzaSHhEDQmbCCGqpDIPnWgqNG2K3jARZeVy1H8WwqFDpfscQgghgl7BWaOqb0DFP7ASeDEzt2DaY1BsMRXd7JOz9uDySZu5vKLbUQR2i0m7JKvM2C0jRupa1u8NqGuihJHcNlmCJkIIIYrFG8JQ0VQNi8WK1WrDZtMxdB3TNL2VT1Q1L9jhC5iUZ9DE/3z+iz9c4g+aGIYBmPib5D3sUPId5/nDJv6fubSOTXJDO4qC6jvWtFitWC0W7PYQbHab92KzYrVavIEX5NhICFH5ORxZ/DN3DsnJLWjZsmVFN0eIKqdyhk0A0IjvMYxXf7mVxzf+ztfT/iRnQOcyDpoAqNQ7ZygPjr6YtpdexaDOdcrhOYUQQghR0co6dKLYrJgdOmHUqo2ycgXK1hSU48dL9TmEEEIEN++AAt7BEt+AieYrF597MQwMjwfj8GKI7YZiD+LASSVgt5h0baoQESIDKWXFuW4NKYFr6GhJJCeHVFh7hBBCVC75QhKqhmaxYLVaMAwbhq7jT25omobHraHrBoYZUEWknMMmQL6wCZAvdOK/PfBn84dMVFXN932pBj0Cnst7nKn4wiZW7CF27HY7NpsNq9WGxWL1Vlsp5QorQghREUzTxOnMxuVyVXRThKiSKnHYxE8lKvk8ho0/r9yeUWs+hCeeKbenE0IIISqPdBesPwzASnsGO0NWFuluX02bVpatKrK//5pz2m0CQyevvPoqcfHxpfb8is0KTZpg1E1A2bQBde5cOHhAltURIshJ52vJyWuXn3emqZobLNE0C1aLdxDAY3GjW/JO4XVdxzzyD4a9Nkp4I5SQ2hXY8sonRHOREOWmQW0LYSEhJ1SWEaXFzZY1G8jKN87nwe0u/4E/IYQQlVNgIMM0zdygiTdHYnrDE5qK1eXG7XGje/TcsAnkr2xSXlVO/GETfxUT0zRyMy+By+iA/2dTACU3eOxfXqc0q5oopwibeCua2LwVTqxWrFarbxmdMgi9CCGEEKJKqQJhEyGEEEIEDbcBR5wApOEkjdQi3a0oIY9g8+030+jYoT033XIrsbVqlepjK2Gh0LY9esNE1MWLYdkScDoldCLKVMGBVhl4LTp5vUpG9rU8gT+7f9kci0XDarXgtlqw2qy4PVYsel55CFVVveXY3Ucg7QgmCqhWQCn+QMppyswX9nvxb+svU28YBoaue0vXmwamYeb+PJqi5FVmUVW0ggMXpVwe3v91YCl6q9WKzWYjxB5CeJid8LBQwsLDsFo0VDVvW1HKjFTWrt9LYGETPOt575bBpNz/Fs9d3hBZOV2Iqk3eW4uvOh8TnUxg1Q9v4CRvMTZ/UNdqcePRPei6gWkEhE0o/7BJ4PPlBU/yXwf5q7b4/y+L37+iKCgEVojxBnQsFguaZvEtnWPzBk1sNjRN81bX8x2XCiGEEEKcjIRNhBD/SVRUFO06dCQqpmZFN0UIEQzCLNDCW86/cVQ9mkTXK9LdwmtEl2WriuyJ8eOKtF1iYiNGPTKGm2++GU0ro44XTUWJjcU8/wLMpCTUeXMxd+9C0fXT31eIEpAObVHeZJ8rnDccoaKpGhaLr+PfpmPoOqZpoqkaquZG93hygx5++WfKFutZC/x/ev7ZxKapYBgmhgGGBrquYBoKvqwJqgKKqqBpoGneXImm+Qc7Sns/MAMGa0BVTO9raVGxWhTsdo2QUI2QECs2uxWr1eIdSFEkaFJ2Qugy9CUmXFtwv1SJaR4vQRNRqcj7RPHkCxRW81BpcUkYt3D+kISmaZimmXscoWkqFqsV3ePJDZsYhpEvTFveIZOCCgucwIlhk4Jfl5aCId/c102zoGoaFov/uNOKRYImQgghhCgGCZsIIf6TiIgImjRtRo7bqOimCCGCQagFmnrDJon1k+mT2LlId+veq29ZtqrIli5ZzM8zpp/0dn/I5Jprr/eVlS2HTj9VwWzWHEdUBMba1dg2bsJ+4FDZP68otsreCZxbIllVvZdCOrfLbJZdJX/tcl+3cq4OU9lft3z7nFTWyTfYoKoamsWSVybeNzMXRcFtcWNxa3gKKxFfjgMpgYMmhm/2sGEYmL4qJ4GDKHkVRlQUJW/gokx+vwH7jaqouQNQVosVu92OzW7DbrdjtdqwWKxYLNpJ3/NEKVBr0rxHf5pXdDuE+A8kNFEy8jqJ0ubfnzTNG1U0jLwKZprmwbRaMUwjN2xiBlZuq+CwSW47TqFM/14Cq+gFhE1UxXvu561wouYunaNpmvz9CiGqjLCwcC4YNJjIUFtFN0WIKknCJkKI/2T//v0sWLiQNu06Ubde/YpujhBClImCIZPSZYJpYBouMFy49GwyXMfIzkklR3dwgDBSdXAYHpyNTWpGxNNuZTaN9mdiNSq+w0xUHbmlkn0DwbKkRNHlVkaQ161YAvc5ee28/MEMb3l4b9Ak9zZVRVUVPG4Pbo8b3aP7KpsYJ50tW9YCS8ObpoFhBJaK97chIPyhKihK6Qc7CpsNrKpqbthEs1iwWqzY7DZsNht2ewh2mw2r1YqqannBp2q+/wkhClcR7w9V4T3JfzypBr7vU/ah0qrw2lXnMG5EVMxpt/EfawSGXXVfBbjA8Gvu8VAQVDapaIovLOf/Ou/YLC+wk/s3KyFcIUQVYxgGaUePoMVEERkZWdHNEaLKkbCJEOI/MQwDt8uFYciyDkKIqqf0QyYmpu5E8aSD6QI9DdxpHM05QnbOfhRPOnZyiMFJvGLgMRVqmHYO6zXZrkeSg8aOaJONPerSfF8mfdceplaGC7V695sFlYa2Lui6Tk5ODs7sbLKzs3E4HDgcWTgcDnJcLlw5ObmdoRVd0jmwE9HqW5/barVgtViwaBbvch3lED5RFIV6Wkdcrhyc2U7fa+YgKyuL7Ozgft00TcNmt/teN2vu66apmm9gvWw7af37XGV87fLvc+X/2gWbwJAE4AucWPOu9wUnPG5/iXgd08irImJSMWET//8n7l+Bbcj/+wysbFIa8oVNyHsOf0DHO1vXgs3mW5bIt+8FlokP5v2tSYtWFd2EItm5cwfjxz4CwPtTP8VikS4nUTUG/isqNFHZ5Q1eeytN+d+flWIs2VZdSRj31AqGJUzTzF1ap7BjkuoeNPErWNkk8OuCARPZ54QQVYnTmc2iBfNo1aoV7dq1q+jmCFHlyJm/EEIIIUQBpREyMXUneI6iuNNAz0DVj4GeDoYT9CwwXSieNDCyqe2/U4H+HItiUldxcjYHqatks1KPZi+hOEItrGoSzfb4cC5aeoBGqQ7CcyT0V5EKdtYpCqiadxkMi9XiXcLBllehwDTyL31RER2gBQd+FVX1zvS32bBYrVisFjSLdw1vRTlx7fjSakNgW/yzOP2vm9VmxaNXntfNast73U42G7U02xHYHnntqg5/h79/0MQfvNFUDYvVisfjQfeFTQzDzF1ipyKDRIUGmQK/LmRQoyzke2zf66iqijfIZLFgsWhomgWr1eoNmlgsuWXiq9M+VlbSjx/nh+++BWDKh59UcGtEsElQO+ByuXBmZ5OVlZV7yc524HQ6cbvdvvc3vUIHiQu+V2mahsViqbDQRD2tI263K1+g1OHIIjs7G2dODm6XC4/Hc2IlhwoSOHCdFyq1YrVafMG/vABKWb7vSpC5+ij4ehQMwooTFQybnOw6IYQolL6f1esMzmhbD62i2yKECAoSNhFCBCkd5/GjZBiR1IwJyXfg4snMwBURSViFtU0IUVU1SmrMpLffLXnIxLEFHBtR3PtR9Qww3SimG9PUfV+XLBASpep0UdJopmaywFOLlUYUblSOR1iZ3rUOzfZl0jkljQZHsqXKSZDwViDQsFg0rBYrdpvdO+NO1XIHkINu4F9RsFq9g/52m93buW3JW+akPNpTFV+38uisldeuavH/3JrmPQI2DAMF7+CT5vFgtVgwTH/Z+Py/VypwUKXgPhX4fbkNjBUYKMk3OKyqvoFOFU2z5AZ6ZNBOiPLh/ZvMC9NZLBasVgsejxXd9z7mH2gPhkHiwNCExWIp19DECYFS8gdKLVYrVo83JOH/fMj3WUDFhnQA3+85r6JUYJBZUdX/s3ff8VXV9x/HX+ecu7P3YsjeS4YoQ1RQcYFoW23VttqqbR21rbutq45aq3VVq23d1rb+1OJGBUSRLXvKHgkQkkDmTe695/z+yCBBVgLhJuH9fDx8kJt7xucck3tP7vd9Pt/9doY52nUojNv21T/++p3h6v8r+7e/YMnx/vMkIofDZvv7D3Pnl2fxn4dz8Ee7nFZud+EuEpJS9PorrZ7CJiLSgoTZOfd1nnv2ZSZPW8B2Tw8GDepCRowL2/aSdeLZTDirIwvufZ7k555lUsGnPHH/o3y0uhQbcHW6jMefv5rubShSa+fN4J+PPMFbC3cScsDwjua2//2B073RrkykbXrwj48c0fpGcBNmycxvf/+ItlrNbTikGSHGu7fT3S5heiiN7XgpjnGzsEsiG9MDnLEknx7bSvGH7KOwR2mKusFNy8KybVwuNx5v9Z2mhmHgdrkJhd0NBoVbwgfbtQO01YP9LjweDx6vB5fLXT2YUm+aieasxagbgGob563+oEBz16Nz17bUD5zU/T+2bSzTrAmaON+6iz3aYZNaB/rZikbYpP5gcfWA8N5pwWr/O2a1iRyHFJo4OvXsfY/fGyitrc20rG8FJur/e6zs77wZponHXf3+vm+o1GjG68r6NSmMe/zY97zoPB0enScRaYxI7vv8+anpFA08K9qltAkfvvkKs6Z/zGXX/oaho87Qa7K0WgqbiMgRyc7OZsKkiwhFjvCNsHINb976I27+xzwKPd256N53mXzNSDJrX6VKV/P2fVdx8aA5FPkm8BxgtR/Lzye9yd8m/YM8G1wloymJ/ufrR5WZNZof/2IO/x54B3PDgD+dfM2UIXJc8xoOva1Sss0gX4WTWRRJpNR0UZDg5e3h2bTfVcGIlbvosr0cT6SNvSi2cA0HJao/+HdqOuTU3qkbiUSI2PtpDx+N/1XGflrF13zw7q4ZUKmbaqJe2KS57t7VeWtCKTp3rVZsQtJhL1u/vX/9gMm+bf91B2+1/d7VXi90su/zInJsKDTRtFpqX7tquzK5PdUBUsOsfg91e9zV52yf8xXt80ZtV5iamj014QnLqu4w1dzv8QrjHr90bkREmknlal6762Gm5tutrqOJy3KRlZ1DQkJCtEv5lm9WLOauGy6nW+8BCp1Iq6WwiYgckWAwyI6d+QTiEvH7mzixTdVqXvrhWfxq8jbCRjrj//wuz/+oc8M5/2J7cOGDk0kIj+G7L+79tpGQRJwBeUdyEC2clZZGUvPPXiAirUyiEeY01y46mhWsjMRVT63jNlmfFcOWVD+jl+9i4Po9pJSFol3qcad+dxN3vcdul5uIHSESqU4N1n6WHe354av/rX5sWTXzwde0t3cdg64m9WvReWt6PTp3bdu+A0tOlAfGWoP656z+oHH950Xk2FBooul11HZhsiwXbrdT95xlWXjcHiJ2pC6ICPXO17F+a6g7XQ2nMqsNlbrcrrpQae1UZgoy1xasMK6IiLRwoc28d9dNPDW/OCpvlUfK6/Mx7OQRBDwttyW+QifSmilsIiJHpLCwkNlfzWTg4GHktO/YhC1UsuSxn3D75G2EAdfAa/ndZfsETWqZyZx+511c+MEbe793XLzfGsfHYYpIo/kNm15WCZ3NMtpFypkWTqPUcRFym3zeJ5UtqX4Gr9tN99xSvOHW+Odg61P/g+La6S8wDCzTJFJzt+6+gwEtY+B/34EBs+5O0GPxgbbO29GpReeubap/HmrDEvX/HypscmD7+3mTY0M/l1JLoYkjLKcupGM1eOx2RRqcs5YQKK2tr/rfhueuLlTqcjV4r2/uWhTGFRGRQ6rIY+nsWSxau52SsIu4jM70Hz6CAdkH699hU7ZlITPnLGfLrjLMxCzadzuRkwd1IGZ/N43aEcK2vc+spwam5cIygVABy7+Yyvxv8qmK7cjg08dyYpb3UIWTt3QWcxatJa84jCs+g879T+aUAdkH7Txil+WyfP58Vm7eSWFJFVZcBl0GjODk/pn7X698Ff/53U08MjWXcN1GbMKhECEAw8RyWbTke2Urg0EWLl3ICR070LFjU8awjh2FTqQ1UthERKLKzn2DB5+YQxkALgZMuJieB3tlSoxJWs0AACAASURBVB7PxeM/p/ggi0SK1jBv3nqqsgZwUr8sDnRZVp67lMUrN1NYGSC73zAGtI859EWRXcLG+bNYVRRHj1NOolPcodawKdk4jzkriojvNYIhneL2v4+yzSyct4wddjq9TzqRDvu9KhUR+TaT6tDJUGs37c0K5oaTWWbHUeF2sSYnltxkPyeu382Ypbvwhe1ol3vcqP0guHYAwrZtrH2mvKAlDcTtZ9qJ5h482R+dt6bTuTs+7O+86Fwdms7RsaHzLAej0MSR1GDUnTegLlDaEqdU27dDx95OHXtDpbXhWAWZ919v7b8K44qINLdy1kz+M/c/8Q7LQ10Zd25/Sr54h6+2VoErnSGX/ZZ7rzuVzH3uirULFvDqH//A3z9bT0VCX8aeM5SkNS/zwsP3YXYexXd+9kt+csYJDcYkwhun8MRjz/DWzE2U173duOj201d5dvQiHv79E0zZUF6XsTWefZlL7n+aX49O3e9YQvma//HYHx7nf8tDdB13Hn1LZzB55laqcJE25HLuvO96Ru9TeHjnHF5/6in+NbucHqNH0T22kK8/+oCvd4QAD5nDr+Su+67hpNS9e6za/DF/vv0+3lxR0iD/W/7Z7Zw67PbqB+4x3Pv545zXgufWCUfC5G7bSmJCfIsPm9RS6ERaE4VNRCSKImx56xWmFtVcqpjZDBp2gK4mdQKMe+gRbM9+nnLKWf2PH3Hd3a+zYo8DRiw9Ln+W/z79PTrWbdSmcO7f+P1vXyWv51mMTNvM5L+9zNfFKQy55llefGgC7S0gspmpj/6Kmx/5hG1hB1y9ue6ft1D2yHU8NyefMOBufyGPvvs6V3R3VR/LZ3/itl89zNStYRxc9LzhZW4qf5hfPTOLXWHA3YELHv+AF37Uo96LbylLX7iRn9/1KbGTfsKw3Ne48soMfvzkK9x7fodDnAsRkb0sA3KMSs51byczEmRBJJFc/JQGXHzZO4Xl7eMYvrqQQev34A/Z6pjUzPbtRGAYRquZ7mLfwYFj+aG2ztuR7b+Wzl3bp/MjIq2JQhNHxjTN6imHagII9QOlUDv9Swt7v693XhRkbgSFcUVEjpEKVrx0I9c9MZfdpHPuw89wzxnJVAwuY8LN71MY3sn8F2/lN75/8sI1vXHXrGUXzuIv1/2K11aV47g6c/mjf+emgX6wL6H7Td/hvhnT+MctS1j2y6d59PJedZ1CXJ3H86tH0whPupo3tkZqvusQXP0yv5q8nNgx3+cHHT/hv9M3UQk4pav49/1PMmzQPZwat0/lK17kpuseZ14RpJ/3J56+ZyxJFYMpv+A3fFAYJn/+C9z2Gx9/f+FaetcUHt48mTuuvYdP8/yccf8H/Omc+OrvT+jM1Zc+xqLKKrbP/hs33+zl789dSfea9SqLbdqd+WMudL3A20v2Bk7cPc7nmvFdq8curPZ1+2luM2Z8zjXXXNPo9Ww7QvGe3fj9fmJiYpqhsr2Ky6oIVtm4PYe+mXjVkgWHXEahE2kNFDYRkSgqZc7MrwnWPjRzaN/+0C9Lpsez30RveO1LPDX/Yf4y5TI+/MWFPDa/lNWv3sqjF03g8XE+ACJrnuWqSb9kmvt7vPiv3zMxJcyYyNeMfXgp8//6E27uN4zXr8jCtDpw+g3Xcfo/3+W5TTYYq3nx7te5/uH3eWPKtfzg8a+p3PIO9z/6MRc/ey4BLNqfcRPXnPEPPnh2IzYG37zwO/5z4595678fc8Mlj7KocjPv3vcIn373ec4OAERY98/LmHTD+wTH/ZU5j/6U7D092dL/Bzz90x+RPnUKN/bWy7SINI7HcBhS0+VkaSSeRZEESkw3BQlePh6UQV6ynxPXFdExvwKrBX2u2hbVfiDckgZODse+AwPR2L/OW9Nr0LkTEZGWSqGJppbQegOloCBzUymMKyLSfCoWPcvdT89ltw1mzhlMGJWMCfh69qCD9T6FYYAKVr/3Lkuu7M1gN2AXMPXPv+f1VdUdSKzsEZzWpyZOYmYy7pzhPPrFFErtAuY8+Tue7/cKNwys1+7DTCct2YCttd+IsGXmIvo/+BL3jEvHrOhH8QW/ZPKu6vcoO/9Lpi+q5NRR9XqkVCzkubueYl6RDWYOp08YTVJ14fToYPFBdeEEV73Le0uuovdgN9g7ef+xP/FZXhgoY9EnU8k9ayLZFrja9adXusWiLRHAoXTJm7y16DJuG1p9p29c3/Fc3reKmZve4J36YZMOI7n0h2cfdLqe5lBYWMi8ubOP8V5bhm9WLObRu37Jzfc/xeBTxkS7HJEGNIopIkfE7/fTrn0H/IEmJEIj+WzLq9j72PDg8zf9D2cz+1Luf/wqTgpUERqaxePzN2DbO1i+ZDORcd2xiLBh8uvMKHRw+D+e/OednH9zd1KSk6rv8HeKWbpgJaEraqbeMfz4fbX1eDjpxie5/rQsQtZwMp/8mk22w65Vy8mLnEsXC8Ag4PfVdQtwD7+JP994Opkhi2GZf2HRJhsnfxUr8yKc3cWCwrd54N4P2Gm7OHnMWDJMIL4PPTtaOF/P5O/Pf8mNj+nCQUQaz2045BAk3V1JV6uMz0OpbLb9hN0mizrFszXFx4nr9nDSN4V4wy3/g9bWrv6Hwq3pA+Jo16rzdnRqaAn1HK7WVKuIiDReax74h+iHJlpjoBSiHyptrecu2udNRKTNimxj8t/+y9pQ9UN35x50r+mibqUPYmAHF4vWV4c2MF11g6jhVW/w/JSd1E5QbWS1r+6QXsOb054MC0rDQGgtb77wEZc+diFpdXfNmlgN7qA1SBh1LdefkV59Y607k4xki+oW6YCzm7y8Umy8NTfeRsid/Cxv1hXehe51hWcwcGAHXIvWU722hau2ttBiZs8vrgmK2BR88RJvrjyXG/q6wfDi99R7j7F3sWN7GNhfW/no69evH3/806ONXq+yqpK1q1eSmZlJTk5OM1S217qtxeQXV5GQcOhz+K/n/8KeooJDLpeQlMJ3r7yOcy6+Ap8/cDTKFDmqFDYRkSOSnJzMsOEnUxmyD73wt9S76AFwQlQGm/4HvxmTSHzNe7jb7a4LfZSV1F5MWWQMHUnPmDksq8yiW9dkDBzCkXDN8w6VwXL2W4GVRfeeaZiA4fHirt14sIKy/a9AZvdepJqA4cZTd9FWQUVp9Qql09/m03wHMDDLt7F4QQE4+ZQ4ADa582YCCpuISNMYBnhw6GaWkeOpYFEkgbmRJPJNLzuTfEzr76Ywzs3Jq4vI2FMZ7XLbPH1A3DQ6b02ncyci0dQaBnIlOlrrwD+0jMH/1hoohejX21rPXWuqVUSkNYhsm8JHC8pqHhn4ExKp6x3i7suP7rmF4mfeY01VNqOvuoJ+boAQyz/+mNoMCoA3PoFAvfCIERvD3hiAQ+ncT5hROIGLUg80nYpFerceJNc+bbhx7TNiGywvwyGltnCmfLiAusoDCSTuLZw+P76X3xQ/wwdrqsg69Sdc3r9mbhsrhw7ZLlhTU7wVR1zM3poavs3YVFUGgZYZaOjSpStnnnNBo9eLhMMUFeaTmpRAfHx8M1S21xeLtvNNXhnZ2Ye+Obu8tISX//rwAZ9XyERaC4VNROSIFBQUsGTpUk7o0oOU1LTGrWxl0OmEBIxZBdUBD2cneXkR6Gwdas1Dq7tIcrAjdl3iOO7Uh5i66hq2BJNJ2fMZD//wMd6euZK6mRLtw/mQq37a195/OOWAa9hU7yLC1jXrKK35esOM13hzT1z1cqOu57pRYKb0PYwti4gcWsCwGW4VkWUEmR1JZpUdR6XHYl73JJZ1jKf7tlLGf72DQGVEU+uIiIiISLNrrQP/EP16o73/1kznTkREyhcvYk1o7+OG7w0m8X2/x2+f/l7Dlex8li3fVjeGAAa+gJ8GMRK3q+GAa9Ualq0Kc9HIpncJiYT37pHyRSyuX/g+zPh+fPd3f+W7+z7h6s2VDz+E87c3WbDDS48J13NJJwuqtrNg8v8xa0e9feBg2w42cKCITGtkWhYpqWnE+NzRLuWwKGQirY3CJiJyRILBINvz8sjMbt+EtQMMP2Mk8W/8jz0OENnCquUF2COymvVixmvtYc4jV3Lvi8vocMO/eG7Ig5xx6wwOfKnWHBzC4bqme8QO+iF3PzC8hTaoE5G2wDSgg1lBsrGdPk4JH4fSKTI8lPtcLOqSSNBjMXjtbjrtLCNQ1ZRuVW1PILZ573YQERFpSzSIK42lnxkRERE5tsLsyN1RbxzAoby4mCrY291kfyI72bGr/t1ZBi6Xh4Neydi7KdhVyZFNSbN3n+EdueysN4DhlBdTcsjCq3k7juPnD4yrfhDaydf/fZDnXvgfS4xOtHcZDfbTFu9BKy8vY/onH9K7d28GDBgQ7XIOSCETaa3aUjhNRFqh1At+xndOqO1kUsXC6dPYfci1mj4Iaud/zO3jT+MXf/sK+5y/8NJdp5MSlQ+4TDKy0moSfxE2zp9NnsZ2RaSZWQYkmBH6WsX8yLOJfuYe/EQwcFjdLpb3hmby4YkZFMS2jqS/iIiIiIiIiIjI4QrX7xYCRLZuZHP4AAvXcb6VwjCtfYZXbZuGWz7KUwWGwzQoM7KNjZsOWXg9IXK/+ju3XDKJqx/4D+vaX8VTL93J6BQNE0dbQlIKP/31Xbz4wVwmXX6tgibS6uhVRESiK/Y0bn3wCjq5ABx2T3meV1cd+CLJzp/KH+54ma1NCmZU8fUTt/Dc4lIcI57RF19Itlm932PPJHnEKPrUjOdWzX6Jf84r3/u0vYX3X3k/CnWJyPHABNLMEBd5crnMs5muRimm4bAn1s3CLom8fVIWqw9jblEREREREREREZHWwSQhsWEX2/CWxSzeeYjBBjON1KR9bljdd0ihKtQwDGLEkZJyGG1HDpOZkESDysObWbJ45+HdlhvJZfojP+YH1z/Jp+tL8PX5CY88+lNOTFSXuWhKSE5VyETaBIVNRCTKTNIv+AuvP/4dOvuA8pk8cu29fJH/7cuk0uWvcNOld7G11zDSal+9qoJ1be+cygoqbQCHYEVl3fVeVTBY81WY9Ws3Vl/0OaUsmT6VdWs+4rWP19Wkjh2ChTvYVV5V87iSYFXtxoNUVG8cJ1hOlVP77QqC9UqtrKxbgcpgsPpiz6mkotLZu52aFazuV3LDxTlYAOFlPH3F5fxlygpyty7kzTtu4fPYwQDYZeUEaw8mUk55xeGeWxGRg/Pg0Mms4Dz3dk6xCkmhEts0WJ8dy+untuffI7LJS/QSNvXHp4iIiIiIiIiItGYmKT26kVF/ZLRqKdOm5X6rK0kDVgZ9emdi1X3DoaqqskHexAkGqay/jqcrPbsfvc7BZkp3ujUsnGXTppJ70MIByljwxI3c8dpS9tiA1YXv3PJTBuges6g75+LLFTKRNkFhExE5IqmpqYwcPYbUtIwj2EqA3j9+nemfv8JvJg0msPSPTDp5FFfe+iDP/uN5nnvsHm754Xlc8fA3jHzsXf56eW+8QGTLpzz5xPtsqbmgimx6j6ef+5LVM57gqfe31qR6I2z+8AmembaFCD5GXng+7VwAYda8fD03vRLm4vt+ztDY6m2UTvk91z4xj9LIZqY+/hc+3rtxPn76eeas+Zy//uVdttUETCIb3+PpZ6eTa0fY8tmjPPXB5poL0wibP3iSF2av5oun/swHdSts4MMnn2bGNhvMdCY++gb3XdCVgAGhLZO5a+IA+g69kk963MndF2Zi533BP+55ka9rY9GhObz422f5SnPuiMhRlGqEOM29i4vduXQ3SjAch5DLZHHnRN46OZt5XRMpjGlZU+uYhoHbZeLzuIjxuUmK85OVGku3DsmkJ+svZhERkWg6qi3DRURERESOEk+/MxiVbdX7TiWL/vMKC8q+vaxdUsjuEICb/medQQdX7TMOZXt2N+hkYpcUU1rvI/vAoLGMTj+KQ7Ce/pw+KpsGlS/6D6/tt/BiiqoLx86dzPP/WUPt7bhm6iBO6ulp1K5d+0wZZEda19iEYRh4vV7c7pb12aZIW+E69CIiIgfmcrmIT0jAbnCZ0zQJ/S7hd69ewp1luaxctJi12wopj7iI7dCP0664nW4pDS+CrPZj+fV/1vDrb21pJP/95ub97iP7uy/xeZ8r+HJ1mPYnnc7gHB9wAf/9chjTFu4ioe9pjOqTggs4/ea3WLyfzZz0zkZu2t/Gz7iNf6247dvfH/4eK79dZM1BD+cXbyzl0pUzmbV8O+G4DvQbfhKdE2ou4LJG8dNn5vDTZw6wvojIUWAY4MOmg1nBJHcuy+x4Pg+nUua42JbqZ1e8hzU5sZyyqpDO28uwjuH4kWkYmKZBwOfG67HwuC28Hhcxfg9xATcxfjexATepSQqYiIiIiDS3QGz8oRcSERERaam8J3LpZUN574+zKa35fCuy+U0e+ONg/vq7M8muySNE8r/kqTteI+7mJ7myuwt3vx/w49HvctfUQhwgvH0buWHoVjPKWp6bx+7aDIarM5OuOp/sBhkNm30zGo4dqf8Ae5/P22zbrtc9xcug71/OkPceYk5d4Zv4v/sf4sRnfs+4vYUz88nbeT3uFp6+qjuhdatYX6/lil2ax7bdNqSblC2fzuxtDSb/IRKqoiGDQGyA+j2Pw8W7KbHBH/qGN56ezcAbLqdnCx5tDgRiOPu8CQQ8Rz6GJSLf1oJ//UWkNdi+fTszZsxg4OBh5LTveFS2acZk02dENn2Oytb2ZZHa50wm7rPxhO5jmNi9WXZ4GFwk9zqVc3tFa/8iItUMA+KNCCebRXQyy5kZTuEbO4YSj4vVObEUxnoYuGEPo5fvavbASVK8j4E9MoiL8WKaBjE+N36vC6/Hhc/rwrI0tY+IiEhLYhh6bxYRERGRls6i/UW/5ZYFV3PvJ7k13UnCbH73Vi5ZPpkzTulOcmgzc6avIuuap3ige80wqpnBObfewfy1tzN5c4jw2ql8uOJHdOvvh8g2Pp26mCoAI4ETr72Xa4fsMzWKvYuCovofpkUo3LGTEH2qB2pDeWzfVT+NYlOUvwubrnsrb38xd9yygGvvnUJeTUYkvHkyt39vOe+OPYVuySG2zJnG6sxrefzB6sEOKz2dJAt21WZKyr7iyV/ezsYhAYqqcujT1c3ypaG6mla9+wTPBE9m1MXn0T/BBNx0HTaYjFfW103ZE170Anf+YSvZG2awafjDTGrhI82hUIiN6zeQlZ5GWlpatMsRaXM0jY6IiIiINGAAWWYl413bGe/eQQ+jFAyD/EQvnwxM45nxnViTFUPVkQY+TBO8XiL+AE58AqSkQU47rD796Hhibwb1zKJnpxS6d0wmJyOO5EQ/MQG3giYiIiIiIiIiItI0rvac94dnuP8HQ0irC0rYlK7/gv+9+hJvL7AZdedzPHDhCdSfeMVMH8dvn/kzPxnZHn9kDa/c+GNufvCP3HPd1Tw6swQrtT8X3fU8j1/Vj/pRk/C693j4ht/z1pZ6nUxwKPzkT9z02Cds3jaVx2/4Ax/kNwyb7Hj/AW56cHL9wml//v08/cBlDN5bOHbpOr585xVeeWs+9sjf8cyDkzihpnBXt4u5anz7esfhUJ67ieKcifz6liu58tIzSK8/PdC6r1nj7USXhL3Dx/6TrufuqwaRWNsYJLyTBW+/xdJ2V3P3lb1p3KQ8x15VVSXLlywmNzc32qWItEktPG8mIiIiItESY9r0c4rp6C5nkV3B9FAqIcMkN8XP28OzGfpNEV3zSulQEDzodiImREwTAn48sfG4/TGYsXGYCfFYSUmY8QmY8QnVXwf8x+joRERERERERETkuOQ5gXG/+Qejf7icWV8tYsPOMoz4DDr0GMLJA3M40KdTruxT+fmTI/j+uvnMXrCKLQXl2Bnf5/ZLBnLS8D6ke/ezTpfzuOWZ87jlIOXc+Pzp3Hh4hXPCuJt5fvSPWD5rJks27KTUiCejQ0+GnDyQ7H0LNzM4865X6TjmI2auLcWf048RY4bSIaYmTDL+D7ycPYZP522i3JdN7xGnMbxTXMNOBWYCQ372d9489XM+m7OGwkgCHQeP4dRB2Qc8TyJy/FDYREREREQOyDIgkTAjrALaGdVT62x0AuyJdTOtfypLO8YzesUuTthcAhEHx4Ayn0VxrIegx6Ig0cvueC8R0yAc8JIYn0rH5I50y+xOrD8u2ocnIiIiIiIiIiLHKW9aH8ZM6MOYRq3lIrHLcM7uMryZqjoM3jT6jJlIn8Mp3Eqkx+mX0OP0/T3pJn3AeL4/4FAbcZHc+wy+0/uMRpcqIm2bwiYickQsy8IfCGC59HIiItJWGQZ4cOhmldPeDDIrnMz8SCJFlocdyT4+GpRBdvt4wkBJjJuQyyTsMomYBpVuk4i73v0QTikrKlezsbCCU1P7k+KNj9pxiYiISPNwHOfQC4mIiIiIiIhIq6bRYRE5IpmZmYw/93wqQ/ahFxYRkVbPZ9gMdxWSbVawIhLPCjuOkhg3q2Pch14ZwICgE2Zh8XrWl29naGJ3BiV2Jc4dwGje0kVEREREREREROQ44nZ76NajFxkZGdEuRaRNUthERI5ISUkJGzZuIiU9i7j4hGiXIyIix4DfsOlultHBrKC9Xc7UUBq78TR6O3vC5UzdtZhtwQKGJnanS2w2pqHIiYiIiIiIiIiIiBw5j8dD7779CHisaJci0iaZh15EROTAiouLWb5sKcV7dke7FBEROYYMozp0MsTaw0+9Gxlt5hNHGGhc23wbhzWl23h/x1w+y19Icai8eQoWERGRZmUoMCoiIiIiIi1MRUU5U6d8xOrVq6NdikibpM4mIiIiInJEkowwY935tLODzAknscGJwW7EpDgRbApCJXxVuJJtFQWMSO5Nx0AGHkuXqiIiIiIiIiIiItI0tm1TUlJMMBiMdikibZI+wRcRERGRI+YyoKdVSoYRZJmdwOxwMiWNvNQMOxHWleexpXwnnWIyGZPanyx/CpahZnwiIiKtieM0rtOZiIiIiIiIiLQ+CpuIiIiIyFHhwiHNDDHSKKCdUcGMUAqbCRBq5MyNVURYXbaNHZW7OS11AF1json3BJqpahERERERERERERERaSyFTUTkiMTHx9OrT1/iExIbv3LJEj7498d8Mf1jFmyrwgEwTLx+H4RDmIFkMk/oy+DTJvKdcweQbB3t6kVEpDm4DYduVhkdzHLW2TFMD6eRa/uwjcOfWgdgd6iMKTsXsDKwmZOSetIlNrsRk/OIiIiIiIiIiIiIiEhzUU9yETkicXFx9Ordh7j4hCas3J9zfnIzd187gPz5s5g7ZxZz56yl43Xv8L9/P8lP+xbwyXN/4JZLTmLI2Nv5JM8++gfQIlSx4oWn+Kgw2nWIiBxdXsOht1XKJZ6tDLT2EEu4cRswoMyuZHXpNt7fMZc5BSupjISw1ZpfREREREREREREDsHvDzD2rHPo1atXtEsRaZMUNhGRI7Jjxw4+/uA9duTlNnkbrqxMUve5Vd1K7M35dz/LjSd5gAgFc/7MNTe9RlvMm1SteoZb736XzZVt8OBERIAkQpzt3sEEdx6djTKgcWERB4ddVcV8sHM+/9j0IYv3rKMiXNU8xYqIiEiTGI3sYCYiIiIiItLcHMehsqqScLiRN8FJo+kvwuOTwiYickTC4TBlZWWEw6Gmb8Q09/9iZJ3AsCEdqJ49x6Hgkzf5bHfTd9Mi7f6c+6/6PTN26y59EWm7DANijQi9rBIucOdxklmE27ExGtmhxMEhr3I3n+YvYtquRWwr39VMFYuIiIiIiIiIiEhrFwxW8MW0z/jmm2+iXYpIm6SwiQBgpKRASkq0yxDZh4nH69n7MBIkWLVP94+yzSyc/gEfTZ3P5rLD6wxSmbeYzz+by5bgwZYqY8uCz/j4489ZsaPe3fN2CRvnfsqHH37Oip1Hdle9XTCDB793CU8sLD/4gk04RhGRlsgE0s0qznNv52rvBgZae/ASafR2isPlzC1aw+Tts5lbuJqw3fhtiIiISPNxNOWdiIiIiIiISJunsIkAYPTujTlpEkaPHmDqx0JaijI2bthGbbzC3fsUTkqt/fksZekLVzGq1yjueGcBs569jOF9TuPOdzdXD1vaeXz51BWMzEkgMyWezPQ+3DajhNUv/5ARA4ZywfmjOPNXH1Jm7+Crv17OiKy9y938+r+57bTuDBx1Nt+9cCyn9BvGje9spmTZi/xiZBdOHDOeSy4ayykDxnDvjOpWK5Fv3uH353clJyWezJR4Opz9GOsjYb555zYm9kis3nZKKhc8tZEIENnwBr8YewEPfbGr+vhCM7izbyKZKamc/+T6wztGEZFWyjIgx6xknHsnp7vyyTYqGr2NCDa5wQI+y1/E5LxZ7AwWEXEUyBMRERERERERERERORaUKhAATL8fq1s3zAsvxDjrLPD5FDqRqCtb9Ax//6QYBzBiB/HzB26gnwsgwrp/Xsak619m4+Df8o9Hf8c9f7uPsyOzePqnP+KpFWEwsxj5szu4sGsVFRUVVJRXUPTF77j2gRkUVjmATcHWLZSTwSlX/4rx7WuWK93Av+5/lfgb3+Ljl35MFwuc0uW8fNMFnP/LqfR78FM+evhcUg1w9szj6QdfY4sNVreJ3Pbj4VjBCioqKigLhnBw0W3i7/nxyW6CFRVUVJRRGa4eCLWyx3PvO48zIbFmFjv3CO74fBWLli3jpSs7Ht4xioi0colGmOFWERPdeQw1i3DRyLCIYVBuV7KweD1/3/QR84pWUxpqfHBFREREREREREREREQaR2kC2cswMFNScJ1+OtYvfoExZAjExoJhRLsyacEyMzMZf94FZGa3OzobdEr4+qWb+eWPxjHq7LtZ4OrMsEm38rdPp3DvmKTqZQrf5oF7P2Cn7aLPmLFkmEB8H3p2tHCKZ/L357+sXs7w4fPU/Pza2/ng4xgenLeaqS/+mvEjz+EXPzufFBMw/Pj9Nfs3Ehh3z4vcMfEkhpx/PiclmpOSBwAAIABJREFUV69v77IZff/zXHtqf4ZcMIYerurFq75ZyqpQ9ddmIIDvWwdkEQgE+NZvkTeBtIwEvMbe5WJSMsnMyiQ5xjr8YxQRaeXchkOOEWSceycXuPJIN4KYTWi9X2GHmLJzIR/tXMCyPRupjISaoVoRERERERERERFpLSzTIiU1jdjY2GiXItImuaJdgLRMZmYm5jnnEOnQAXvJElizJtolSQsVDocpLS3B64/Fsqwj36ARoOu4n/DzMQnc+uc00lNi2HerpdPf5tN8BzAwy7exeEEBOPmUOAA2ufNmAmP2Wcuh14VXMjTOgzXxId6YeKD9+0lKqbnoMLx4PAbggJFAUmrNS6bXh6dmcbushLJmmNOmaccoItI6GQbEEmGIaw+9rRI+CaWzzI6nrDGXqrZDKFLFkl1rWV+whTMyTmRwRo/mK1pEREQaMHSjioiIiIiItDA+v5+Rp55GwHMUxq9E5FsUNpEDi4nBGDwYq3NnnPnzsWfOhMrKaFclLcyuXbv4YsYMBg4eRk77jkdhixbx2T3o3uXbPUKqRdi6Zh2lTvXXG2a8xpt74qo7h4y6nutGgZnS99urGcl07Z7zreBKkxjG3k4lkQhHP2vSxGNsYZyUFJzkFIzCgmiXIiKtSMCwOdu9g3aRClZFYlljxxKqbcbnALaz99+IDTYQtqGmG4oDlDhV7EkoidIRiIiIiIiIiIiISEtQWVnJspXL6NA+h3btjlKHfhGpo7CJHJTpckFaGpx2GmRn43zxBc62bRAOR7s0OW45hMN2zdcGsYN+yN0PDK/rNHJAhhdfoLXcadfEY2xhnJ69sOPiML+YAevWYtj2oVcSkeOe7YAZcegZ2UN2pBSqUlkeia9OkYTt6gVERESkRXOaMCWeiIiIiIjI0RYOh9i0cT0xAZ/CJiLNQGETOTw+H9aAAdg9emB/+SXO7NmwZ0+0q5LjkklGVhouIEyEjfNnk2cPp6MZ7bqq20abNbPuHJmWe4yNYfh90KUrkeRkjCWLsT6fDqEQKHQictyqHXeyneqvbQfCEYhEqpuUhCLg7G1SgkmEmFBl9QIiIiIiIiIiIiLHgaKiIpKSkqJdhojIISlsIo1i+nyYp59OJC0NZ+lSnLVroaws2mVJa+c4DfIZB78JziR5xCj6uKewIARVs1/in/Ou5p6TAtVP21t4/7UlnHv5ufvu5BDbPXJGbCz+2uYpkTDV/X/KKS4JHiB/YmHVvQrXr6+px9gCGWAkJ8OY04j06o0580uMlStwyspoLX1mRKRxnHqz3Dg1jUhspzpnFolUfx0KV4dLRERERERERETk+NalR+9ol9CirF+/jt/+9rd89Om0aJciInJIrew+eWkRTBOrXz/MCRMwL764epodOW75fD4yMjPx+vxN3oZTUkpdZMkpp7T04NM0Wd2v5IaLc7AAwst4+orL+cuUFeRuXcibd9zC57GD67ZVHqxJcDhByssOkDZxKqmsom65ivLadaqoCtWuU0mwoubrinKCteuGggRrbrh3de5JZ1/115FNC5i5ci2zn7mRRz4rqQubVFZU7N2vmUFGSs3LsL2ZpfO/Yf5zv+aR6eWHf4ytSUYG9llnEznzLJyu3aJdjYg0k4oqKC6D4lLYUwa7S2FPKZSUQ3klBKsUNBEREREREREREdmfPz30ALO++pJPP5kS7VJERA5JYRNpGtPEjIvD6t0b67LLYOhQ8PnAUK+C401KSgojRp1Kalp641cuWcqH/3iEO297gZV1+ZJSpj5yLQ888ypfbTnAtAlmOhMffYP7LuhKwIDQlsncNXEAfYdeySc97uTuCzPB3s5Xzz/MWytqNuwUMOUvt/DPmXk0GOO0d/DVc3/indV7l5v2zP18sGYNHz30JFN31cREwit46+GnmbFqFi/c9SILQzXrV83m5Xv+zYogmFmXcuuvR5FigbNrMjcNP4Xb157Lzy5Iq3mxDbPqrUd4cU5+dQ2ewVx56yXVAZXIel65dDjXLx/N90cHDu8YW6OYGJxBg3EumIBz6mk4Hk+0KxKRoywUqg6UVIWrp8hp7q5SIiIi0jIY+jxAREREROSIrF+/jn//6zUAHrr/vihX0zZ4vT5OHDqMDh06RLsUkTbJcBwNAchREIkQWbkS54svcDZurO6V38rsASoOudThc3qB0YTub7NDicyNJDd6vfiSLBLL2jV6vaG9Mxnev/Hr1SoqKmL5ypW079iFpOSUJm+nacIUrpzJrOXbCcd1oN/wk+icEO0MXYRdy6bx5apSUvqdyik9kqq7kxxE2aZZfD5/G64TTubUwTl4GzzbMo7R42qGD46DlbBmNebMLyF3G0bkAOGiVuxov66szOrD6uy+TVq3R/wyeiUvb/R6c0KJzGnCaxLAae1O5PSOQw5r2apw67wc2fd3wyj8FHPPp1GqpmXYU1rd3eRoaer74oF+/lrrz5qIiEhLt2b1KoYO6gfA1h2FxMXFRbmiY2fb1q307t4JgDXrt5CR2XJuDnjzv//mqh9eRqdOnVm0fHW0yxERERGRg/jZ1Vfx+qsv1z3+v/+9z9hxZ0axorbBZRkEPIcaqTlyXyzazjd5ZWRnxzT7vlqaYGWYLZv34FRtiXYprdaQ3p04ZWCPaJfRaK5oFyBthGVh9OyJkZSEs2gR9urVkJcX7arkGCgvL2fLpk2kpGZEIWziIrnXqZzb6xjv9qAsUvuOZWIj8gAxHU/mnI4HerYlHuNR4vNC//5EuvfAmDUTa85sKC6OdlUiIiIiIiIiIiIiIsdU/a4mtR66/z6FTY5QeVkp0z75kD59+tC/f/9olyPS5kS7BYC0IabLhZmTgzVuHOZ550G3buBSnklEDs7weeHU04icez52v/4Qc/ylfkVERERERERERETk+PWnhx4gsk/373lzZ/PpJ1OiVFHbUNvjWBN9iDQPhU3k6PN4sLp2xfre9zAmTICkJNDczSJyMKYBffvinHcBkQsvwklNjXZFIiIiIiIiIiIiIiLNbn9dTWo9dP99x7gaEZHDp7CJNA/TxExIwDV8ONbVV0PPnhAIRLsqEWnJDAPiYqFXL+xLf0Bk8BAcr1dhNRERERERERERERFps/bX1aSWupuISEumsIk0OzMlBWvSJMzx46FPH7CsaJckR1FycjLDTj6F5JS0aJcibYVhQFYWTJyE/Z3v4XQ8AcfU25WIiIiIiIiIiIiItC0H62pSS91Nms4ADMPE1BiDSLPQb5Y0P8PATEzEGjoUa+JEjJNPBp8v2lXJUeLz+cjOzsHn90e7FGlrLBOnew/s886HEaNwMjKjXZGIiIiIiByAUa8joeZDFxERERE5PAfralJL3U2aLhATywWTLqZfv37RLkWkTVLYRI4dy8JMTMQcPx7z8suhVy9wu6NdlRyh3Nxc3vm//5K7dXO0S5E2yHBZkJ2NfcZY7HPPw+7SBUfdkURERERERERERESklTucria11N2kacKhEJs3bqCwsDDapYi0SQqbyDFnejxY3btjXXYZ5umnQ5qmXxGRQ/C4oUsX7Iu/h33+BJzEJJx6d06KiIiIiIiIiIiIiLQmh9PVpJa6mzRNZVUlCxfMY8uWLdEuRaRNckW7ADl+mR4PjB4NHTrgzJ+Ps3IlBIPRLktEWirDwEiIh2HDiHTpgvneu7BlM0Z5ebQrExERERERERERERE5bAW7drF0yWJ69urd4PurVq6o+3rf5/739v8xdtyZx6Q+aZpgMEIwGMHnU4d2OT4obCLR5fFgdeuGnZWF3a4dzpw5kJ8Pmt9ZRA7CSE7BnnAhxprVGKtXVf9n29EuS0RERERERERERETkkFJSU/ly9vxvfX/smFHMmzubP/7pUa79xfVRqEyaKj7gpqoyzKYtJaSm+EhI8OCyNMmItG0Km0j0GQZmXBzmiBFE+vbFmTsXZ/ZsKC9X6KQVME0Tl8uFaeoNU44hA4zEBBg8BLt7D8ykJPh6AYa6I4mIiIiIiIiIiIiIyDHWISuWYb3DrM8tI39nBaVlIVJTfPi8FpZCJ9JGKWwiLYdlYSUnw5lnEunUCXv6dNi0CUKhaFcmB5GVlcUFF15EZUhdJSQKLBMjMQH7zLMwevbC+OpLzHXrcEIhjGjXJiIiIiJyHDGMvVfgjm4cERERERGRFsDtcnNC5y6kpqY2+76S4ryc1Dedbh2CfL2qkFWb97CtMkJcnIfUZC9ut6bWkbZHYRNpeUwTq2tXjKQknBUrsGfOhN27o12VHEBZWRmbt24jMTmdmNjYaJcjxynD44GuXbE7dICZX2Is/Bp27Yp2WSIiIiIiIiIiIiIiEiUer5cBgwYT8ByboIdlGqQl+hnRP43MFD9L1hWxsyBIsCJMaoqPuDjPMalD5FhRzx5pmSwLMz0dY+RIrO9+F044IdoVyQHs3r2bRV8vYHdRQbRLEcHweHBGjMK+YCJO/wHg80W7JBERERERERERERERiYJgRQVfTJ/KunXrjul+YwMe+ndL5uLTO3Ji9ySciMOWbWVsyyulIhhWN0hpM9TZRFo00+WCrl0hJwdn7VrsadMgNxdsTdkiIgfgcUOXrtgZmdCuPea8OZCfr2l1RERERERERERERESOIxE7QmHBLkoz0o/5vg3A73FxSr90ctICLPymiLyCCsrKIqSneomJ9eB2qS+EtG4Km0jLZxiYgQD074/Rrh2RDz+E9euhuDjalYlIS2UAcbFw8ilE+vTBnDcXY95cnLIyhU5EREREREREREREROSY8HosundIID3Jx/INe1j0TRF52yuIiwuTlOQl4HdhGBq5kNZJYRNpVczkZJgwAWfdOpwvv8TZvFldTkTkwCwTIykJZ+yZRE7ohDHjc9i8CSMcjnZlIiIiIiJtllpCi4iIiIiINJQY52VIzxQ6ZMSwbF0RKzbtoby8OnCSkuzDMFDoRFodhU2k1TFjY3H69cNJScGePx9n5sxol3Rci42NpWu37sTGxUe7FJEDMw3o0hUnKQlWrcT46ivYszvaVYmIiIiItBn6UFREREREROTgvB6L9hkxZKf56ZAZYP6qQgp2BSkuqSIjPYDfZ2FZmlpHWg+FTaRVMkwTo107zKwsIoMH48ycibNsGVRWRru0Fsk0DFwuA8s0cVkmXo8Lv9ciNsZDVmrsEW07ISGB/gMHURlShxlp4SwT0tKwk5JxsrIxP/0EY/OmaFclIiIiIiIiIiIiIiLNwO8PcOrpY0mMi4l2KQ1YpknPE5JITfSzauMeFq8tYuu2MhITPCQmePB6LQX6pVVQ2ERaN8vCat8e+5xzsDMycJYuhS1bol1V1JiGgWkZxPjc+L0uPG4Ln9dFnN9DbIyHGJ+LuBgv6clH7001Pz+f+QsW0K1nX9IzMo/adkWai+GyoEtXItk5GOvWYc6YBrm5GGr1LSIiIiIiIiIiIiLSprhcbizLinYZ32KZBhnJfpLiPcTFuFi2fg/5BUHKy0MkJflISvRGu0SRQ1LYRNoEMz4eRo6Ebt2wZ8/G+fprCIWiXdYxlZ0Wy8lpHTBNg5iAB7/Xhc/jwue1cDXjm2hVVRW7i4oIVamrjLQiBhgBP/Tri90uBz7+CHPjBozi4mhXJiIiIiLS4n384QdM+fjDBt9bt/abuq9/feN1JCQmNnh+4qSLGX3qmGNSX3PK37mT4pKGfzfkbttW9/X69WspLStt8HxCfAKpaWnHpD4REREREdmroqKc6Z98SO/evRkwYEC0y9kvj8uif7dkOufEs2rjHhauKWT79jLKy8OkpHjxetTlRFouhU2kzTDdbmjXDvPsswlnZODMnAkFBdEu66gyDROL6vCI27Dwu7zEuP0kegMMSOtK73R9eCXSaElJcN752OvXY876CjZvUpcTEREREZGD6N6zJ5d+dxKRSGS/z7/53383eBwIBLjjt3cdi9Ka3fx5c7nkOxce8Pmzx572re+9+fa7jDvr7OYsS0REREREWjGXaZIY62F43zTaZwSYtTSfHUVBNpWGSEvzERfrwe02o12myLcobCJtT2wsrpEjsQcNwv7ss+ouJ8Eg2Ha0KztspmHgNl0E3D5i3X4CLi8Bt5d4TwzJvjjivTEkemPJjk3FNPXmInLEYmNx+vbDTkmBrxdgzfoq2hWJiIiIiLRYnTp15vuXXcErL71wWMtffe0v2kxnj7PPOZcBAwexeNHCw1p+8JChjD3zrGauSkRERERE2oqctBjOGu5h/bYSFq8tIi+vjLL4MElJXgJ+F6apLifScihsIm2TYWDGxsJ55+FkZ+MsX46zfj1UVES7MgBsTEIOhDEIOwaOYWGbHsJWDBnxnbkosQcu0yLG7SfOEyDG7SPg9uG29Csr0lwM04CcHMjMIjzoRMxZX2GuWI5TWYku3UREREREGvr1Lbfx+qsvH7C7Sa1AIMD1N950jKpqfoZhcPudvz9od5P6br/z92p5LSIiIiIijRIXcNOvazLJ8R6Wrt/Nig3FVFSESYj3kJrqw7J0I7q0DBq5ljbNtCycwYNxunbFWbMG+7PPoKjomO3fMFxgWFieeEzLh2H5cXnjCJkBKmwDlzueGF8KHl8yXnccLsvCY7rwuDzHrMYjlZ6eztgzz8Z0+6JdisjRYZkY7drhnDWeSHoG5vJlsHVLtKtqsSzTxG26cBku3KaF23LhtTwkeWNpF58R7fJEREREpJkcbneTttTVpNbhdjdRVxMRERERkegyTZP4hAT8fn+0S2k004CctAAZyX4658Qxe2k+BYVBSsvDZKT7a7qcALpdVqJIYRNp8wzTxEhKgiFDICkJe8YMWL262ffrjetMTKchGIaF5UnAdPkxLD+WOw7TctGWhmAdxwHHiXYZIkdXfBzOKSOwu3bFnDsHFi3ECIWiXVXUWKaFhUmcJ4DP5cFneYjzxpDgCZDojSPWHSDBG0OSNx6fu/UE5kRERESk6Q7V3aStdTWpdbjdTdTVREREREQkuvz+AKeNPYuAx4p2KU1imiYeE7rlxJEQcLN0XRFbdpazdWsZCQlukhK9eL2W/u6QqFHYRI4floXVvTtWp05Eli3Dnj4d8vKOKCRhWBa4THC5MN1uDLcbw+fHSkokps8QAul9juIBtEw7d+5kxowZDBw8jJz2HaNdjshRZbhdkJODPe5MSE/H/OorjKLCaJd11DmYhA2DkA1hByKYhA0XISuAJ5DNaYk9SPTGYRkW8d4Afpe3OmziicEy1a5PRERE5Hh1qO4mbbGrSa1DdTdRVxMRERERkeirqqpi9dpVtMvOIisrK9rlNJllmWSlBkhJ8LKzsIIvl+STV1BBRUWEhAQPiQkeTa0jUaGwiRx/3G6sQYMwUlOxZ87E2bgRCgoOuorhclWHVeLjMX0+DL8fV1wcZmIirsREzPh4XImJuJKSMFthKy4ROYTYWDhlJPaAQTB9KtbCr3GCQYzW1tHHMTEsF4YrBsMKYFpeTHcchjueCtNPcdjGcicSG8jA7YnFY7rpbJj4XV5cVutMfouIiIhI8zpQd5O22tWk1qG6m6iriYiIiIhI9IVCVaxdsxqPy2rVYZNaHrdFTnosZwyxWLe1hEVri9ixo4JgMEJykhe/X0P/cmzpJ06OW2b79pgTJ2KvX4/9xRc4GzZAJFIdKomLw5WSguH3487KwpWUhGFZWAkJmH4/ht+PFReH6dKvkMhxwwBiY3DGn0skMwtz5QrYsB6CwWhXdlhcMR2J7dgDw3RjuGIxXTGYLh+mKx7DchEHpEe7SBERERFpdQ7U3aQtdzWpdaDuJupqIiIiIiIizcUwIC3JT3K8l16dEpkyZxt5BZWUloZITvGSGO/B7dbNo3JsaKRcjm8+H2bPnpCSQuzWrcT4/bgSEjBcLgyvF0wT0+/HdLujXamItBCGZeKcOBi7SxeMtd9gTJuGsbso2mUBYBoGluFgWWBZBh63C5fLJM7vJrt9B/xpKdEuUURERETaoH27m/j9/jbd1aTWgbqbqKuJiIiIiIg0N8sySYj1MP7kdqzctIcVG/aQn19BaWmYtFQffp+lqXWk2SlsImKamBkZ+DMyol1Jq+T5f/buOzyKag/j+DuzfdM7ndA7AUIVREWRpiAKothQRLFXxGu5Xnvv5SpW9FpQsSOgWMCG0qsovfdAQnq23D9CFiIKKSSThO/nefI4Z2d2zju7Ie7O/OYcp1MxsbFyOl1WRwEqjWEaUkyMgp06KxgdI+OnH2T++Wel9W8ahhx2m1xOm9xOm1xOu1xOu8I8DoV7nfK6HQrz2hUfHSbOcQMAAKCi/XV0k2NhVJMifx3dhFFNAAAAAFSmcK9DqS3jVT/Rq4Ur92jZ2nRtyfcrMtKp2BiXHA6TYnhUGIpNAJRLQkKCTjq5r/IKAlZHASqfzZSaNVMwuZH8y5fKnDVL2rZVRjBY5l0GTZt8himfYSpg2hWw2eWzOxUIj5C7YUOlNEpSVLhLTodNTqdNHqddbqddTqdNdjtVygAAALBG0egmTqdT115/o9VxKs1fRzdhVBMAAACg6nA6XWqX0lG1EuOtjlKhTEOqFedV7zCnGiSFafGqvdq8K1tZWQWKj/coKtJpdUTUUBSbACiXvXv36s+Vq1S7XkNFRcdYHQewhsMupXRQIC5e5i8/K7h+vYy03Yd9imGzKWizyRYZKcPtkeF2yxYRIUVGKs8drjw55IqPkys+TjaPR3a7Kbtt/w9FJQAAALDYrp07NX/eXM2fP1cLF8zXzp07FRkZKZvNrrOHnaHY2Fh16NBJHTulqlNqZ9WuU8fqyEeVz+fT78uXacH8edqwYb0SEhNlGIZ++ukHLVmySG3btlen1M7HzAgvAAAAQFXkcDjUuGkzeZ02q6NUCq/brtaNotWwtlcL/9irZevStXlLpjL2ORUf65LLbZdJcTyOIopNgGrBp6y0PcpxRCo2wqWqdJk5KytLq1etVERUDMUmQL16Cpw+RMbaNdJPPyq4bq0UCEg2m8zwcNni4mS4PbLVqi1bTIwMm01mZKRMT2GxiRkRKcNuU4Skml1nDQAAgOooPT1d/5v4ul5/7RWt/POPf9xu166dkqSvp08LPdagQUNdePEluviSMdW2AGPL5s1647VX9O03M7Rk8ULl5uYess2Tjz1SrF2vXn117tpVI845T/0HDpJpVqVv9AAAAEDNlp2VpR9nzlCrli3Vpk0bq+NUmjC3U13axKteklfzVuzW+m1Zys3xKSbWrahIpxzc0IqjhGIToKry79Tc917Qf9+Zoplz/9SOnMJpamzuODVq21XD7nhJt/WJtjgkgEO4XQq2aKlgXJxcmzfL4XbLHhklw2GXnC7JZsp0ewrbAAAAQDWwetVKPffMU3rvnf8pOzu7TPvYsGG97rv7Lj3y4P0aetZwXXPdDWrXPuUoJ60YP/4wUxNefEFffPap/H5/qZ67adNGbdq0UZ98NFkNGjTU6Msu14WjRis2NraC0gIAAAAoElRQBfn58vl8VkepdE67qYa1whUT4dT8P9P0x/oMbd+eo5xsn2JjXAoLc1gdETUAV7qAKsi3aZruvuQKPTd7t/wKU9MBV+mG09vJ88fbevDZmVo1f7F2GB6rYwL4J6YhJSbKmZhodRIAAACgzAKBgJ575kndd/ddysvL+9tt6tatp46pqWratLk8Xo8Mw1BOdo7WrV2jBfPnad26tcW2z8/P16R339YHk97VDTfdoltvv1NOZ9WcP3zzpk26+oox+vabGf+4jdPpVLPmLbR82VIFg0G1aNlKmfv2afPmTYdsu2HDet11x2169KEHdN+Dj+ji0WMqMj4AAAAAKDLMqR5tEtSiQZSWrNyjJWv3Kjvbp5gYl2JjXLLZDBlMrYMyotgEqGIC26bohiGjNHFlnmREqvNN72nyHb0UY0rypWjnzJ66/8926tTeZXVUAAAAAEANtXr1Kl0xZrR+nf3zIetO6nOyLh59mXoc11OJSUmH3U9aWprm/DpbE994VVOnfKFAoHDUzkAgoMcffUjTpk7Riy+/pvYpHSrkOMrq7bcm6tZxNyojI6PY43a7XacNHqKT+pyijp1S1bpNWzkcDsVFeuTz+fTsCy+qW/fjtHPHDs2fN1fz583V+++9ozVrVof2kZmZqeuvuVJffPaJnn1hgurUrVvZhwcAAADgGOJy2lQ7zqPacR7Vindr8ao92p2Wp/T0fNWp7ZHbbZfNxtQ6KD1+a4CqJLBVH4y7Xm+tzJNkKLLneP33tv2FJpJkb6TjTh+oQSOHqEcVmUEnOjpaHVM7Kzo2zuooAAAAAICj4McfZqpXt9RihSY2m01jLr9Ccxcu1SdfTNOQoWcesdBEkmJjY9VvwEC9M2myFi3/U9ffOE5utzu0ftnSJTrp+B767JOPK+RYSisvL08XjDxbV15+abFCk8SkJN16251a9scaTfzfexp1yaVK6dBRDsffDz2dkJiofgMG6l93/Fvzl/yuDz/+XH379S+2zYyvv1L3zin6ZsbXFXpMAAAAAFCkbZMY9e9eV11axspuSBs3ZWnHzlzl5PoUDAatjodqhmIToArJ/uUpPfzFdgUkydZUF945Ri2KjT/k1vHj/qd3nzhPzWzWZPyrsLAwNWrcRGFh4VZHAQAAAACU048/zNTwoYOVnZ0deqxlq9b6ZuZPeuzJZ9SseYsy77tBg4a6+74H9OPsuerctVvocZ/Pp1EXnGt5wUleXp7OP3f4ITlGj7lcC5f+oX/d8W/Vql271Ps1DEN9+/XXhx9/rinTZ6hhw+TQuvT0dJ07fKhmfP1VufMDAAAAKM7rDdOgIWeqXbt2VkepMkzDUHy0W13bxuuEjklKjHYpLS1XW7dmK21PvtXxjhlOu01et0v1kmLVIrm2asVXkVEGSoliE6DK2Kvpr76v1f7CljP1PI3q6j78U6qALVu26NOPPtSWzRutjgIAAAAAKIe/KzS5+tobNOvn39SxU+pR66dZ8xahmaoVAAAgAElEQVT66puZ+vfd94bmBvf7/ZYWnBQVmnw1bWrosbp16+mTL6bpiaefU1hY2FHpp9fxJ+jnOQt08egxxfoeefaZFJwAAAAAR1nA79fOHduVmZlpdZQqx26aatEgUqf1rKdeKYkyJW3fka1NmzOVnVOwf5QTRjopjWAwKEOSYUg205TDZpPLYVeE163a8dHq0KKhurdvqrNO6apzB/bUiH7dNaBnB53YubUa1EqwOn6Z2I+8CYBKse97ff5t2v4/23a1H3CamlSR0UsOJxgMyu/3K7h/3m0AAAAAQPWzceMGnTNsaLFCk3/ffa9uGndrhfRns9l007hblZRUS1dfcVnou+XFF47U9z/OVrv2KRXS7z8Ze+nFxQpNmjZrri+nf6OkWrWOel/h4eF66tkX1LJlK40fd6OkAwUn02Z8r06pnY96nwAAAMCxKDcvV7/98pNat26tlJTK/Y5RHdhspiLDnOrWOl514zyavWyndu7N08aNWYqPdykiwimnoxpcrLSAYRSOEuNxOWWzmXLY7fK4nYrwuhUd4ZXX41JcVISiIrxyO/9++tWagGIToIrIW/ij5uzdXyFob6reJzYWf74BVDZf1h7tybErMjZCLsY/AwAAOCYEg0FdPXaM9u3bF3qsIgtNDnb+haMkKVRw4vP5NHbMJfr+x9lyOCrnhNz7k97VR5M/CLUrstDkYGOvukaSihWcjB1ziX74ZY5cLleF9g0AAAAAB6uXFKbTYtz6c0O65v+Rpu3bc5SV5VdMjEthXrtM0zjs82vyGCiGIXlcToV73XLabYqJDFe41y2bzVRUuEcel1Mup0PRkWGymcfWhRWKTYAqIaC05Su0Zf/gIEZke3VqxT9PAJXBr53zJmnCS+9q2g/ztHJHjgKSZHMrLrmNUs+6Xc+PP0lRVscEAABAhXn15Zf0/XffhtqXXja2UgpNipx/4Sht3bpF9919lyRp6ZLFeuTB+3X7v/9T4X1v27pV4264NtSuVbu2pkybUeGFJkXGXnWN9mXuCx37Hyt+1/33/Ef33P9gpfQPAAAAAEXcTptaJUcpJsKpPzdmaPHqdOXm+hQV5VRsjEuOY2CUE7fToahwjyLDPYrwehQdGaZwj1t2uym30yG7zS6vxymng+u4EsUmQBXh0+bN21U0EY2tQVM1dVoaCMCxwLdJX983Rte+MFu7/VJYk/66/NrT1dbzh9575Dn9sHqBlu4w5LY6JwAAACrMls2bdedt40Ptxo2b6N4HHq70HDfePF5Tp3yheXPnSJIef/QhDT1rmFq3aVuh/V53zRXau3dvqP3cCxNUq3btCu3zr24ad6tmfPWVZv/ykyTpmace1+mDh6hLt+6VmgMAAAAAHHab6iWGq1acV03rRWjGnG3ak5anffsKlJTokdfrkM12+FFOqppgMCjTNGQzTRmGIbvNJrfLIYfNpviYCEWGexQZ5lFCbGThtDj7tzMMQzbTkHmMjVZSGhSbAFVEfr4vtGzGJympmvzrrFu3roYOO1v5vpo8QBZQAwW2aerNQ3XZW6uUJ0MRqTfqrfdv03HRpiSf2u2cqT4PrVSbju3FAN4AAAA11ysTXlR2drYkyTAM/fflV+X1eis9h81m04svv6Ze3TsrLy9Pfr9fzz/7tJ5/8eUK63P+vLma9uWUUPuCiy5W3379K6y/f2Kapl6Y8Ip6du2knJwcBYNBPfTgfZr8yReVngUAAACoSex2u+rWa6CYmBiro1QrhiE57KbqJ0ZocC+7lq7Zq5Wb9mnTpkxFRbkUE+uSy2k74tQ6VjANQ06HXW6Xo/C/TodcTofCPC5FR3jkcjqVFBel6Igwq6PWCNXkcjZQ09kUFxet0J9k06a/DkSVueBDvTqzQMeNOlddois53mHk5ORoy7btCo+MlceCE5IAyiKgbZPHa9zbq5QnyYg4Tjc/e+v+QhNJsiu5x2nqP3CbTu3OBDoAAAA1VV5ent54/ZVQ+6xhZ6t7j56W5WneoqXGXH6lnnvmSUnSB5Pe1b33P6TYuLgK6W/Ciy+ElmNiYvTAw49VSD8l0aRJU4279Tbdc9edkqQZX03X6tWr1KRJU8syAQAAANWdy+VW527d5XXW/OlfKoJpSgkxHvVKcSm5drhmL9ulzTtzlJPrV2SkQ3GxbssKTgoLYuzyup0K97rldTsVEeZRuMctj8shr8clj8upMK9bbqfDkozHAopNgCrBpuTunVXPnKd1ASmwfZM2+aToon+h2fP19A1X6tH1Q/X2ZedamvSv0tLS9NvsX9QhtavqehtaHQcVhJFrapjsX/T0I1O0IyBJNjU673ad18RW7H02u9+kF/eP2s37DwAAUDN9PPkD7d61K9S+/MqrLExT6NLLx+r5Z59SMBhUXl6e3pz4mq6/cdxR72f3rl366MP3Q+3zL7xYkZGRR72f0rh49GV65MH7lZubK0l6+aX/6qFHHrc0EwAAAFCd5ebmaumiuWqcnKzk5GSr41RbDrupRnUiFBHm0JrN+7R0Tbp27sxVXp5fcbFuGRU9y0wwqHCvW9GRYfK6nYqPjlCt+GjZTFMOu112e+F/XQ677HYKiyoTEwwBVYTruDEa26twdBPf0rf10Bu/aWNamjYt/kKPjLpAj8/Plb1NJ3V0W50UQHWXPuN1fbzWX9hwdtLZ53cRf1oAAACqt08//khfTZtaque8+cbroeUOHTupa7ceRztWqTVq1LjYVDYTX3/tiM9Zt26tXn/1ZRUUFJS4n/+99Yby8vIkFU4fdOnlY0sf9iiLjY3V8BEHbjB5+803QoUnAAAAAErP7/dp+9atSk9PtzpKjRAf5VbnlvEacnw9NasbppzsAq3fmKldu3IVCARKvb9gMCi7zZRr/3Q3kWEeJcVGqW5CjFJbJ6tv97Ya2qezLj2rjy4Y3FuDT0jVqT1S1KlVE9VLilPthBjFx0QoOiJMYR4XhSYWoNgEqCpszTX2tbd024DGCgts1Gc3nqI2yclq3Wuk7pu2UUFvLXU/ubsS+VcLoFz26Ycvv9We/YOV2Nv2V//GfAADAACo7lasWK7hZw7WScf30PSpXx5xe5/Pp3lzfwu1z79wVEXGK5WLRo0OLa9ZvarY6Ct/JyM9Xddfc6VS27fW229NlM/nO2IfM7/7NrTct19/JSc3Knvgo+jSyw4UvWRkZGjhgnkWpgEAAACA4kzTUFyUW3271dUJHWopMcqlrMwC+Y4wQrrNNBXudSkuKlx1EmLUIrm22jatry5tm+ikLq3Vt3tbDevbTSP699BZfbupZ4eWatW4nurXipfX7ZLDZpPdbpNpGjK5VlplMI0OUIWYiSdo/KR5unzNPP22ZJ12ZwflCItSUv2WatsuWTH8iwVQXnmLNHteugo/9tnVuNcJSqbWBAAAoNozjMJ5sufPm6uzzxqijp1SNf5fd2jAoNP+dvvfly8rNmpGt+7Wj2pSpGu37sXa8+fPU99T+/3j9kV30K1fv05XXn6pHnvkId16+50aNnyEbLa//7A7f/6BIo7eJ5x4FFIfHSkdOioqKip05+WCefPUvUdPi1MBAAAAQHFup01tG8coMdalxav2asXa3ZK/sBjFbrMpMsyjCK9LHrdL0RGF09943U65nA553E5FhXtD32NRfXHpGqhybIpu3FWnNu5qdZAS8Xq9apjcSN6wcKujACiBwJ7ftXLr/uHsjAi16dCSDwMAAAA1wF9P0i2YP0/nDB+qlA4dNf5fd2jQ6YMPWV/E5XKpdZu2Ze47Oztb42++QYsXLZTD4dTxvU/Qv+++t8wnDhOTklSnbl1t2bx5f9a5JSo2KbJm9SpddslFeuzhB/WvO/6tM4aeJfOgW9/WrVurPWlpoXbHTqllylkRDMNQSoeOmjXze0mFxUMAAAAAUBWZppQY7VWv9k41q+tRTl6s4qLCZBqmHE677KZZOE2O00FhSQ3FIDMAyiUmJkapXboqJjbO6igASsC3ZYt2FJ2LtzVQ48ZOS/MAAADg6PinE3eLFi7QyBFnqVf3zvr8008UDAZDjxdp2z5FdnvZSpDz8/N1/jnD9OYbr2nhgvma89tsPfHYw7rlpuvLtL8iBxeAHJz17wT8/r99/M8/VujiC0aqZ7fUYse+cP780DaGYahDx6pTbCJJnVK7hJYPHoEFAAAAQOm43R4dd/wJatKkidVRaizTlLxuuxrVjVHrxnWVFBethNhIRYd7Fe51y+1yUmhSg3EzM4By2bVrlxYtXqxGTVsqPiHR6jgAjiQ/T6EZ7M14JSTxUQAAAFSMYDAY+qmItsryXJV8+5LsvzzHoYPbKsnzD/+6fvfNjMO+H0sWL9L55w5X23btNf5fdyht9+7QukbJjQ773MN5/NGH9M2Mrw95fMKLL6hHz14686zhZdpvcnLj0PLqVav01bSpMkxT5kE/Nlvhf+fO+e2w+1q+bKnOP3e42qd00O13/kebN20MratTp64Mw1BWVlaZcv5VTk5uuffV+KAT4Zs2btDPP/5Q5n0VjWDj8/m0edOmcuUCAABAxduymc9sR5NpmoqMipLb7bI6ClAjcYUJQLnk5eVpx/btqlOvodVRAJSALTZOUaEiYlOHTGGftVCfTpypgm6jNCw1qpLTAZWvIi4elvZC5d/2rTJcqKyAC7r7G6W8QFu611GH6btEOUtwgba8r1OZj6NEF49L1rf2v65H5f39m9+vkvyulus4jrT9EX6/StpXSY6jeLsEr6uK7/+ovAdlfJ1K85qV6ne1HL+bh7wHqPKWLlmsC0aerYiIiNBjLre7zPtbvmzpP69burTMxSYejye0/PvyZRp+5uDDbF0yixct1IhhZ6hO3bqhxzZv3qQ6CdHl3neRIYP+ebqfssjNzdWAU/uUez8bN25Q6+ZlLyoCAAAAqqPs7Cx9//VUtW7dWikpKVbHAWocik0AADiG2Bp2U8e6phauD0iB7dqyySdFFX0cyNai52/STU9u0GmvjdEwS5MC5ZBdoO8nTNZM46NDLoA+9thjViYDAKAYwzBCP+VpS1JGRkaJ+61Vu7bi4uK0bGlhoUh5CoXstn8+tWR3lP20UyAQCC3b7XZFRUcr4PcrEAgc8pOXl1eqfbvdniNvBAAAAAAADotiEwAAjiWuHrro0p766N8/KN23TO8//qZOvGeoGhub9Ouk+3XX0wuUaz9eKR3KfncrUBUUu4sfZXa4i5rlvUCqUlxADa1TyftSafdd2gu7B7dV0r5K13dJX6PyvGYqz77Lcxwlfs1K8l6rfK/REXKV9jUqy3GU6L0u52tW+uNQyfatUh5HOV4zlWZfKn1f5X2vS3wcFeTJxx/Rf+68/bDbJNWqpRtvukWjRo/RVZdfGio2ycnOLnO/3br30EeTP/jbdV26di/zfnNyc0LL3XscpynTv/nHbX/8YaYG9TvliPvsP3CQbrn1dv304yzdedutkqR69Rto8ieflzlnkeO6pcrv8+nl1yaqfUqHcu3rq+lTQ/mcTqd+/HVeufPZbDaFh4WXez8AAACoHJFRjDoNoOqj2AQAgGOKTU0vfVkv7btOtz73ldZNuVlDptx80GqvkrqepC4JpnURgfJy29VpyIlKrd1KBy61SzIMDRx8ZpkuBJekXZKLoKHlElw0Lu1F0KN2HACAaulwf8MTEhN140236OJLLwtNT5OQlBRav2rVyjL3O/aqa7R8+TJNfP3VYo8/+PBjOvmUvmXe78o//wgtJyYmHWZLKRA4fIHp4DOGatz420JFIEuXLA6tS9u9S81btJRplu/zb9Gr3zA5WS1btS7Xvr6aPjW0HB0ToxYtWpZrfwAAAAAAVASKTQCUS0JCgk44qY+cbu6QAqoNM1G9bnpXMy9dq4Vzl2hDWo6Cdq8iE+ureZu2ahDNxwNUc6ahqFrxatCg4SGrEmvXsyAQAAAV7++KTeITEnTDTeM0eszYUJFJkY4dO4WWly9bqtzcXLndZRvd7qlnX1CTpk21eOFCOZxO9Tq+t86/cFSZ9lVkwfwDo3l06NTpMFsWn3LnYGcNO1s3j/+XWrdpW+zxtu3ah5azs7P1x4rf1ap1m3KkPbrmz50bWm53UFYAAAAApWMapjxer5xOp9VRgBqJq0kAysVms8njDZMMm9VRAJSSLaqRUk9upFSrgwAAAKDcDi42iYuP1/U33qxLL7tCXq/3b7fvlNo5tOz3+7Vk0UJ16Va2aW9M09R1N9x85A1LaMOG9dq9a1eo3Sm1y2G3P7jYxDRNnX3OSN18y61q1rzF327frn2KHA6HCgoKJBUWtlSlYpODC22OdOwAAAAA/pnH69WpA06T18k1LKAiMEY+gHLZtm2bpk35XNu2brY6CgAAAAAcswzDUGxcnO6+7wEt+X2Vrr3+pn8sNJGkps2aKyIiItT++ecfKyNmifzyU/EsHToeeWQTm82mCy66WPMWL9dLr7z+j4UmkuR0OtWmbbtQe+6c38oX+CjavWuX1q1bG2p37ERpOAAAAFBWBfn5+nPF79qxY4fVUYAaiWITAAAAAACAam7AwNO05PdVuv7GcQoLCzvi9oZhqEfPXqH2G6++omAwWJERS+zVlyeEltundChWFPN3WrRsqYXL/tBz/52gxo2blKiPLl27hZY/mvyBcnNzyxb2KHvn7TeLtVM7M7IJAAAAUFb5Bfn6fdkSbd261eooQI1EsQkAAAAAAEA117RZc4WHh5fqORdfMia0vGbNas34avrRjlVqixct1K+zfw61Lx495jBbF6pfv4EaNGhYqn5Gnn9haHlPWpo+fP+9Uj2/IgQCAb064aVQ++RT+qpW7doWJgIAAACAmsOXlaadu/YpL3DkbVEyFJsAAAAAAAAcg/oPHKSGDZND7RdfeNbCNEUZngstR0VFacS551VIP51SOxcbNWTCiy9USD+l8fX0aVq7dk2ofdnYqyxMAwAAAADVnV87576tu0cPUtemSYqvnawmjesqIS5RjTr10YgHvtVeqyNWcxSbACgXu92u8IgI2R0Oq6MAAAAAAErBNE2NvuzyUHvG11/ps08+tizPLz//qHf+d2AamfMuHFWiKYHK6rKxV4aWFy1coPcnvVthfR1Jfn6+7r7rjlA7ObmRTu0/wLI8AAAAAFCt+TZp2p0D1LXvFXr8gx+0MfJEXfXgC5rw1HU6IT5fu1fN1+IdhjxW56zmKDYBUC5JSUk6tf9AJdWqY3UUAAAAAEApXXTxpUpITAy1r7/2Su3aubPSc2RnZ+vKyy5VMBiUJHm9Xl1x1TUV2ufQs4ardp0D32VvufE6bbNoLveHH7hPy5YuCbWvuOoamSan7QAAAIDycDqcatm6jWrVqmV1FFSmwDZNuWGILnh6tnb7DUV2vlkffPOu7r/qfJ1zyV165NL2ssutdp3ay2V11mqOb60AyiUjI0PLly1VRnq61VEAAAAAAKUUHR2tp545MIXM7l27dO3VY0NFH5Xl9lvHac2a1aH2vQ88rAYNGlZony6XS88+/1KovWfPHl179dgK7fPvzJ83V08+/kiondqlq8YcNOoKAAAAgLJxOJ1q0aqNkpKSrI6CShPQ1g/G6fq3VipPkhHZU+P/e5t6xRSVRdjV6LjTNXDQSA3pEW1l0BqBYhMA5bJv3z6tWL5M+zKY1QwAAAAAqqPTBg/R2SPODbWnfP6Zrrny8korOLnv7rv02isTQu0TT+qj0WMuP8wzjp6+/frr/AtHhdrTp36p28aPq5S+JWn1qpU69+wz5ff7JRUWwLw44VXZbLZKywAAAADUVDnZ2Zox7UutWLHC6iioLNm/6KmHv9D2gCTZ1PTCOzWmhb3YJu7jx+l/7z6h85rxvau8KDYBAAAAAAA4xj3yxNOqU7duqP3WxNcrpeDkvrvv0qMPPxBqR0ZG6rkXX5ZhGBXa78EefORx1atXP9R+/tmnKqXgZPWqlRrY7+RiU/fc+Z971LxFywrvGwAAADgWBIIBZWVlKi8vz+ooqCR7p7+q91cXFvPLmarzRnWV29pINRrFJgAAAAAAAMe4mJgYfTZluhIPGl76rYmva+SIs7Rzx46j3l9GRoauvPzSYoUmERER+vizL1W/foOj3t/hREZG6t0PPlJMTEzoseeffUo3XHuVcnNzK6TPOb/OPqTQZOT5F+qqa66vkP4AAAAAoObbp+8//1Zp+++ZsLcfoNOaMHpJRaLYBAAAAAAAAGrWvIW+nP5NsYKTL7/4XF1T2+uTjyYftX6++/Yb9ejcQW+/NTH0WEREhD75fKo6d+121PopjfYpHfTplOnFCk5ee2WCenZL1dzffj1q/eTl5emuO27TqSefcEihyfMvvizT5FQdAAAAAJRJ3kL9OGevCmtN7Gra+0Q1ptakQvENFkC5REVFqW37FEVGxxx5YwAAAABAlVZUcHLwlDppu3frovPP0Rmn9de0L6coEAiUad+zZn6v884ZpjNO669NmzaGHo+JibG00KRISoeOhxScrFr5p/r26a1bbr5B69atLfO+/X6/Pv34I/U+rqueeuLRYq8hhSYAAAAAUH6BtOVasWX/dy0jUu07tZLd2kg1Ht9iAZRLeHi4mrdoqYiISKujAAAAAACOgmbNW+iXOQs14tzzij3+3bffaMSwM9SxbUs9/uhD+vmnH5SVlfWP+8nLy9Pc337V8888pW6pKTp9QF998dmnxbbpP3CQfp232PJCkyIpHTrq+59+Vc9evUOPBQIBvfTCc+rQpoVGDDtDM77+qsTT62zcuEGPPvyA2rVsqgvPG6EVvy8PrfN4PHr4sSf1wkuvUGgCAAAAVACvN0ynDjxdrVu3tjoKKoFv82ZtL6rrtzVQ06ZOS/McCyjmAVAu27Zt0y+zZ6tNu46qVafukZ8AAAAAAKjyoqOjNeHVNzTkjDN13TVXaOeOHaF169at1T133SlJMk1TzVu0VNNmzeT1eCXDUG5ujtauWaPfly+Tz+f72/1HRkbqoUef0HkXXFQpx1MaycmNNGX6DL34/LP6z79vDxWWBINBTftyiqZ9OUV2u12tWrdRx06patOmrQKBwoGav/jsM337zQzNnzdXC+bPK/a6Haxb9+P03wmvqEnTZpV2XAAAAMCxJhAIKCszU267IYfDYXUcVLT8fIW+gZrxSkqiFKKi8QoDKBe/36/cnBz5/X9/AhEAAAAAUH0NOn2wevU+QW9NfE0vv/jfQ6aSCQQCWvH78mIjdhxO7Tp1dPHoMbpk9GVKSEysiMhHhWEYuuLqa3Vq/wF67JGHNPmDScrLywut9/l8WrJ4kZYsXlTsec889fhh99u8RUtdefW1uuji0YxmAgAAAFSw3Nwc/TTrO7Vu3VopKSlWx0EFs8XFKdooapmy2f6yQeYCffjqTBUcN0rndomu5HQ1E99qAQAAAAAA8I+ioqJ09bU3aMHSFXp/8qfqP3CQoqNLfmIuPDxcJ/U5Wa+/9Y6Wrlit8f+6o0oXmhysSdNm+u+EV/X7ynW66577VK9e/VLvwzRNDTp9sD6dMl1zFizRxaPHUGgCAAAAAEeZLbm7Otfb/10rsF2bNh18o3y25j99g66862l9v4PpdY4WRjYBAAAAAADAEZmmqX4DBqrfgIGSpNWrV2nB/HlaOH++du7codzcHAWDQbndHsXGxalDh47q2ClVzZq3qPbFFXHx8brx5vG64aZbtGrln5o/b67mzZurBfPmaePG9crNzZXf55PL7VZERKTatmunTqmd1bFTZ3XslKqoqCirDwEAAAAAajbXcRoztpcm/WuW9vqW6u2H3tApD56ppsYm/fzOfRr/+Hzl2nurU0e31UlrDIpNAAAAAAAAUGpNmjRVkyZNNWz4CKujVBrDMNSseQs1a95CI849z+o4AAAAAIAQm5qPfU1v7btG1z01TWs+u1GnfHbjQau9qtX9ZHVPrN43Q1QlFJsAKJfatWvrtCFnyB/868RnAAAAAAAAAAAAgDVsNpsSk2opMjLS6iioLGaiThg/SfMuX6N5vy3Rut3ZCjrCFJVUXy3btlNyDOURRxOvJoByyc/P1560NLnDIuV2e6yOAwAAAAAAAAAAAMjt9qhHr97yOrlh+lhji26srqc2Vlerg9RwjBEDoFx2796tn36Ypd07d1gdBQAAAAAAAAAAAJAk5eXlat6cX7Vx40arowA1EsUmAAAAAAAAAAAAAIAaxefzadOG9UpLS7M6ClAjUWwCAAAAAAAAAAAAAACAEqPYBAAAAAAAAAAAAAAAACVGsQmAcvF4PKpdp67cHq/VUQAAAAAAAAAAAAAAlcBudQAA1VtsbKx69OylvIKA1VEAAAAAAAAAAAAASZLL5Vbnbj2UEBttdRSgRmJkEwDlkpaWpl9/+Vlpu3dZHQUAAAAAAAAAAACQJNntdtWuU1dRUVFWRwFqJIpNAJRLTk6ONm/aqJzsLKujAAAAAAAAAAAAAJKkrKxMff7xh1q8eLHVUYAaiWITAAAAAAAAAAAAAAAAlBjFJgAAAAAAAAAAAAAAACgxik0AAAAAAAAAAAAAAABQYnarAwCo3uLi4tSj5/HyhkdZHQUAAAAAAAAAAACQJBkyZLfbZbPZrI4C1EgUmwAoF6fTqfiEBPkChtVRAAAAAAAAAAAAAEmSNyxMg4acKa+TYhOgIjCNDoBy2bp1qz7/5CNt3bzR6igAAAAAAAAAAACAJKmgoEBr16zS7t27rY4C1EgUmwAAAAAAAAAAAAAAapT8/DwtXjBfmzZtsjoKUCNRbAIAAAAAAAAAAAAAAIASo9gEAADgKAkahtURAAAAAAAAAAAAKhzFJgDKxTRNuVwumTab1VEAwHrO2graohUMUnQCAAAAAAAAAABqLrvVAQBUb7Vr19agwWcoryBgdRQAsJ63mQLB02VkLZayl8tQgdWJAAAAAAAAAOCY5HA41KRpcyUkJFgdBaiRKDYBUC6ZmZlat2GjYuNrKTwiwuo4AJEnWtcAACAASURBVGAtwyGFtVbAVV9GWCuZuz+VEcixOhUAAAAAAAAAHHOcTpfapnSQ18no/EBFYBodAOWSnp6uJYsWKn1vmtVRAKBqMAwZjkgpLEWBxAsU8LZT0HApGLQ6GAAAAAAAAAAcO3JzcjTzm6+1cuVKq6MANRIjmwAAAFQEw5A8jRV0N1Agc6lsGT9K+ZusTgUAAAAAAAAAxwR/wK+9e/coOzvb6ihAjUSxCQAAQEUy7DIiOijgiJP2zZOZu0qGb5fVqQAAAAAAAAAAAMqMYhMAAIDK4K4vORIVyN0gI/07GblrZRjMrQMAAAAAAAAAAKofik0AlEtERISat2yliMgoq6MAQNVnc0lhzRR0JimYtVhm+kwpkClDFJ0AAAAAAAAAAIDqg2ITAOUSGRmptu3aK68gYHUUAKg+HJFSdC8FXA1k7P1Gyl0nQ3lWpwIAAAAAAACAGsPj8eqkvv0UHe61OgpQI5lWBwBQve3YsUMzpk/T9m1brY4CANWPu76C8UMUiO2voD3J6jQAAAAAAAAAUKMEg0EFg4wsDVQEik0AlEtBQYEyMtLlK8i3OgoAVD+GITliFYzsJn/iOQqGdVLQcFqdCofjy9KerRu1ecde5fitDgMAAAAAAADgn+TkZOv7GV/pzz//tDoKUCMxjQ4AAIDFDMOUXLUViB+qYE5HmRk/yMhdI0M+q6NBknzbNOfd5/XypKn6acEapRe9LbZw1WrWQYNvfVV3DEigihsAAAAAAAAAcMyg2AQAAKCqMB0ywpop4G4gc+8MKWupDP8eq1Md03wbv9T9l12tV+fvVcCIUJMB1+uW01PkXf2eHntqujb/sVIZ9ggKTQAAAAAAAAAAxxSKTQAAAKoYw+ZSIPpkGZ6mMjPnSlkrZKjA6ljHnMDWzzR++BhNWlsgGZHqdP07evOW4xRtSvKnaPesb3TfotZKSWHqIwAAAAAAAADAsYViEwDlkpSUpFMHDJJh40IbABxNhs0teVso4KwrOerI3PsN0+pUpsAmfXjbzXp/bWGRT3iPcXr85v2FJpJkq6POA87QwFa91S2WcU0AAAAAAACAqsZm2hQTE6uwsDCrowA1EsUmAMolEAgoPz9PDpdN/EkBgApgD5diTpI/vIPMjF9kZM6R/DkyDKuD1WzZPz+jZ6bvUlCSbE004pbRalbsf3NOdb5ygjpbEw8AAAAAAADAEbg9HvXuc4q8TpvVUYAaidswAZTLzp079f03M7Rz+zarowBAjWY4YhSIPkmBmAGSp6mCfIyrQHs1482PtN5f2HKknKvzurqtjQQAAAAAAACgVPLz87Rk4QJt2bLF6ihAjcRVCgAAgGrCsHkUjEhVIG6IAtF9FDRcVkeqmTK+09SZewpHNZFdrfoOVBNufgAAAAAAAACqlYKCAq1ZvVI7d+60OgpQIzHnBQAAQDViGDbJmaCgrbcC9jgZ6T/JyN8sKcjUOkdJ3uKftSCjsNREtkY6rndjUWsCAAAAAAAAAMABFJsAAABUQ4bNKUV0VMDbWua+32Ts+0lBX4YMBayOVs0FtGfFH9q+/2U0wtupQyuntZEAAAAAAAAAAKhiKDYBUC4ul0vxCQlyudxWRwGAY5JhcykYfbyCjngZWUuknJUyAvusjlWN+bR1685QyY6tfhM1YrYiAAAAAAAAAACKodgEQLnEx8er94l9lFfAnfQAYKmwVgq66iuYt17m3m+l/M1iVp2yyc8vCC0bsUlKNC0MAwAAAAAAcKwIZGnHurXatk+KrN9MybHcAYTycTldSumUqqT4OKujADUSxSYAymXv3r36/Y8/VLd+I0XHxFodBwCObfZwydZaAXucjIyfZWTNVzDgk0HVSSnYFBsbHSrUMUxD5l+KTbKXfqQ3v89Xl/POVmoMlSgAAAAAAADlkrdKnz90qx56baYyk1vIWP6b1uZGqkmXLmpoy1B6XrBwOzNKfe/7RP/qRREKSsbucCi5URN5nTarowA1EmfHAZRLVlaW1q1Zo6xMpmwAgCrBMCRXLQXjh8qfeJGCnsYKii9TJWdTg66pqrP/U3Jgx2Zt9h20OnepXhl/re5/7lttc/JRGgAAAAAAoFx8K/TaeX100cOfarlzmB6fPlXjT3JJ/nStnv2r8qP3adHcOZo3d47mzZmvtWlBqxNXHN/v+nTyb8q1OkcNkp2VpS8+maylS5daHQWokThDDgAAUBMZhuRpokDs6VLUCQo66lidqNpwdR+t0T2jZEjyrZikZyb+qs179mjrsql6duwFenJutuwtOyrFY3VSAAAAAACA6iyg7ZPu0D1Tt8ovyYyKU4yRqezc/WPOGh7F16l3jFzM9Gvtazdp3DtLKTY5ioIKyu/3y+/3Wx0FqJGYRgcAAKCmMkwZrtoKOBMlT3OZ6d9JuatlBH1Hfu6xzNZcF78wUZk336QXvlqtabcN0LTbDqw2PUnqekI3JR4bZzoAAAAAAAAqSLZmffmd9uwfrCTo9ytg1NZ5T72n/Ld/VV7LM3R2/r368mVrU1aGvGXP6rp7ZmhPl2FWRwGAEqPYBAAAoKYzbJK7oQL2s6TcP2TunSX5dslQDR52tJzMxN667s3ZGrVuvuYtXa+0nIAcnmgl1Guu1q2TFe20OiEAAAAAAEA1F9ij3btzDrT9fgUkuRsP1BV3DpQkZb9jTbTKFNj2pW676E7NTAuKU04AqhOKTQCUS0xMjDp37aaIqDirowAADscwJEek5Ogiv7etzJ3vy8jbIAWyrE5WhdkUldxFfZK7WB0EAAAAAACgBrLJMA5uB8t8a5Q/fZV+/X62/tyRJ09SU7Xv0VOtEiy+DJq1Tr/OmKVlO6XE9ifplK71FVg+U0tijle32oVD5vrWf6xbRlyi15aXZPKcgDLXz9bMn5ZrW26YGnQ5WSe0SyxZgUruBs35aqaW73Wrfsfe6t0uiYvEAMqNwb8BlIvX61WDhsnyhoVZHQUAUEKGzaNg/Jnyxw5U0NVIQT4SAgAAAAAAoNL4tPS+bkqIbKRbZxaEHvWveloDYt1qeOGHyi7prgLb9cNjw9SlWRsNHjdRi7Zu0E/Pnq9erVvptBve0OL00IZK+/5eDW4Wrthwl2LCXYoJdyup/TA98OkK5a2erNv6JyshomidS7G1UjX6kSla65fS57ymm/s1VFxEtDoNu1/fbgscNlbWoud0bmpbDbxpohZvWqnvHhuuPn3P1NnnXKFJvxcU5vnpQQ0/eaReXZwZKrLJn36FGoW7FBPuUcebZyqvaIf7FuiNsT3Utt0wPTFrvTbOekKje7RUz4te1KLM/Ue4baZevPZktYxyh44hruXV+mzWYzqnU1udcs4lunbsSA3t0UY9L3pe89MPzV3ThIWFa/CZw9W+fXurowA1EkVrAMply5YtmjlrljqkdlXdeg2sjgMAKCl7hBTeSQFXQyn9Z9kyf7Y6EQAAAAAAAI4JdjU890m923mjvrpnlF5a6JMkmXXP1ANPX6yW9VLkLtF+9unne8/QyEfmKsNopNHvfawn+oRLezoqt/MITXrpMg1evlMffzxOHb2mYk+8U+++mak+/Z7QCt/+JM1P02Wnt5TLbKkH3rUrrcvZendLYSGJGdFF51w7SI1skrpcovtumK0vd8XqxbdvV1fXYWLlz9VTY2/VlxsC6vXw63rimgYydbv+eHWkBl+fpjqZhaUlZnwvXfn07dKl9+jb9MLH7F2u1+u3nSSPDHkatJNDkrLn6unhp+k/s/YoYfjbmvTCMMUHz1f0hlTd9cF1GuGP1Iw3R6perRM09onHtfvXHnpkiV+SFNw7XXddU0snXPGiJuh7vXD/G1qYka4VH9yokYE4fTvxHNWpwfeh+Xw+bd+xVQlxMYqOjrY6DlDj1OA/HwAqQzAYlIp+AADVi2FIzngpboB8SWMU9LZT0HDwJx0AAAAAAAAVKqLJcTrl1OPVJOrAPDqGp746ntJPJ7WvVaILmHm/Pqybn5irjKBkRHZV727hhStiTtbJXb2Sgtrzw726+bml2l9borBuV+uyEyNC+8j88RNN3bF/lJKYE9WnS3hoXWDr1/ryp6IxVnxaNXeZ6o24SKmHKzSRlL/gA320NE+ST4smv6JfdgckudXi4ud09+lhys72SzIV3eJ49T25vRIdB55rxrZQ73791bdfP/VqFStT+Vr81NV6YNZuBYw4nTRsgOJNSbYm6tWziWwKaOun9+rZn/dPw2MmKSHuwGsazMxX6l0f6olrRmrENf/VSzd22T/tTkBbP7lHz/xSkul7qq+8vFzN/W221q9fb3UUoEai2AQAAOBYZzpkeJvIH3emAtGnSM46VicCAAAAAAAADmOfvprwupbvn4XHrNVA9UJFG04lJcXuvwiaowVvvqZf8/evMutr6MhTFFNUj5HxnT74eKMCkrR3hr5ealdU0dXTwCZNff9bZUqSb5E+nu7WoLOay3aEZIFdu5QekKSg9v32oIb1uUAvzUlTwKyjM2++Sd2jfEfYw0FyZ+m1NxYoV5JsDdS4SdGYL4bi4mJkSJJ/rb7+fG7RAco8UGsis9YAjRiUtP+1sKnpqaeoedG8F/7VmvLBLwem6gGAUqLYBAAAAJIkw+5RMPI4BeLOUCCss4Km1+pIAAAAAAAAwKHy5uj7H3epaIBeIzxCEaEqEENul0tFNRf+DT/ph5UHCjxiB5yjvglFa7P1y/uTtNovpU39QH+e8oiu6140dElA26ZN0oy9Uv68D/V1xBANST5SqYnkaJOilgfNA5S98n3dcmp3jXxspvZ2uFJXD4gq8WH6ls3U7G37R14Jpmn+u4/o8Ucf0uOPPqr/zd6+//j92vj78r/fgWGT/aCmvVET1Q89ENCWhb9qg7/EcQCgGIpNAJSLYRihHwBA9WeYDsnTQMHY/gpE9VHQHmN1JAAAAAAAAKC47PXaUDT9jSQ5XfrH2W38W7Rpw0GjiUT10/ABdUIXSfPnfaAPlmzWF59s0AnnnKMRZx+vsP3rgruma/K0rfpt8ldKGDJUDY5cayJb8gW6cVSL/dPV7Je3VlP/fZr6X/o/rcr/p2ceyrdxnbYWFYMEspRTEKawsHCFhYUrofdVeuCxJ/XwY0/qgVGpJduhK0bREQeu5wR2bNO2Ugy0AgAHsx95EwD4Z3Xq1NHQYWcrryBw5I0BANWHPVyKOk6BsHZS1hKZ6d9IgVwZoftFAAAAAAAAAIsEAwocdJrKsNllO+ie2EDwoGsWhlH4ExKm3ueeoYb/e15r/ZJ8S/Ths/eowY5+uifVpTrJ5+iEu77Rl+lBKbhH3799lxxb62vwDXVLeBd/jPo8+Kleyh+h615bpIxQzlytfu9KjW7cUl/f0bl4Mco/CAT8Bx2nT0k9LtPYIe7DPeXwDKccDkPaf46v8Gbisu+uqrPbHarfMFmxsbFWRwFqJIpNAJRLdna2Nm3ZqsjoeHnDwo78BABA9WGYkiNKiuqpgCNKxr65MnLXS8Fcq5NVmLv/fbvSdu8u1XNiYmP1n3sfqKBEAAAAAAAAOERYPdWJN6UthUUlQb9fB8pLgsrLzT9wy5SZpDp1iw9J4u5+rgY3fVFP/+GX5Nfqd/+n6P/MURu7ZCYN1vBTxmvq5N0KSsr45g3NOO0VPZxUigkjnE105rPfqVnqjRr7r4laml6UJkeL35qoX8Z11gn/OBTLAbbYeEWbUkZAUjBDyxf+Lt+QjmW/wBsskK/gQJWOkVBLtUowWkt15XK51KlzV3mdNfggAQsxjQ6ActmzZ4/mzflNe9J2WR0FAFBRDEPytlUgboj8Mf0VtEVbnUiSZDNsctscCnN4FO0KV+2wODWNrqfUpJZqEFmrTPvMzMxUxr6MUv1kZmYe5SMDAAAAAADAYbm6qnf3KIUG5cjJVFao2iSorKysULGJWbubjmv+l/IMZ6qGn9nuQNGGu5vOHNZChSUJMTr1nNNUq+gqqhGtE886TQklvKoa2DJZL01aK78i1G7Uy/r6u4kalRIZyhrYufWgqWsMmYcZWcTRuqNae4taPq34/EMtPGQanixt27KnZOEK9io9M/TKqFZKZ9WvwXUYubk5+vmHmVqzZo3VUYAaiZFNAAAAcGSGIcMRK0V2VcAeIyPjR5m5Kyula5thk800FeHwyutwy21zymN3KdoVpihXhCKc3sJik/D4cvf16BNPH4XEAAAAAAAAOLKgggfP2BwMHjKBcyAQLL59qKAkRgPHnKfGnz2n1T4psH2zNvul1nZJgQxt35G5f18utb9gtHodMoqIXa3PHqaOjy/UnHwprOfZOiP5QNVF+MkjNajeW3plQ0BG3Kka2q8U07AY2zXtkSfUvP+zOilK8rY8V09+LO3tcZE+2R6UrWFTNXYUbeuRy3lgWptgfp7yApJyluq3P+qqc4eBOvOUOE3/pHCUFd/vL+k/L47U5GvbqPCQAtox5RZdPWuYPnz4pCNG861drQ0F+xu2hhp4Zk+VYICVasvv92vnju1KiI+zOgpQI1FsAgAAgJIzTAW9LSRPI/kzl8rM+EEq2CbjkFMBJecPGvLJkC8oBWSqwHDIb7rks4UrMbKRBkc2lWmYinKFKczultvuUpjDI5vJIH0AAAAAAADVViBNe/YdOKcUyNitNJ8kZ9Ejfu3avefA9DjBLO3amaGA3DIlhR1/hx6+7Dtd8MIy5Wz/WTMX5Kpvd7eU/qNmLyuQZCiq23g9ev3fTztjazpCw7rfrzmzHOo9fKjqHHyqyd1LZ5/RVK8/s1Lx/c7WKaUY6NcMD5drzSu67qqOev+lS9QyTDLjW6l5ok3a7lLq+ReoY9ExOpqpVXOPtDlLkuRb9KH++0643F+8r/zrPlBXM0Zn3XmH3v3hRn23OygF0/XDnYM0fNM4jepdV9mLJunVbxvoPx/+faFJYPtUvf7enzruouZyyaeVU7/SHz5JMpQw8DZd3ctd8gP7f3t3HhznYd53/LfvXsDivu/7WtwEQcpKGluxYjVp4thJZSeTdsZJ3MYTW9PGacdtx3E9Th1VcWfiqo0Vu6lrx85kUk8dTRJfsTxxJFtSZIu2RIokSILEfeziPhfAnv2DAKkX77uLBQFxKfD7+Uej9+VyHvA37+4+zz54FwD2YdkEAAAAh+JwSHJ4pPzTinvKZKy9qMTOuBzRpQMe6ZTDcMrhzpfhzJHD5ZXh9GnbmaVQzJAvq0SGu1D5ubVyO5xyO13yGG65nCf4Xp4AAAAAAAD3nbgWXvqy/vRLX9AXzt/6PhklFv5Wj3/goxr5td/Qh/5ZmX78Z7+vT37mB7r9J8J64cl/pY95P67/+r6zklGiRz71t/pS3gf1kf/5Hf3v979HkX95VqF/+Lyens9X13s+pk//0b/VA7lJynDW692/8jY9filXj76zQuZfa/Jo8Nfeq67PfVGnHv0Z5R3mx3PnKLesVfXLf6Jffehp/fQ736Lisa/pC0M56vn1P9bn/k337Q9ojQb9+hN/oL9/9CP69nRUiaXv6b8/dl3v+C9f1Zd+4uYiiKvzQ/rCV8L6nQ9+Ul8b3lAiMq3nPvNhPfeZbNW/43f16S9/XA8V2ZdiVDykM6tP6rHHitRSNKy//l8/VNjIV9u7fk9PPfU+NTB2A3AEjkQicee/hgrgvreysqIrV6+puq5RhUWHuI0cAJwAHleKL1S9jyRi2zK2R6S157W2MKbtcFySU4a3SE5PkQxXnpzeIjm9RZLDKcNTsLtski3DlSOHcfe62nCUt74AAAAAAAAnTWz5il587mVdD27KWVirzp94uwbrc3TgfXFXzumvv+fRI+/qU47lL53U979yQeXv+QV1eOwenKyYMf3jSzGd/Sctis78SM89+yNNRYrU+pZH9FZ/oW1N8eXL+u7fPa+xcJHaf/Ln9LY2m/WW2IqGX/iuzg0HtWEUq+nMT+ttvRUylRYP6vO/2KR//w83vyvHqPmAnr74lH5y8Zy+++wrmo0WqWnwIb21u+y+uCPB5uaGnv3Ot9TV1aX+/v5MlwOcOCybADiynWhcO5H4wX8QAE4Ylk1eJ5GQwnMKb05LnlI5HE4ZTq/kcMthuOUwPHI4M9/C3tGySXhDyysbirjyVFycc1804gAAAAAAAHgTSrJs8nZvhuvKkFgspo21ZRUX5Cknx7JOBOCImJUDOJKFhQX9+JVX1NrepdLyikyXAwDIFIdD8lbI4z0JrwXbmn356/rqX/2Nvvv9c7o8FtTm7v1a3QXNGvy59+nDH31MP1XJfUYBAAAAAACAe5VhGPL5cuTxHObWNADSdeDdowAglZ2dHS0uLGhnZzvTpQAAcCx2vv+f9cvv+oA+9cVv6LXYaf3m45/Vk5/813qg1FBkdUQvfeUT+o1/8YR+xEsfAAAAAAAA7ilRRWOv+99ETNGM1ZJ5odCmnvnW13X58uVMlwKcSNzZBAAA4A7d0Vey4N4XjysmSd4BPfZ/vqjf7fZIeq/emjOht/+7Z7QmaXvo/+npcx/R4E/dp/cgBQAAAAAAwL0nMqbJmfit/42vTGl6OS5Vcv8BAMePZRMAAADgdZyl3XrbP/1Zrda/R+/1791i01DJwIAaXM/otaikREib6ywbAQAAAAAA4N4QDzynP33iSf0wr1+nBvaOLurpj35MK+/8Vf3WP+9XTiYLBHDisGwCAAAAvI6r+/36oy+933I8HgoptLdf4mlTZ6f77hYGAAAAAAAAJGFUPqTf/h8P6bczXQiA+wbLJgCOpKysTG//mUfk8voyXQoAAG+gmMaff1ETMUkyVPWuD+rRememiwIAAAAAAACQhOEwlJObq6ysrEyXApxILJsAOBLDMOR2u+VwODJdCgAAb5j48nf0uT9/RRFJ3vbf1Kc+8Qsq5atuAQAAAAAAgHtWts+nd/zsz8vn4ZfGgDcCI3IARxIMBvXM331TwcBMpksBAOCNEZ/X33/y9/RXU3G56n9JT/zZ43qYTRMAAAAAAADgnhYJh3Xl8kUFAoFMlwKcSEzJAQAAgKSiGvmL39F/+MtROerfrT/8i8/qV1o8mS4KAAAAAAAAwAHCkbCuDl1WMBjMdCnAicTX6AAAAABJrLzwB/rQx7+tlbpH9d/+8im9l0UTAAAAAAAAAAC4swkAAABgJzbxf/UfP/SULuc+ot//8mdMiyah+QlNzYcyWB0AAAAAAAAAAJnDsgmAI3G73covKJDbzW96AwBOkPBlff7D/0nfXO3Ub332c3qf33v7XOgH+vSjZ/VLT7yQufoAAAAAAAAAAMggRyKRSGS6CABvbjvRuHYi8UyXAQDAMQnr0pO/qF9+4mVtFTSrv61UzlvnYgpNX9WV2S01ffDr+t4n3pLBOgEAAAAAAAAkEwmHNTUxqurKcpWVlWW6HODEcWW6AABvbmtraxq+fkPlVXUqKCzMdDkAABxZbOzP9fhT5xSSpNURvXpuxOZPuZSbX3CXKwMAAAAAAACQLrfHo7YOv3we58F/GMCh8TU6AI5kfX1d165e0cb6aqZLAQDgGMQ0+Y2v6sW1g27+51Bufv5dqQgAAAAAAADA4YVCm/r2N7+moaGhTJcCnEjc2QQAAAC4xanGx76lsccyXQcAAAAAAACAo0gkEtre2lIkEsl0KcCJxJ1NAByJYdx8GonHD/oNcAAAAAAAAAAAAODuiMfjkm5/lgXgeHFlATgSp/Pm99xFo2yFAgAAAAAAAAAA4N4Qi0Yl3f4sC8Dx4mt0ABxJQUGB+vr7VVRakelSAAAAAAAAAAAAAEnS5uaGJCk/Pz/DlQAnkyORSPDdFwCOJJFIaHljRy4X+2sAAAAAAAAAAAC4NzgTUWV53dzdBHgD8DU6AI7s3LlzeuYbf6NYLJbpUgAAAAAAAAAAAABNTYxrK7TBognwBmHZBMCRFRYWKpGIa3Z6MtOlAAAAAAAAAAAA4D63sb6m8z/+oYaHhzNdCnBisWwC4MgaGxvlcrk0NnI906UAAAAAAAAAAADgPjc2ckOS1NbWluFKgJOLZRMAR+Z2u9XY2KjVlWUtLy1muhwAAAAAAAAAAADcpyKRiKYmx1RUVKTS0tJMlwOcWCybADgWHR0dyi8okGHwtAIAAAAAAAAAAIDMGL1xTbFoVH6/P9OlACeaI5FIJDJdBICTIZFIaCcSUyA4r+LSskyXAwAAAAAAAAAAgPuM4UhobmZSzc3NmS4FONG4BQGAY+NwOHT+lR/ppRee0+L8XKbLAQAAAAAAAAAAwH1iKxTSD1/8nnZC6yyaAHcByyYAjpXf75fL5dLLLz2vxYX5TJcDAAAAAAAAAACAE24rFNJLzz+r+bmgNjc2Ml0OcF9g2QTAsSooKNDDDz8swzD08j9+Xwvc4QQAAAAAAAAAAABvkM2Ndb30/LMKhTb14IMPqr6+PtMlAfcFlk0AHLvi4mI9/PDDcjqdMhxSIpFQLBbLdFkAAAAAAAAAAAA4YS68ck5bWyE9+OCDampqynQ5wH3DkUgkEpkuAsDJFA6H5fF4dPnKVQ1fu6b2zm5VVdfKMNhzAwAAAAAAAAAAwJ1ZmJ/TzNSEBk4PKrK9qUgkorKyskyXBdxXXJkuAMDJ5fF4bv7X5dTO9pZePfcDDXnPq76xWU2t7XK73RmuEAAAAAAAAAAAAG8GW6GQgoEZjY/e0Mb6miSpsb5WtbW1Ga4MuD9xZxMAd0U4HNbIyIiGh4e1sbGhn3/nu7W6tq6LF15Vbl6enE6nHA6HiopLVVNXr9Ebw9rcWDf9Hc2tHXK53bo2dNF03JuVrbaOTgUDM5oPBkznKqtrVVpWriuXXlM0GjGd6+zpV2hzQ+OjN0zH8wuKVN/YpImxEa2trpjONTS3ypft09ClC6bjbrdHHV09WpgLKjA7bTpXXlGl8soqXbtyWeGdbdO5js4eRSJhjVy/Zjqem5evxuZWTU2Oa2Vp0XSurqFJ+QWFunThFdNxw3Cqq7dfS4sLmpmaMJ0rKS1XVU2tbgxfKSP4lwAAEddJREFU1VZo03SutaNTSkjXrw2Zjmf7ctTS1qHZ6SktLsyZzlXX1qu4pFSXX3tV8XjcdK6n/7RWV5Y1OT5qOl5UXKKaugaNjVy/9SZwT9JsvVlq83cpGJjVfHDWdO5WtpdfUzRil+2mxkevm47nFxSqvrHZPtumVvlycjR08bzpuMvtlr+rVwvzcwrMTJnOlVVUqaKySsNXLmtnX7btnT2KRiIauX7VdHwv2+nJcS3bZFtQWKSL539sOm4Yhrp6Tx0+2/ZOySFdv3on2Z5XPG7++qvuvgGtra5Ysi0sLlFt0mzb5XZ7dDVJtnOBWc3tz7aqRqXlFbp6+aIikbDpXGdPv0KhTY2PJMt2VGury6ZzDU0t8uXkWrN1ueXvTpZtpSoqqzV8dUg721umc8myzcnNU1NLm6YnJ7S8tGA6lyxbh2Gou/eUlpcWNT05bjq3l+3I8FWFbLN16PrVy6bj2dk+tbT7NTszpcX5JNlePK94zC7bVU2Oj5iOFxaVqLbePtum1nZ5PF5dvfya6bjHm6V2f5fmgrOaC5izraiqUVmSbP3dfdreCmksSbaT46NaXTmGbMsrVVGVLNtuRSPRQ2VbW9+owqJiXTz/iqTbb6tTZVtcWqbqmjqNXL+m0OaG6Vxre6ccDoeGk2QbmJnWwnzQdK66pk7FpWUaunje8rV1ybMtVm19o8ZHb2h9bdV0rqmlXR6vTbYer9o7uzUXDGguMGM6dyvboYuKhO2y3dLYyLDpeF5+gRqaWmyzrW9sUW5eni6/9qrpuMvlkr+7T4vzc5pNku31q0Pa3p+tv1vRWFQjw0mynZrQ8qJ9tpcuvKLXt0wOh6HuviTZlpSputY+25Y2vwynoeEr5myzsn1qTZJtVU2dSkrLNHTxgmKxqOlcV+8pbayvaWLsMNm2yevN0pXDZFtZrbKKSl0buqRweMd0zt/dp+3tLY3dSJbtmFZXlkzn6hublZuXb8nW6XKps7tPiwvzmp2eNJ0rLa9QZVWNrl8b0vaWOds2f7fisZhuDF8xHc/JyVVTa7tmpia1tDhvOpc8W4e6+wa0srykqYkx02P2sh29fk2bttk6NXzlkul4Vna2Wts7FZid1sJckmwvXVAsapftuibGzO9RCwqLVddgn21jS5uysrJ1Zd971L1s54MBBfdlW15ZrfJk2Xb1amdnW6NJsp2aGNPKcprZOl3q7EmSbVmFKqtrdOPaFW1thUzn2vxdisfilmx9Oblqbm3XzPSklhbM2dbUNaiouESXLryqROL171Ed6um3z7aopFQ1tUn6j7YOuZwuXdufbVa2Wjs6FZyd0fycuf+oqq5VSVm5rly6oKhNtpsb65b+o6CwSHUNTfbZNrcpK9uardvjUUdnj+bnggru7z8qq1ReUaVrVy4pvGPOtqOrV+GdHY3eSNJ/2GRb19Cs/IICS//hdDrV2dOvpYV5zRwm244uJRIJS/+xl+3s9KQWk2X72qtKxNPM9sDe0qVrQ+Zsb/WWNtneSW+5l61d/9HY3KqsbJ8121S95a1s7XvLcCSs0WS95cS4VpbT7C2dTnX1JOkty8pVVV1rm22y3tLny1HzG9BbHm5ukKW2jq7Uc4OkvaXd3CBFb9ncKp8vRW9pk22q3vIkzg2S9Zap5wape0vbucFub5k025S9pd3cIEn/kXJusNdbXtbOdnpzg9v9xz0wN7ij3tJmbnBQb2mT7a3e8rBzg+4+hbZCSbM9tt4y5dzgKL3lYeYGZaqqqUs6N0jVW9pme4Te0jbbZL2l16t2f/ddmxvk5Nr1lgfPDWx7y4OyTdFbWuYGqXrLFHODlna/DIdxbHODO+0tPd6sQ84NqlVWXnlPzw1idr3lbrYzUxNaSntucLO3vKtzg6S9pTXbVL3lQXMDu94y5dygq1fbO9tHmhskEgnFYjE5nU71DZzRtaHXdO3KkDwej5qbm9XW1qbc3FwByAzubALgrvB4PPL7/ero6NDCwoIK8nxaX13SznbI9GbCUEJtrU1aCM5obs7c8LQ0N8ltGNYhT36++vt6tLm6bDlXWJAnX22VpifHtL2vqR8YOKWNyLblMbW1tfJ3tGppPqDpafMAqL6uVt48n+Ux2dnZGhjo19bmquVcji9LvoZazU5NaGPfIKynp0uR7bDlMRUVlerq7NDq4rzGx8wNelVlhXyeYstjXC6Xzpw5rcCWdYDtcTvV0tyg4OyUlpfMb9462tskyfKY4uJi9fZ0aW1lwXKutKRYPm+FJsZGLA3K2bNntLC9aXmMQ3G1tTZrPjijuaD5TXFzc6PchtPymLy8PPX392pzzZptQf5uthPWbE+d6tdGdMvymJraWvk72rS0ENT0lLnZqKurkdeVY3lMVlaWTg+c0taGNVtf9m620xNaXzdn293dpWh8x/KY8ooKdXV2aGVpXuOj5mwrK8qV7SmxPMbpdOrMmUEFtqxDTrfLUEtzg+Zmp7Rkl23Cmm3Rbrbrq4s22RbJ563Q5PiI5QOSs2cGtbQTsmabiKu9tVkLwRkF92fb1Ch3lit5tut22ebK563W9OSYtvZ9qHjqVL82ba7bmpoa+TvatLwQ0NT+bGtrlOXOs8/29Clt21y3viyvfA11CkxPaG3NPCzp7u5ULG69bsvLy9Xd5dfq0rzGR81NXGVFuXzeUttsz54ZVNDmut3LNhiY1tKiecDY3tYqw2F9PiwqKlJvb7fWV6zZlhQXyVddockxa7ZnzgxqOWzNVomY2tuatTA3q2DAPJRvamqQx3BbHpObm6tT/b3aXFuxPl/n5chXV63pyXHLhxP9/X0KRa3ZVlfX3LpupybNH2TV1lbbZuv1enezXbM+X2d51dRon21XV6diiYjlMWV72S5bs60oL5PPW2ZZbjMMYzdb63XrcjrU2tyoudlpLe4bVLS3tcqwea0r3MvW5rotKS6Uz1upyfFRRfYN0c8MnrbPNh5Te1uLFoKzCuwb7jU1Nsjj9Fhfz3JydepUn0I21+1etjOT4wqF9mXb16st22yr1elv1/LCnCYnzQPx2ppqZbnzk2Q7oOmQTbZez81sZya1umoelnR1+RWP2GRbVqbuLr/WlqyvdbezvWEaGhmGobNnBzW3bZOt4VBrS6PmA9NaWDBn29baIpesz4eFhYXq6+3WxuqS9bW4aC/bEUu2g4OntRq2vtYl4tGb2c7NKjBrzraxoV4en9cm25zdbK3XbV6uT776Gk1PjlsG2H19vdqOWl/rqqp2s10ManLCnG1NdZWy3QXW9yoejwZPD2ja5rrN8rrla6xXYGZKqyvmD306O/2K2Fy3paVl6u7u3L1u9z1fl5XKV2nN1uFw6OzZM5qzuW6dhtTa0qi5wIwW9n0I3traIpfD+npbUFiovt4ebdi8Ry0qLJCvplJT46MK7xu0nj49oNWI9bqtq4+oo71Fi3MBzc6ah3sNDXXyOLOsr2e+3Ww3rNnm5tzMdmZqXJub+7Lt7bHNtrKqajfbOU2Mm4emNdVVyvYUWl/P3G4NDg5oJmR9rcvyuOVrqldgZlIr+7P1dyiaiFqf80pL1dPdqbVl63VbXlYin7dcE2M3LB9sPvDAGc3bvEd1OqS2libNB6Y1P78v25ZmudwOa7YFBerr67G9bosK8+XzVmlqYkw7+xY9Tp8e0JrNdVtXV6+O9pv9x8zMvmzr6+R1Zdtk69PAqX5t2WabLV/9Xv9hHmD39vYoHLPJtvJm/7GyOK/xcfPSRnVVpbLdybI9rVmb9zFej0vNTfUKzE5pZdn8wYDf3654PG7NtmQvW+trXVnpbraj9tku7FizNRw3e8v54Izm7XpLm/dSe73lhk3/UViQL19tlaYmRi3ZDgyc0nrEmm1tXZ062lu1OB/QzP7esr5WXlfy3jJk03/k+F6f7f7eslvhbWu2e73lytKcxsfM2VZVVSg7WW85eFqzNtetx+1US9Nub7kv246OdiWUsL6elZSo5w56ywceOJuyt1wIzmpu3zLfzbmBXW+Zr/4++97y1tzAprccONVvOze41VvOBzU9be4/6utqU/eWdnODFL1lT3eXIjG7uUFFirlBuXxea2+Zcm7gcqbuLZV8bmDXfxw0N1iyuW5vZ5ukt/Qm7y1DtnOD3d4yydzAvrdMMTeorVGWK/eQc4ObveXs1KTW1/f3lknmBuUV6u7y35W5QXt7mxyyvtYVpcg2VW959sygllL1lsFZBYPW3tKdZddb5t3sLW37j9zd3tJmbtDfZ5ttdU3y3jLZ3CBVb5lybtB1J3OD2/3H66WcGzgNtTQ3ai4wrUW7uYFNb7k3N9hYsb6PSdlbJpsb7PaWi3OzCuyfGzSmmhvY9x8HzQ22bN6jppwb1FQry3XYucHN3nJ2ZlJrlt4yydygLHm2KecGZw+YGwSmtbi/t2xrldPmta6wsHB3bpCqt7RmOzh4Wis22d7qLW3mBo2N9fI47XrL5HODvNwc+epqDjU3qNqbGyzOWXrLZHMDj8ezOzewXjMp5wadfsVtrtu9ucGqTf9RUV5qOze41VvavI85cG7gOOzcoEA+r31vmWxuUF8f3e0tZzV72LmBTf9x4Nxg83jmBl6vVzlvOauWpkaVl5aoqqpKLhcfcwOZxp1NAGRcPB5XLBZTPB6X0+mUy+VSJBKxDBHdbrccDoflTZNhGHK73YpGo5YBhsvlktPpVDgc1v6nO6/Xq3g8bnmDvff3HaYGh8Mhj8ejWCxmabT3fia7GjwejxKJRNIaUv1M+wec6dSQ7GeSdEc1JPt3vZMaUv27HraGg/5dyfb+y9YwjGP7d71Xsr0bz4dHydbuZzpKtnY/072U7f6fiWxvI9vbPxPZku1BNUhke5QayPbgGsj29s9EtsefLf1HejXQW5JtujW8WbM97ufD486W17p7J9s342sd2aaugWyPVgPZ3q7h9dk6HA45nU45nU4BuPewbAIAAAAAAAAAAAAAAIC0GZkuAAAAAAAAAAAAAAAAAG8eLJsAAAAAAAAAAAAAAAAgbSybAAAAAAAAAAAAAAAAIG0smwAAAAAAAAAAAAAAACBtLJsAAAAAAAAAAAAAAAAgbSybAAAAAAAAAAAAAAAAIG0smwAAAAAAAAAAAAAAACBtLJsAAAAAAAAAAAAAAAAgbSybAAAAAAAAAAAAAAAAIG0smwAAAAAAAAAAAAAAACBtLJsAAAAAAAAAAAAAAAAgbSybAAAAAAAAAAAAAAAAIG0smwAAAAAAAAAAAAAAACBtLJsAAAAAAAAAAAAAAAAgbSybAAAAAAAAAAAAAAAAIG0smwAAAAAAAAAAAAAAACBtLJsAAAAAAAAAAAAAAAAgbSybAAAAAAAAAAAAAAAAIG0smwAAAAAAAAAAAAAAACBtLJsAAAAAAAAAAAAAAAAgbSybAAAAAAAAAAAAAAAAIG0smwAAAAAAAAAAAAAAACBtLJsAAAAAAAAAAAAAAAAgbSybAAAAAAAAAAAAAAAAIG0smwAAAAAAAAAAAAAAACBtLJsAAAAAAAAAAAAAAAAgbSybAAAAAAAAAAAAAAAAIG0smwAAAAAAAAAAAAAAACBtLJsAAAAAAAAAAAAAAAAgbSybAAAAAAAAAAAAAAAAIG0smwAAAAAAAAAAAAAAACBtLJsAAAAAAAAAAAAAAAAgbSybAAAAAAAAAAAAAAAAIG0smwAAAAAAAAAAAAAAACBtLJsAAAAAAAAAAAAAAAAgbSybAAAAAAAAAAAAAAAAIG0smwAAAAAAAAAAAAAAACBtLJsAAAAAAAAAAAAAAAAgbSybAAAAAAAAAAAAAAAAIG0smwAAAAAAAAAAAAAAACBtLJsAAAAAAAAAAAAAAAAgbSybAAAAAAAAAAAAAAAAIG0smwAAAAAAAAAAAAAAACBtLJsAAAAAAAAAAAAAAAAgbSybAAAAAAAAAAAAAAAAIG0smwAAAAAAAAAAAAAAACBtLJsAAAAAAAAAAAAAAAAgbSybAAAAAAAAAAAAAAAAIG0smwAAAAAAAAAAAAAAACBtLJsAAAAAAAAAAAAAAAAgbSybAAAAAAAAAAAAAAAAIG0smwAAAAAAAAAAAAAAACBtLJsAAAAAAAAAAAAAAAAgbf8fMlC5z9o5YdQAAAAASUVORK5CYII=;" vertex="1" parent="1">
          <mxGeometry x="-720" y="10" width="1003" height="268.16" as="geometry" />
        </mxCell>
        <mxCell id="6sCGa3LK2x3fFQPMABR3-37" value="" style="endArrow=classic;html=1;rounded=0;" edge="1" parent="1">
          <mxGeometry width="50" height="50" relative="1" as="geometry">
            <mxPoint x="-260" y="570" as="sourcePoint" />
            <mxPoint x="-220" y="587.1428571428571" as="targetPoint" />
          </mxGeometry>
        </mxCell>
        <mxCell id="6sCGa3LK2x3fFQPMABR3-39" value="" style="rounded=0;whiteSpace=wrap;html=1;" vertex="1" parent="1">
          <mxGeometry x="-190" y="570" width="250" height="90" as="geometry" />
        </mxCell>
        <mxCell id="6sCGa3LK2x3fFQPMABR3-41" value="" style="group" vertex="1" connectable="0" parent="1">
          <mxGeometry x="-350" y="240" width="60" height="207.5" as="geometry" />
        </mxCell>
        <mxCell id="6sCGa3LK2x3fFQPMABR3-42" value="" style="rounded=0;whiteSpace=wrap;html=1;" vertex="1" parent="6sCGa3LK2x3fFQPMABR3-41">
          <mxGeometry width="60" height="207.5" as="geometry" />
        </mxCell>
        <mxCell id="6sCGa3LK2x3fFQPMABR3-43" value="Additive Couping Layer" style="text;strokeColor=none;align=center;fillColor=none;html=1;verticalAlign=middle;whiteSpace=wrap;rounded=0;rotation=90;fontSize=18;fontFamily=Helvetica;" vertex="1" parent="6sCGa3LK2x3fFQPMABR3-41">
          <mxGeometry x="-67.5" y="81.25" width="195" height="45" as="geometry" />
        </mxCell>
        <mxCell id="6sCGa3LK2x3fFQPMABR3-45" value="" style="group" vertex="1" connectable="0" parent="1">
          <mxGeometry x="-150" y="570" width="30" height="97.5" as="geometry" />
        </mxCell>
        <mxCell id="6sCGa3LK2x3fFQPMABR3-46" value="" style="rounded=0;whiteSpace=wrap;html=1;" vertex="1" parent="6sCGa3LK2x3fFQPMABR3-45">
          <mxGeometry width="30" height="97.5" as="geometry" />
        </mxCell>
        <mxCell id="6sCGa3LK2x3fFQPMABR3-47" value="Conv 2d" style="text;strokeColor=none;align=center;fillColor=none;html=1;verticalAlign=middle;whiteSpace=wrap;rounded=0;rotation=90;fontSize=18;" vertex="1" parent="6sCGa3LK2x3fFQPMABR3-45">
          <mxGeometry x="-33.75" y="38.17771084337349" width="97.5" height="21.144578313253007" as="geometry" />
        </mxCell>
        <mxCell id="6sCGa3LK2x3fFQPMABR3-48" value="" style="group" vertex="1" connectable="0" parent="1">
          <mxGeometry x="-100" y="570" width="30" height="97.5" as="geometry" />
        </mxCell>
        <mxCell id="6sCGa3LK2x3fFQPMABR3-49" value="" style="rounded=0;whiteSpace=wrap;html=1;" vertex="1" parent="6sCGa3LK2x3fFQPMABR3-48">
          <mxGeometry width="30" height="97.5" as="geometry" />
        </mxCell>
        <mxCell id="6sCGa3LK2x3fFQPMABR3-50" value="ReLU" style="text;strokeColor=none;align=center;fillColor=none;html=1;verticalAlign=middle;whiteSpace=wrap;rounded=0;rotation=90;fontSize=18;" vertex="1" parent="6sCGa3LK2x3fFQPMABR3-48">
          <mxGeometry x="-33.75" y="38.17771084337349" width="97.5" height="21.144578313253007" as="geometry" />
        </mxCell>
        <mxCell id="6sCGa3LK2x3fFQPMABR3-51" value="" style="group" vertex="1" connectable="0" parent="1">
          <mxGeometry x="-50" y="570" width="30" height="97.5" as="geometry" />
        </mxCell>
        <mxCell id="6sCGa3LK2x3fFQPMABR3-52" value="" style="rounded=0;whiteSpace=wrap;html=1;" vertex="1" parent="6sCGa3LK2x3fFQPMABR3-51">
          <mxGeometry width="30" height="97.5" as="geometry" />
        </mxCell>
        <mxCell id="6sCGa3LK2x3fFQPMABR3-53" value="Conv 2d" style="text;strokeColor=none;align=center;fillColor=none;html=1;verticalAlign=middle;whiteSpace=wrap;rounded=0;rotation=90;fontSize=18;" vertex="1" parent="6sCGa3LK2x3fFQPMABR3-51">
          <mxGeometry x="-33.75" y="38.17771084337349" width="97.5" height="21.144578313253007" as="geometry" />
        </mxCell>
        <mxCell id="6sCGa3LK2x3fFQPMABR3-54" value="" style="whiteSpace=wrap;html=1;aspect=fixed;" vertex="1" parent="1">
          <mxGeometry x="90" y="575" width="80" height="80" as="geometry" />
        </mxCell>
        <mxCell id="6sCGa3LK2x3fFQPMABR3-55" value="" style="rounded=0;whiteSpace=wrap;html=1;" vertex="1" parent="1">
          <mxGeometry x="-290" y="340" width="120" height="60" as="geometry" />
        </mxCell>
        <mxCell id="6sCGa3LK2x3fFQPMABR3-60" value="" style="group" vertex="1" connectable="0" parent="1">
          <mxGeometry x="100" y="627.5" width="60" height="25" as="geometry" />
        </mxCell>
        <mxCell id="6sCGa3LK2x3fFQPMABR3-58" value="" style="rounded=0;whiteSpace=wrap;html=1;" vertex="1" parent="6sCGa3LK2x3fFQPMABR3-60">
          <mxGeometry x="10" width="40" height="25" as="geometry" />
        </mxCell>
        <mxCell id="6sCGa3LK2x3fFQPMABR3-59" value="t" style="text;strokeColor=none;align=center;fillColor=none;html=1;verticalAlign=middle;whiteSpace=wrap;rounded=0;rotation=0;" vertex="1" parent="6sCGa3LK2x3fFQPMABR3-60">
          <mxGeometry width="60" height="25" as="geometry" />
        </mxCell>
        <mxCell id="6sCGa3LK2x3fFQPMABR3-62" value="" style="group" vertex="1" connectable="0" parent="1">
          <mxGeometry x="100" y="585" width="60" height="30" as="geometry" />
        </mxCell>
        <mxCell id="6sCGa3LK2x3fFQPMABR3-63" value="" style="rounded=0;whiteSpace=wrap;html=1;" vertex="1" parent="6sCGa3LK2x3fFQPMABR3-62">
          <mxGeometry x="10" width="40" height="30" as="geometry" />
        </mxCell>
        <mxCell id="6sCGa3LK2x3fFQPMABR3-64" value="s" style="text;strokeColor=none;align=center;fillColor=none;html=1;verticalAlign=middle;whiteSpace=wrap;rounded=0;rotation=0;" vertex="1" parent="6sCGa3LK2x3fFQPMABR3-62">
          <mxGeometry width="60" height="30" as="geometry" />
        </mxCell>
      </root>
    </mxGraphModel>
  </diagram>
</mxfile>
